<svg xmlns="http://www.w3.org/2000/svg" width="15" height="15" viewBox="0 0 15 15">
  <path id="search_luoi_kk" data-name="search_luoi kk" d="M-3082.563,4334.167a5.568,5.568,0,0,0-1.371-7.862,5.829,5.829,0,0,0-8.021,1.343,5.573,5.573,0,0,0,1.372,7.865,5.848,5.848,0,0,0,6.251.252l4.242,4.134a1.221,1.221,0,0,0,1.7.043,1.164,1.164,0,0,0,.044-1.669c-.014-.015-.028-.029-.044-.043Zm-4.7.388a3.677,3.677,0,0,1-3.711-3.638,3.675,3.675,0,0,1,3.71-3.639,3.675,3.675,0,0,1,3.711,3.632,3.677,3.677,0,0,1-3.706,3.645Zm0,0" transform="translate(3093.013 -4325.268)" opacity="0.6"/>
</svg>
