<svg xmlns="http://www.w3.org/2000/svg" width="13" height="12.999" viewBox="0 0 13 12.999">
  <path id="xoa_luoi_kk" data-name="xoa_luoi kk" d="M-2926.78,4334.533l4.364-4.362a1.252,1.252,0,0,0,0-1.771,1.251,1.251,0,0,0-1.77,0l-4.363,4.363-4.364-4.363a1.25,1.25,0,0,0-1.769,0,1.252,1.252,0,0,0,0,1.771l4.364,4.362-4.364,4.364a1.25,1.25,0,0,0,0,1.77,1.248,1.248,0,0,0,.884.365,1.248,1.248,0,0,0,.885-.365l4.364-4.364,4.363,4.364a1.248,1.248,0,0,0,.885.365,1.249,1.249,0,0,0,.885-.365,1.25,1.25,0,0,0,0-1.77Z" transform="translate(2935.049 -4328.033)" opacity="0.6"/>
</svg>
