<svg xmlns="http://www.w3.org/2000/svg" width="14.5" height="14.493" viewBox="0 0 14.5 14.493">
  <g id="sua_luoi_kk" data-name="sua_luoi kk" opacity="0.6">
    <path id="Path_119" data-name="Path 119" d="M-2972.64,4336.911l8.458-8.424a.378.378,0,0,1,.536,0l1.574,1.575a.379.379,0,0,1,0,.536l-8.511,8.51a.356.356,0,0,1-.179.1l-2.059.5a.38.38,0,0,1-.458-.461l.539-2.157A.377.377,0,0,1-2972.64,4336.911Z" transform="translate(2973.29 -4325.224)"/>
    <path id="Path_120" data-name="Path 120" d="M-2962.319,4327.355a.378.378,0,0,1,0-.536l1.471-1.473a.751.751,0,0,1,.529-.2.757.757,0,0,1,.531.2l1.048,1.051a.738.738,0,0,1,.22.529.746.746,0,0,1-.22.53l-1.471,1.471a.38.38,0,0,1-.536,0Z" transform="translate(2973.02 -4325.145)"/>
  </g>
</svg>
