<svg xmlns="http://www.w3.org/2000/svg" width="20.88" height="21.018" viewBox="0 0 20.88 21.018"><defs><style>.a{opacity:0.7;}</style></defs><g class="a" transform="translate(5413.549 -1248)"><path d="M-5325.262,1448.595a.6.6,0,0,0-.595-.595h-7.208a.6.6,0,0,0-.594.595.6.6,0,0,0,.594.595h7.208A.6.6,0,0,0-5325.262,1448.595Z" transform="translate(-77.095 -193.971)"/><path d="M-5333.064,1528a.6.6,0,0,0-.594.595.6.6,0,0,0,.594.595h4.378a.6.6,0,0,0,.595-.595.6.6,0,0,0-.595-.595Z" transform="translate(-77.095 -271.172)"/><path d="M-5408.514,1264.516h-2.34a1.506,1.506,0,0,1-1.5-1.5v-12.317a1.506,1.506,0,0,1,1.5-1.5h8.6a1.506,1.506,0,0,1,1.5,1.5v4.3a.6.6,0,0,0,.595.595.6.6,0,0,0,.594-.595v-4.3a2.7,2.7,0,0,0-2.693-2.694h-8.6a2.7,2.7,0,0,0-2.695,2.694v12.317a2.7,2.7,0,0,0,2.695,2.694h2.34a.6.6,0,0,0,.6-.595A.6.6,0,0,0-5408.514,1264.516Z" transform="translate(0 0)"/><path d="M-5325.856,1368h-7.208a.6.6,0,0,0-.594.595.6.6,0,0,0,.594.595h7.208a.6.6,0,0,0,.595-.595A.6.6,0,0,0-5325.856,1368Z" transform="translate(-77.095 -116.771)"/><path d="M-5205.84,1538.589l-.447-.522a.236.236,0,0,0-.333-.025l-.595.511a.236.236,0,0,1-.382-.239,4.057,4.057,0,0,1,3.654-3.031,4.075,4.075,0,0,1,3.512,1.612.235.235,0,0,0,.318.054l.572-.384a.235.235,0,0,0,.056-.338,5.232,5.232,0,0,0-4.535-2.1,5.221,5.221,0,0,0-4.738,4.046.236.236,0,0,1-.408.1l-.391-.453a.235.235,0,0,0-.332-.025l-.522.448a.235.235,0,0,0-.024.332l1.734,2.019a.574.574,0,0,0,.478.2.575.575,0,0,0,.338-.138l2.019-1.734A.234.234,0,0,0-5205.84,1538.589Z" transform="translate(-195.952 -276.104)"/><path d="M-5124.6,1660.01l-1.844-2.017a.579.579,0,0,0-.816-.038l-1.907,1.722a.235.235,0,0,0-.016.332l.46.51a.234.234,0,0,0,.332.017l.447-.4a.235.235,0,0,1,.384.237,4.057,4.057,0,0,1-3.63,2.945,4.074,4.074,0,0,1-3.511-1.611.235.235,0,0,0-.319-.054l-.572.383a.236.236,0,0,0-.058.338,5.238,5.238,0,0,0,4.537,2.1,5.217,5.217,0,0,0,4.751-4.121.237.237,0,0,1,.405-.108l.5.549a.236.236,0,0,0,.333.015l.508-.464A.237.237,0,0,0-5124.6,1660.01Z" transform="translate(-268.133 -395.465)"/></g></svg>