<svg xmlns="http://www.w3.org/2000/svg" width="11.049" height="11.049" viewBox="0 0 11.049 11.049"><defs><style>.a{opacity:0.5;}.b{fill:#111;}</style></defs><g class="a" transform="translate(1)"><path class="b" d="M10.7,1.036H8.977V.345A.345.345,0,0,0,8.632,0H7.6a.345.345,0,0,0-.345.345v.691H3.8V.345A.345.345,0,0,0,3.453,0H2.417a.345.345,0,0,0-.345.345v.691H.345A.345.345,0,0,0,0,1.381V10.7a.345.345,0,0,0,.345.345H10.7a.345.345,0,0,0,.345-.345V1.381A.345.345,0,0,0,10.7,1.036Zm-3.453.691H8.977v.691H7.251Zm-5.179,0H3.8v.691H2.072Zm8.287,8.632H.691V4.143h9.668Z" transform="translate(-1)"/></g></svg>