<svg xmlns="http://www.w3.org/2000/svg" width="8" height="8" viewBox="0 0 8 8">
  <g id="copyright_footer" opacity="0.8">
    <path id="Path_54" data-name="Path 54" d="M8,4a4,4,0,1,0,4,4A4,4,0,0,0,8,4Zm0,7.2A3.2,3.2,0,1,1,11.2,8,3.2,3.2,0,0,1,8,11.2ZM7.232,7.546a1.054,1.054,0,0,1,.12-.348.7.7,0,0,1,.236-.246.687.687,0,0,1,.358-.092.67.67,0,0,1,.26.052.631.631,0,0,1,.342.356.78.78,0,0,1,.054.256h.716a1.431,1.431,0,0,0-.11-.516,1.2,1.2,0,0,0-.282-.4,1.239,1.239,0,0,0-.432-.262,1.6,1.6,0,0,0-.558-.094,1.584,1.584,0,0,0-.678.134,1.352,1.352,0,0,0-.48.368,1.547,1.547,0,0,0-.286.542,2.257,2.257,0,0,0-.092.654v.11a2.261,2.261,0,0,0,.094.656,1.521,1.521,0,0,0,.286.54,1.36,1.36,0,0,0,.482.366,1.6,1.6,0,0,0,.68.134A1.48,1.48,0,0,0,8.47,9.66,1.408,1.408,0,0,0,8.9,9.406a1.221,1.221,0,0,0,.3-.376,1.106,1.106,0,0,0,.12-.46H8.6a.57.57,0,0,1-.06.232.559.559,0,0,1-.144.182.673.673,0,0,1-.21.118.74.74,0,0,1-.242.04.7.7,0,0,1-.358-.094A.706.706,0,0,1,7.35,8.8a1.049,1.049,0,0,1-.12-.35,2.36,2.36,0,0,1-.03-.394v-.11a2.4,2.4,0,0,1,.032-.4Z" transform="translate(-4 -4)"/>
  </g>
</svg>
