<svg xmlns="http://www.w3.org/2000/svg" xmlns:xlink="http://www.w3.org/1999/xlink" width="14" height="14.875" viewBox="0 0 14 14.875"><defs><style>.a{fill:#39b54a;}.b{clip-path:url(#a);}</style><clipPath id="a"><path class="a" d="M13.125,14.875H.875A.878.878,0,0,1,0,14V12.25a.875.875,0,1,1,1.75,0v.875h10.5V12.25a.875.875,0,1,1,1.75,0V14a.878.878,0,0,1-.875.875ZM6.5,10.341,3,7.878A.874.874,0,1,1,4,6.447L6.128,7.942q0-.033,0-.067v-7a.875.875,0,1,1,1.75,0v7h0L9.975,6.3a.875.875,0,0,1,1.05,1.4l-3.5,2.625a.876.876,0,0,1-1.028.016Z" transform="translate(0)"/></clipPath></defs><g transform="translate(-4 -3)"><path class="a" d="M13.125,14.875H.875A.878.878,0,0,1,0,14V12.25a.875.875,0,1,1,1.75,0v.875h10.5V12.25a.875.875,0,1,1,1.75,0V14a.878.878,0,0,1-.875.875ZM6.5,10.341,3,7.878A.874.874,0,1,1,4,6.447L6.128,7.942q0-.033,0-.067v-7a.875.875,0,1,1,1.75,0v7h0L9.975,6.3a.875.875,0,0,1,1.05,1.4l-3.5,2.625a.876.876,0,0,1-1.028.016Z" transform="translate(4 3)"/></g></svg>