<svg xmlns="http://www.w3.org/2000/svg" width="18.885" height="16.2" viewBox="0 0 18.885 16.2"><defs><style>.a{fill:#39b54a;}</style></defs><g transform="translate(0 -67.15)"><path class="a" d="M17.887,579.05H11.7l-.83.943a1.9,1.9,0,0,1-2.855,0l-.83-.943H1a1,1,0,0,0-1,1v3.968a1,1,0,0,0,1,1H17.885a1,1,0,0,0,1-1v-3.968A1,1,0,0,0,17.887,579.05Zm-15.1,3.836a.852.852,0,1,1,.852-.852A.852.852,0,0,1,2.783,582.886Z" transform="translate(0 -501.667)"/><path class="a" d="M202.633,77.383l.308.352a1,1,0,0,0,1.5,0l.308-.352,4.172-4.754a1,1,0,0,0-.752-1.659h-1.311V68.149a1,1,0,0,0-1-1h-4.338a1,1,0,0,0-1,1v2.823h-1.311a1,1,0,0,0-.752,1.659Z" transform="translate(-194.249)"/></g></svg>