<svg xmlns="http://www.w3.org/2000/svg" width="283.463" height="176.563" viewBox="0 0 283.463 176.563">
  <g id="empty_c12" transform="translate(-6754.338 -363.551)">
    <g id="Group_813" data-name="Group 813" transform="translate(6772.279 376.36)" opacity="0.3">
      <g id="Group_800" data-name="Group 800" transform="translate(20.453 121.174)">
        <g id="Group_799" data-name="Group 799">
          <path id="Path_2142" data-name="Path 2142" d="M6903.924,597.21h-79.5a7.342,7.342,0,0,1,0-14.685h79.5a7.342,7.342,0,0,1,0,14.685Z" transform="translate(-6817.087 -582.525)" fill="#fff"/>
        </g>
      </g>
      <g id="Group_802" data-name="Group 802" transform="translate(0 95.511)">
        <g id="Group_801" data-name="Group 801">
          <path id="Path_2143" data-name="Path 2143" d="M6870.5,555.268H6791a7.342,7.342,0,0,1,0-14.685h79.5a7.342,7.342,0,0,1,0,14.685Z" transform="translate(-6783.659 -540.583)" fill="#fff"/>
        </g>
      </g>
      <g id="Group_804" data-name="Group 804" transform="translate(22.383 63.481)">
        <g id="Group_803" data-name="Group 803">
          <path id="Path_2144" data-name="Path 2144" d="M6907.078,502.92h-79.5a7.342,7.342,0,0,1,0-14.685h79.5a7.342,7.342,0,1,1,0,14.685Z" transform="translate(-6820.24 -488.235)" fill="#fff"/>
        </g>
      </g>
      <g id="Group_806" data-name="Group 806" transform="translate(50.746 25.47)">
        <g id="Group_805" data-name="Group 805">
          <path id="Path_2145" data-name="Path 2145" d="M6953.434,440.8h-79.5a7.342,7.342,0,0,1,0-14.685h79.5a7.342,7.342,0,0,1,0,14.685Z" transform="translate(-6866.595 -426.112)" fill="#fff"/>
        </g>
      </g>
      <g id="Group_808" data-name="Group 808" transform="translate(142.592 0)">
        <g id="Group_807" data-name="Group 807">
          <path id="Path_2146" data-name="Path 2146" d="M7103.54,399.171h-79.5a7.342,7.342,0,1,1,0-14.685h79.5a7.342,7.342,0,1,1,0,14.685Z" transform="translate(-7016.702 -384.486)" fill="#fff"/>
        </g>
      </g>
      <g id="Group_810" data-name="Group 810" transform="translate(139.311 30.873)">
        <g id="Group_809" data-name="Group 809">
          <path id="Path_2147" data-name="Path 2147" d="M7130.209,449.627H7018.682a7.342,7.342,0,0,1,0-14.685h111.527a7.342,7.342,0,0,1,0,14.685Z" transform="translate(-7011.34 -434.942)" fill="#fff"/>
        </g>
      </g>
      <g id="Group_812" data-name="Group 812" transform="translate(92.809 57.307)">
        <g id="Group_811" data-name="Group 811">
          <path id="Path_2148" data-name="Path 2148" d="M7054.21,492.829H6942.683a7.342,7.342,0,0,1,0-14.685H7054.21a7.342,7.342,0,0,1,0,14.685Z" transform="translate(-6935.341 -478.144)" fill="#fff"/>
        </g>
      </g>
    </g>
    <g id="Group_816" data-name="Group 816" transform="translate(6837.289 375.568)">
      <g id="Group_814" data-name="Group 814" transform="translate(0 0)">
        <path id="Path_2149" data-name="Path 2149" d="M7003.434,490.649l-16.675,22.394-59.28,14.345a7.312,7.312,0,0,1-8.837-5.429l-26.054-110.49a6.764,6.764,0,0,1,5.022-8.134l73.66-17.474a6.3,6.3,0,0,1,7.566,4.623Z" transform="translate(-6890.877 -384.161)" fill="#fff"/>
        <path id="Path_2150" data-name="Path 2150" d="M6924.772,528.157a8.85,8.85,0,0,1-8.589-6.817L6890.13,410.851a8.305,8.305,0,0,1,6.157-9.974l73.661-17.474a7.844,7.844,0,0,1,9.4,5.748l24.769,100.864-17.436,23.416-.537.13-59.279,14.345A8.887,8.887,0,0,1,6924.772,528.157Zm46.977-141.906a4.738,4.738,0,0,0-1.095.129l-73.661,17.474a5.241,5.241,0,0,0-3.886,6.294l26.054,110.49a5.784,5.784,0,0,0,6.989,4.295l58.742-14.216,15.913-21.372-24.425-99.465A4.781,4.781,0,0,0,6971.749,386.251Z" transform="translate(-6889.908 -383.192)" fill="#0293d6"/>
      </g>
      <g id="Group_815" data-name="Group 815" transform="translate(91.264 105.009)">
        <path id="Path_2151" data-name="Path 2151" d="M7042.192,579.034l-2.963-12.618a6.06,6.06,0,0,1,4.375-7.283l16.36-4.321.781,2.958-16.359,4.321a3.017,3.017,0,0,0-2.179,3.627l2.962,12.618Z" transform="translate(-7039.064 -554.812)" fill="#0293d6"/>
      </g>
    </g>
    <g id="Group_821" data-name="Group 821" transform="translate(6874.674 405.987)">
      <g id="Group_817" data-name="Group 817" transform="translate(0 4.105)">
        <circle id="Ellipse_13" data-name="Ellipse 13" cx="3.401" cy="3.401" r="3.401" fill="#035c88"/>
      </g>
      <g id="Group_818" data-name="Group 818" transform="translate(17.886)">
        <circle id="Ellipse_14" data-name="Ellipse 14" cx="3.401" cy="3.401" r="3.401" fill="#035c88"/>
      </g>
      <g id="Group_819" data-name="Group 819" transform="translate(2.395 17.183)">
        <path id="Path_2152" data-name="Path 2152" d="M6956.927,466.763l22.451-5.682a2.859,2.859,0,0,1,3.04,4.42c-2.388,3.351-5.984,7.112-10.725,8.515-5.074,1.5-10.936-.307-15.215-2.26A2.656,2.656,0,0,1,6956.927,466.763Z" transform="translate(-6954.923 -460.988)" fill="#045c84"/>
      </g>
      <g id="Group_820" data-name="Group 820" transform="translate(8.448 25.131)">
        <path id="Path_2153" data-name="Path 2153" d="M6964.814,477.068s7.591,2.585,12.7-.884c0,0-1.833-2.879-4.09-2.061s-2.486,1.538-5.464.687C6967.955,474.81,6966.09,474.418,6964.814,477.068Z" transform="translate(-6964.814 -473.977)" fill="#fb5955"/>
      </g>
    </g>
    <g id="Group_822" data-name="Group 822" transform="translate(6829.581 531.199)">
      <ellipse id="Ellipse_15" data-name="Ellipse 15" cx="66.61" cy="4.457" rx="66.61" ry="4.457" fill="#d6d6d6"/>
    </g>
    <g id="Group_825" data-name="Group 825" transform="translate(6970.096 476.604)">
      <g id="Group_823" data-name="Group 823" transform="translate(2.801)">
        <rect id="Rectangle_1003" data-name="Rectangle 1003" width="1.921" height="8.996" transform="translate(0 0.365) rotate(-10.943)" fill="#fe5654"/>
      </g>
      <g id="Group_824" data-name="Group 824" transform="translate(0 2.802)">
        <rect id="Rectangle_1004" data-name="Rectangle 1004" width="8.995" height="1.921" transform="translate(0 1.707) rotate(-10.939)" fill="#fe5654"/>
      </g>
    </g>
    <g id="Group_828" data-name="Group 828" transform="translate(6754.338 443.693)">
      <g id="Group_826" data-name="Group 826" transform="translate(2.835)">
        <rect id="Rectangle_1005" data-name="Rectangle 1005" width="1.836" height="8.995" transform="matrix(0.982, -0.19, 0.19, 0.982, 0, 0.348)" fill="#eb8d2f"/>
      </g>
      <g id="Group_827" data-name="Group 827" transform="translate(0 2.834)">
        <rect id="Rectangle_1006" data-name="Rectangle 1006" width="8.995" height="1.836" transform="translate(0 1.71) rotate(-10.959)" fill="#eb8d2f"/>
      </g>
    </g>
    <g id="Group_831" data-name="Group 831" transform="translate(6951.862 390.269)">
      <g id="Group_829" data-name="Group 829" transform="translate(2.835 0)">
        <rect id="Rectangle_1007" data-name="Rectangle 1007" width="1.836" height="8.996" transform="translate(0 0.348) rotate(-10.943)" fill="#06c100"/>
      </g>
      <g id="Group_830" data-name="Group 830" transform="translate(0 2.834)">
        <rect id="Rectangle_1008" data-name="Rectangle 1008" width="8.996" height="1.836" transform="translate(0 1.71) rotate(-10.959)" fill="#06c100"/>
      </g>
    </g>
    <g id="Group_832" data-name="Group 832" transform="translate(6783.68 489.844)">
      <circle id="Ellipse_16" data-name="Ellipse 16" cx="3.401" cy="3.401" r="3.401" fill="#0293d6"/>
    </g>
    <g id="Group_833" data-name="Group 833" transform="translate(6975.708 363.551)">
      <circle id="Ellipse_17" data-name="Ellipse 17" cx="3.401" cy="3.401" r="3.401" fill="#0293d6"/>
    </g>
    <g id="Group_834" data-name="Group 834" transform="translate(6972.542 441.567)">
      <path id="Path_2154" data-name="Path 2154" d="M7117.334,503.811a6.378,6.378,0,1,1,6.377-6.378A6.384,6.384,0,0,1,7117.334,503.811Zm0-10.614a4.236,4.236,0,1,0,4.236,4.237A4.242,4.242,0,0,0,7117.334,493.2Z" transform="translate(-7110.956 -491.055)" fill="#6d6dff"/>
    </g>
    <g id="Group_842" data-name="Group 842" transform="translate(6792.272 379.298)">
      <path id="Path_2154-2" data-name="Path 2154" d="M7115.6,500.349a4.647,4.647,0,1,1,4.646-4.647A4.652,4.652,0,0,1,7115.6,500.349Zm0-7.734a3.087,3.087,0,1,0,3.086,3.087A3.091,3.091,0,0,0,7115.6,492.615Z" transform="translate(-7110.956 -491.055)" fill="#6d6dff"/>
    </g>
    <g id="Group_835" data-name="Group 835" transform="translate(6796.029 405.895)">
      <path id="Path_2155" data-name="Path 2155" d="M6828.852,445.512a6.378,6.378,0,1,1,6.378-6.378A6.385,6.385,0,0,1,6828.852,445.512Zm0-10.615a4.237,4.237,0,1,0,4.236,4.237A4.241,4.241,0,0,0,6828.852,434.9Z" transform="translate(-6822.474 -432.756)" fill="#e2e2ec"/>
    </g>
    <g id="Group_836" data-name="Group 836" transform="translate(6830.958 434.113)">
      <path id="Path_2156" data-name="Path 2156" d="M6896.97,481.936,6879.7,548.144a4.093,4.093,0,0,0,4.975,5l64.594-16.51a4.093,4.093,0,0,0,1.95-6.789l-47.321-49.7A4.094,4.094,0,0,0,6896.97,481.936Z" transform="translate(-6879.562 -478.874)" fill="#dbeefc"/>
    </g>
    <g id="Group_840" data-name="Group 840" transform="translate(6825.999 436.893)">
      <g id="Group_837" data-name="Group 837">
        <path id="Path_2157" data-name="Path 2157" d="M6891.865,489.484l-17.272,66.208a4.094,4.094,0,0,0,4.975,5l64.593-16.51a4.093,4.093,0,0,0,1.951-6.789l-47.322-49.7A4.093,4.093,0,0,0,6891.865,489.484Z" transform="translate(-6872.621 -484.583)" fill="#fff"/>
        <path id="Path_2158" data-name="Path 2158" d="M6877.366,561.492a5.936,5.936,0,0,1-5.714-7.43l17.271-66.208a5.929,5.929,0,0,1,10.031-2.591l47.322,49.7a5.929,5.929,0,0,1-2.826,9.833l-64.593,16.51A6.012,6.012,0,0,1,6877.366,561.492Zm15.111-72.712-17.272,66.208a2.257,2.257,0,0,0,2.743,2.757l64.594-16.51a2.257,2.257,0,0,0,1.076-3.745l-47.321-49.7a2.258,2.258,0,0,0-3.819.987Z" transform="translate(-6871.456 -483.416)" fill="#fe5654"/>
      </g>
      <g id="Group_838" data-name="Group 838" transform="translate(32.777 52.285)">
        <circle id="Ellipse_18" data-name="Ellipse 18" cx="3.401" cy="3.401" r="3.401" fill="#fe5654"/>
      </g>
      <g id="Group_839" data-name="Group 839" transform="translate(24.941 17.697)">
        <path id="Path_2159" data-name="Path 2159" d="M6921.025,542.71a1.99,1.99,0,0,1-1.923-1.492l-6.821-26.393a1.989,1.989,0,0,1,3.851-1l6.82,26.393a1.992,1.992,0,0,1-1.927,2.487Z" transform="translate(-6912.218 -512.339)" fill="#fe5654"/>
      </g>
    </g>
  </g>
</svg>
