<svg xmlns="http://www.w3.org/2000/svg" width="9.297" height="11.433" viewBox="0 0 9.297 11.433"><defs><style>.a{fill:#fff;}</style></defs><g transform="translate(-1340 -53)"><g transform="translate(1343.391 57.493)"><g transform="translate(0 0)"><path class="a" d="M3555.2,1673.656a1.256,1.256,0,1,0,1.257,1.256A1.258,1.258,0,0,0,3555.2,1673.656Z" transform="translate(-3553.94 -1673.656)"/></g></g><path class="a" d="M3511.74,1618.162v10.628a.4.4,0,0,0,.4.4h8.493a.4.4,0,0,0,.4-.4v-10.628a.4.4,0,0,0-.4-.4h-8.493A.4.4,0,0,0,3511.74,1618.162Zm6.021,6.813v1.835a.377.377,0,0,1-.546.336l-.826-.416-.826.416a.376.376,0,0,1-.546-.336v-1.835a2.01,2.01,0,1,1,2.745,0Zm1.541-4.8a.387.387,0,0,1-.391.34h-5.046a.388.388,0,0,1-.391-.34.377.377,0,0,1,.375-.414h5.078A.377.377,0,0,1,3519.3,1620.179Z" transform="translate(-2171.74 -1564.76)"/></g></svg>