<svg xmlns="http://www.w3.org/2000/svg" width="17.501" height="14.487" viewBox="0 0 17.501 14.487"><defs><style>.a{opacity:0.7;}</style></defs><path class="a" d="M-6212.209,1237.621a.56.56,0,0,1-.559-.56.56.56,0,0,1,.559-.56h10.84a4.014,4.014,0,0,0,4.01-4.009,4.014,4.014,0,0,0-4.01-4.009h-10.578l2.883,3.3a.552.552,0,0,1,.137.406.553.553,0,0,1-.19.384.557.557,0,0,1-.368.138.563.563,0,0,1-.422-.192l-3.692-4.226-.007-.009-.016-.02-.017-.023-.015-.021-.014-.023a.218.218,0,0,1-.011-.022.248.248,0,0,1-.013-.025.2.2,0,0,1-.01-.023c0-.008-.007-.017-.01-.025s0-.016-.007-.024a.262.262,0,0,1-.008-.027v0a.065.065,0,0,1,0-.019c0-.011,0-.021,0-.032v-.011a.026.026,0,0,1,0-.009.419.419,0,0,1,0-.048v-.006a.488.488,0,0,1,0-.052.038.038,0,0,1,0-.01v-.011c0-.01,0-.02,0-.03s0-.014,0-.021v0a.237.237,0,0,1,.007-.025.251.251,0,0,1,.008-.026.113.113,0,0,1,.009-.023.13.13,0,0,1,.011-.025c0-.008.007-.015.01-.022l.014-.025.012-.02.016-.025.011-.014,0,0a.292.292,0,0,1,.02-.025.092.092,0,0,0,.006-.008l3.692-4.226a.56.56,0,0,1,.422-.192.558.558,0,0,1,.368.138.561.561,0,0,1,.054.791l-2.883,3.3h10.578a5.135,5.135,0,0,1,5.13,5.129,5.135,5.135,0,0,1-5.13,5.129Z" transform="translate(6213.74 -1223.134)"/></svg>