<svg xmlns="http://www.w3.org/2000/svg" width="10.446" height="14.378" viewBox="0 0 10.446 14.378"><defs><style>.a{opacity:0.8;}</style></defs><g class="a"><path d="M2806.791,1647.39h-6.531l-.407-9.618h7.345l-.408,9.618Zm-7.551-11.06h8.571v.5h-8.571v-.5Zm3.038-1.442h2.5v.5h-2.5v-.5Zm6,.5h-2.568v-.974a.469.469,0,0,0-.469-.468h-3.434a.469.469,0,0,0-.469.468v.974h-2.569a.468.468,0,0,0-.468.468v1.442a.469.469,0,0,0,.468.469h.143l.428,10.106a.47.47,0,0,0,.469.45h7.429a.47.47,0,0,0,.468-.45l.428-10.106h.143a.47.47,0,0,0,.469-.469v-1.442a.469.469,0,0,0-.469-.468Z" transform="translate(-2798.303 -1633.951)"/><path d="M2801.73,1646.12a.469.469,0,0,0,.469-.469v-5.8a.469.469,0,1,0-.937,0v5.8a.469.469,0,0,0,.468.469Z" transform="translate(-2798.394 -1634.118)"/><path d="M2803.676,1646.12a.47.47,0,0,0,.469-.469v-5.8a.469.469,0,1,0-.937,0v5.8a.469.469,0,0,0,.468.469Z" transform="translate(-2798.454 -1634.118)"/><path d="M2805.622,1646.12a.47.47,0,0,0,.469-.469v-5.8a.469.469,0,1,0-.938,0v5.8a.469.469,0,0,0,.469.469Z" transform="translate(-2798.514 -1634.118)"/></g></svg>