<svg xmlns="http://www.w3.org/2000/svg" xmlns:xlink="http://www.w3.org/1999/xlink" width="11.2" height="14" viewBox="0 0 11.2 14"><defs><style>.a{fill:#787878;}.b{clip-path:url(#a);}</style><clipPath id="a"><path class="a" d="M1.789,14A1.771,1.771,0,0,1,0,12.25V1.75A1.772,1.772,0,0,1,1.789,0h4.9a.7.7,0,0,1,.518.229l3.811,4.2A.7.7,0,0,1,11.2,4.9v7.35A1.772,1.772,0,0,1,9.411,14Z" transform="translate(0 0)"/></clipPath></defs><g transform="translate(-4 -2)"><path class="a" d="M9.411,14H1.789A1.772,1.772,0,0,1,0,12.25V1.75A1.772,1.772,0,0,1,1.789,0h4.9a.7.7,0,0,1,.518.229l3.811,4.2A.7.7,0,0,1,11.2,4.9v7.35A1.772,1.772,0,0,1,9.411,14ZM1.789,1.4a.371.371,0,0,0-.389.35v10.5a.371.371,0,0,0,.389.35H9.411a.372.372,0,0,0,.389-.35V5.6H7.5a1.951,1.951,0,0,1-1.9-2V1.4ZM7,2.085V3.6a.554.554,0,0,0,.5.6H8.92ZM7.7,11.2H3.5a.7.7,0,0,1,0-1.4H7.7a.7.7,0,1,1,0,1.4ZM5.6,8.4H3.5A.7.7,0,0,1,3.5,7H5.6a.7.7,0,0,1,0,1.4Z" transform="translate(4 2)"/></g></svg>