<svg xmlns="http://www.w3.org/2000/svg" width="23.381" height="21.348" viewBox="0 0 23.381 21.348"><defs><style>.a{opacity:0.6;}</style></defs><g class="a" transform="translate(0 -21.333)"><g transform="translate(0 21.333)"><g transform="translate(0 0)"><path d="M22.874,85.333H15.609a.509.509,0,0,0-.491.377,3.615,3.615,0,0,1-.613,1.263.506.506,0,0,0-.089.432l.787,3.15a1.528,1.528,0,0,1-.526,1.558,1.554,1.554,0,0,1-1.636.175l-1.123-.562a.51.51,0,0,0-.454,0l-1.123.562A1.555,1.555,0,0,1,8.7,92.114a1.527,1.527,0,0,1-.526-1.559l.787-3.15a.507.507,0,0,0-.089-.432,3.606,3.606,0,0,1-.613-1.263.508.508,0,0,0-.491-.376H.508A.508.508,0,0,0,0,85.841v17.282a.508.508,0,0,0,.508.508H22.873a.508.508,0,0,0,.508-.508V85.841A.507.507,0,0,0,22.874,85.333ZM14.741,101.6h-6.1a.508.508,0,0,1,0-1.017h6.1a.508.508,0,0,1,0,1.017Zm3.05-3.05H5.592a.508.508,0,1,1,0-1.017h12.2a.508.508,0,1,1,0,1.017Zm2.033-3.05H3.559a.508.508,0,1,1,0-1.017H19.824a.508.508,0,1,1,0,1.017Z" transform="translate(0 -82.283)"/><path d="M193.027,25.886l-.991,3.965a.508.508,0,0,0,.721.577l1.805-.9,1.805.9a.508.508,0,0,0,.721-.577l-.991-3.965a2.541,2.541,0,1,0-3.07,0Z" transform="translate(-182.871 -21.333)"/></g></g></g></svg>