<svg xmlns="http://www.w3.org/2000/svg" width="17.136" height="22.514" viewBox="0 0 17.136 22.514"><defs><style>.a{opacity:0.6;}</style></defs><g class="a" transform="translate(-50.526)"><g transform="translate(50.526)"><path d="M67.1.578a.943.943,0,0,0-1.025.156L64.6,2.042a.106.106,0,0,1-.141,0L62.45.244a.957.957,0,0,0-1.277,0l-2.008,1.8a.106.106,0,0,1-.142,0L57.015.244a.957.957,0,0,0-1.277,0l-2.01,1.8a.106.106,0,0,1-.141,0L52.108.734a.95.95,0,0,0-1.582.717v19.61a.952.952,0,0,0,1.585.717l1.477-1.308a.106.106,0,0,1,.141,0l2.01,1.8a.957.957,0,0,0,1.277,0l2.008-1.8a.106.106,0,0,1,.142,0l2.008,1.8a.957.957,0,0,0,1.277,0l2.01-1.8a.106.106,0,0,1,.141,0l1.478,1.308a.95.95,0,0,0,1.582-.717V1.452A.942.942,0,0,0,67.1.578ZM54.05,7.638h5.3a.426.426,0,1,1,0,.851h-5.3a.426.426,0,1,1,0-.851Zm10.089,7.237H54.05a.426.426,0,1,1,0-.851H64.139a.426.426,0,1,1,0,.851Zm0-3.193H54.05a.426.426,0,1,1,0-.851H64.139a.426.426,0,1,1,0,.851Z" transform="translate(-50.526)"/></g></g></svg>