<svg xmlns="http://www.w3.org/2000/svg" width="13" height="13" viewBox="0 0 13 13">
  <g id="thong_dai_footer" data-name="thong dai_footer" transform="translate(-0.004)">
    <path id="Path_3698" data-name="Path 3698" d="M12.288.715A2.347,2.347,0,0,0,10.566,0H2.441A2.348,2.348,0,0,0,.718.715,2.348,2.348,0,0,0,0,2.438v8.125a2.348,2.348,0,0,0,.715,1.722A2.348,2.348,0,0,0,2.441,13h8.125A2.442,2.442,0,0,0,13,10.563V2.438A2.348,2.348,0,0,0,12.288.715ZM10.65,9.868a1.528,1.528,0,0,1-.8.677,2.686,2.686,0,0,1-1.1.288,2.1,2.1,0,0,1-.288-.021q-.152-.021-.258-.042a2.76,2.76,0,0,1-.279-.076q-.174-.055-.25-.085L7.392,10.5q-.2-.076-.254-.093A7.586,7.586,0,0,1,4.425,8.578,7.586,7.586,0,0,1,2.593,5.865q-.017-.051-.093-.254t-.106-.279q-.029-.076-.085-.25A2.783,2.783,0,0,1,2.233,4.8q-.021-.106-.042-.258a2.1,2.1,0,0,1-.021-.288,2.686,2.686,0,0,1,.288-1.1,1.527,1.527,0,0,1,.677-.8,2.229,2.229,0,0,1,.855-.186.393.393,0,0,1,.135.017.5.5,0,0,1,.14.152,3.437,3.437,0,0,1,.212.343q.114.207.224.4t.212.385q.1.19.127.241t.11.161a1.3,1.3,0,0,1,.127.212.43.43,0,0,1,.042.178.5.5,0,0,1-.174.309,2.887,2.887,0,0,1-.381.334,3.3,3.3,0,0,0-.381.326.474.474,0,0,0-.173.283.413.413,0,0,0,.03.14,1.309,1.309,0,0,0,.055.131q.025.051.08.144t.072.119A6.465,6.465,0,0,0,5.517,7.486,6.46,6.46,0,0,0,6.96,8.557q.025.017.119.072c.062.037.11.063.144.08a1.288,1.288,0,0,0,.131.055.416.416,0,0,0,.14.03q.135,0,.372-.279t.482-.554q.245-.275.4-.275a.431.431,0,0,1,.178.042,1.3,1.3,0,0,1,.211.127c.079.057.133.093.161.11l.448.245q.449.237.749.419a.979.979,0,0,1,.326.25.4.4,0,0,1,.017.136A2.224,2.224,0,0,1,10.65,9.868Z" transform="translate(0)" fill="#eb8d2f"/>
  </g>
</svg>
