<svg xmlns="http://www.w3.org/2000/svg" width="15.859" height="19" viewBox="0 0 15.859 19">
  <g id="chon_chu_ky_so_he_thong" data-name="chon chu ky so_he thong" transform="translate(-4291.747 -269.975)">
    <path id="Path_328" data-name="Path 328" d="M4307.6,279.239c0-.026,0-.052-.006-.077v-.009a.026.026,0,0,1,0-.008.382.382,0,0,0-.005-.057c0-.052-.008-.1-.014-.158a5.291,5.291,0,0,0-1.5-3.118c-1.1-1.129-2.218-2.246-3.338-3.356l-.07-.07q-.984-.976-1.968-1.951c-.083-.082-.16-.154-.229-.215a.66.66,0,0,0-1.043.016l0,0c-.067.059-.139.126-.216.2-1.782,1.768-3.572,3.527-5.33,5.319a5.272,5.272,0,0,0-1.562,3.46c0,.076-.006.152-.006.23v.028c0,.059,0,.116,0,.176s0,.1.008.143v.009a.015.015,0,0,0,0,.011s0,0,0,0c0,.018,0,.036.007.054a5.375,5.375,0,0,0,1.573,3.3c.493.5.993,1,1.492,1.5h0l1.748,1.787.04.048.07.07,1.354,1.341h-6.33a.507.507,0,0,0-.288.089.526.526,0,0,0,.289.966h6.745a.522.522,0,0,0,.426-.232l0,0h0a.1.1,0,0,0,.005-.011.515.515,0,0,0,.095-.282l-.022-1.194c-.009-1.851.006-3.7-.023-5.552a1.275,1.275,0,0,0-.427-.834c-.063-.056-.124-.112-.18-.17l-.076-.08a.247.247,0,0,1-.027-.03,2.058,2.058,0,0,1-.368-.588c-.013-.038-.026-.076-.038-.115a.068.068,0,0,1-.006-.019.509.509,0,0,1-.016-.061.5.5,0,0,1-.013-.054c-.006-.028-.01-.058-.014-.087a1.443,1.443,0,0,1,.051-.626,1.66,1.66,0,0,1,.5-.766l.007-.006a1.6,1.6,0,0,1,2.2.081c.009.011.019.019.027.029a1.622,1.622,0,0,1,.367.588.629.629,0,0,1,.025.069.19.19,0,0,1,.01.036.417.417,0,0,1,.018.067c.009.034.016.069.021.1a.269.269,0,0,1,.006.048.326.326,0,0,1,.007.057.55.55,0,0,1,0,.065.934.934,0,0,1,0,.165,1.741,1.741,0,0,1-.562,1.119.011.011,0,0,1-.005.005c-.023.023-.047.044-.071.066s-.072.064-.108.1a1.1,1.1,0,0,0-.429.686c-.025,2.3-.008,4.6,0,6.907v.343l.143-.143h0c1.887-1.9,3.819-3.756,5.66-5.705a5.038,5.038,0,0,0,1.393-3.436v-.042C4307.606,279.393,4307.6,279.316,4307.6,279.239Z" transform="translate(0 0)" fill="#fff"/>
    <path id="Path_329" data-name="Path 329" d="M4292.273,545.872h3.812a.526.526,0,0,0,0-1.052h-3.812a.526.526,0,0,0,0,1.052Z" transform="translate(0 -258.397)" fill="#fff"/>
    <path id="Path_330" data-name="Path 330" d="M4292.273,520.795h2.147a.526.526,0,1,0,0-1.052h-2.147a.526.526,0,1,0,0,1.052Z" transform="translate(0 -234.821)" fill="#fff"/>
  </g>
</svg>
