<svg xmlns="http://www.w3.org/2000/svg" width="25" height="25" viewBox="0 0 25 25">
  <g id="lap_to_khai_hskk" data-name="lap to khai_hskk" transform="translate(1839 2354)">
    <rect id="Rectangle_998" data-name="Rectangle 998" width="25" height="25" transform="translate(-1839 -2354)" fill="#299f39"/>
    <g id="ic_lap_to_khai" data-name="ic_lap to khai" transform="translate(-4302.027 -3984.172)">
      <path id="Path_2140" data-name="Path 2140" d="M2487.405,1640.088l-2.1-2.1a.371.371,0,0,0-.523,0l-1.448,1.445.533.516,1.624,1.629.477.472,1.438-1.438A.371.371,0,0,0,2487.405,1640.088Z" transform="translate(-6.486 -0.707)" fill="#fff"/>
      <path id="Path_2141" data-name="Path 2141" d="M2476.668,1642.643l-.526-.526-6.007,5.925a.368.368,0,0,0-.108.261v2.1a.368.368,0,0,0,.369.37h2.1a.37.37,0,0,0,.262-.108l6.016-5.915-.522-.527Z" transform="translate(0 -2.608)" fill="#fff"/>
    </g>
  </g>
</svg>
