<svg id="logo_efy_footer" data-name="logo efy_footer" xmlns="http://www.w3.org/2000/svg" width="20" height="20" viewBox="0 0 20 20">
  <g id="Group_23" data-name="Group 23" transform="translate(3.161 12.755)">
    <g id="Group_14" data-name="Group 14" transform="translate(0 0)" opacity="0" style="mix-blend-mode: multiply;isolation: isolate">
      <g id="Group_7" data-name="Group 7" transform="translate(0 0.19)">
        <path id="Path_7" data-name="Path 7" d="M326.074,574.989l.211.319-.748.775a1.694,1.694,0,0,1-.285.239l-.027.018a2.407,2.407,0,0,1,.359-.185l1-.391.212.32-1.729.606-.226-.341Z" transform="translate(-324.82 -574.96)" fill="#1a1818"/>
        <path id="Path_8" data-name="Path 8" d="M324.453,575.927l-.241-.364.009-.01,1.246-1.376.232.35-.758.785q-.053.054-.108.1c.05-.025.1-.045.136-.061l1.015-.4.233.352Zm-.2-.361.21.318,1.694-.593-.191-.289-.988.386a2.383,2.383,0,0,0-.357.184l-.019-.03.027-.018a1.687,1.687,0,0,0,.282-.237l.738-.765-.19-.288Z" transform="translate(-324.212 -574.176)" fill="#1a1818"/>
      </g>
      <g id="Group_8" data-name="Group 8" transform="translate(1.327 1.84)">
        <path id="Path_9" data-name="Path 9" d="M361.841,622.1l1.182-1.326.3.265-1.181,1.326Z" transform="translate(-361.816 -620.745)" fill="#1a1818"/>
        <path id="Path_10" data-name="Path 10" d="M361.459,621.706l-.324-.289,1.205-1.353.324.289Zm-.274-.292.271.241,1.158-1.3-.271-.241Z" transform="translate(-361.135 -620.064)" fill="#1a1818"/>
      </g>
      <g id="Group_9" data-name="Group 9" transform="translate(2.758 2.664)">
        <path id="Path_11" data-name="Path 11" d="M401.628,645.259l.807-1.582.908.463-.117.229-.56-.286-.212.415.4.206-.117.229-.4-.206-.241.473.56.286-.121.237Z" transform="translate(-401.604 -643.653)" fill="#1a1818"/>
        <path id="Path_12" data-name="Path 12" d="M401.9,645.1l-.94-.48.823-1.614.94.48-.133.261-.56-.286-.2.383.4.206-.133.261-.4-.206-.225.441.56.285Zm-.892-.5.876.447.1-.206-.56-.285.258-.5.4.206.1-.2-.4-.206.228-.447.56.286.1-.2-.876-.447Z" transform="translate(-400.955 -643.004)" fill="#1a1818"/>
      </g>
      <g id="Group_10" data-name="Group 10" transform="translate(5.008 3.334)">
        <path id="Path_13" data-name="Path 13" d="M464.129,662.489l.048-.252,1.183.223-.048.252-.4-.076-.282,1.493-.385-.073.282-1.493Z" transform="translate(-464.108 -662.216)" fill="#1a1818"/>
        <path id="Path_14" data-name="Path 14" d="M464.081,663.588l-.42-.079.282-1.493-.4-.075.054-.288,1.218.23-.054.288-.4-.076Zm-.378-.108.349.066.282-1.493.4.076.041-.217-1.148-.217-.041.217.4.075Z" transform="translate(-463.545 -661.653)" fill="#1a1818"/>
      </g>
      <g id="Group_11" data-name="Group 11" transform="translate(8.24 3.023)">
        <path id="Path_15" data-name="Path 15" d="M554.691,655.708l-.571-1.682.332-.113.811.845q.048.05.132.155a1.213,1.213,0,0,1-.118-.213l-.325-.957.347-.118.571,1.682-.347.118-.768-.776,0,0-.011-.012a1.524,1.524,0,0,1-.126-.141,1.568,1.568,0,0,1,.12.219l.3.879Z" transform="translate(-554.097 -653.602)" fill="#1a1818"/>
        <path id="Path_16" data-name="Path 16" d="M554.069,655.119l-.006-.017-.577-1.7.36-.122.819.854h0a.344.344,0,0,1-.017-.041l-.331-.974.381-.129.006.017.577,1.7-.375.127-.79-.8-.006-.006a.5.5,0,0,1,.03.065l.3.9Zm-.537-1.694.559,1.648.31-.105-.293-.862a1.579,1.579,0,0,0-.119-.215l.03-.02a1.5,1.5,0,0,0,.124.14l.012.012,0,0,.758.767.32-.109-.559-1.648-.313.106.319.94a1.208,1.208,0,0,0,.117.209l-.029.021c-.055-.069-.1-.121-.131-.154l-.8-.837Z" transform="translate(-553.486 -652.991)" fill="#1a1818"/>
      </g>
      <g id="Group_12" data-name="Group 12" transform="translate(10.4 2.125)">
        <path id="Path_17" data-name="Path 17" d="M614.926,630.616l-.743-1.667.406-.309L616,629.8l-.32.243-.3-.258-.314.239.166.357Zm.027-.82.237-.181-.555-.51-.02.015Z" transform="translate(-614.161 -628.617)" fill="#1a1818"/>
        <path id="Path_18" data-name="Path 18" d="M614.323,630.029l-.758-1.7.429-.326.011.009,1.424,1.177-.349.266-.3-.258-.291.222.166.357Zm-.713-1.689.728,1.633.276-.21-.166-.357.337-.257.3.258.29-.221-1.378-1.139Zm.741.869L614,628.5l.043-.033.582.534Zm-.3-.685.315.63.2-.154Z" transform="translate(-613.565 -628.002)" fill="#1a1818"/>
      </g>
      <g id="Group_13" data-name="Group 13" transform="translate(11.642)">
        <path id="Path_19" data-name="Path 19" d="M650.317,571.892l-1.492-.963.283-.438.965.32a1.061,1.061,0,0,1,.241.118,1.114,1.114,0,0,1-.2-.174l-.7-.74.286-.444,1.493.963-.2.308-.942-.608a2.488,2.488,0,0,1-.244-.193l.07.072q.055.056.108.116l.818.908-.106.164-1.157-.384q-.084-.033-.244-.084a2.462,2.462,0,0,1,.274.146l.942.608Z" transform="translate(-648.8 -569.546)" fill="#1a1818"/>
        <path id="Path_20" data-name="Path 20" d="M649.657,571.251l-1.523-.983.3-.465.978.324c.025.008.05.018.075.029l-.055-.055-.706-.75.3-.471,1.523.983-.218.338-.958-.618-.036-.025.82.911-.121.187-1.171-.388-.006,0,.052.032.958.618Zm-1.473-.994,1.462.944.178-.275-.927-.6a2.439,2.439,0,0,0-.272-.145l.013-.033c.106.034.189.062.245.085l1.143.379.091-.14-.808-.9c-.035-.039-.072-.078-.108-.115l-.068-.07h0l.021-.029,0,0a2.465,2.465,0,0,0,.241.19l.927.6.179-.278-1.462-.944-.269.417.687.73a1.1,1.1,0,0,0,.2.171l-.02.03a1.041,1.041,0,0,0-.237-.116l-.951-.315Z" transform="translate(-648.134 -568.88)" fill="#1a1818"/>
      </g>
    </g>
    <g id="Group_22" data-name="Group 22" transform="translate(0 0)">
      <g id="Group_15" data-name="Group 15" transform="translate(0 0.19)">
        <path id="Path_21" data-name="Path 21" d="M326.074,574.989l.211.319-.748.775a1.694,1.694,0,0,1-.285.239l-.027.018a2.407,2.407,0,0,1,.359-.185l1-.391.212.32-1.729.606-.226-.341Z" transform="translate(-324.82 -574.96)" fill="#003f8f"/>
        <path id="Path_22" data-name="Path 22" d="M324.453,575.927l-.241-.364.009-.01,1.246-1.376.232.35-.758.785q-.053.054-.108.1c.05-.025.1-.045.136-.061l1.015-.4.233.352Zm-.2-.361.21.318,1.694-.593-.191-.289-.988.386a2.383,2.383,0,0,0-.357.184l-.019-.03.027-.018a1.687,1.687,0,0,0,.282-.237l.738-.765-.19-.288Z" transform="translate(-324.212 -574.176)" fill="#fff"/>
      </g>
      <g id="Group_16" data-name="Group 16" transform="translate(1.327 1.84)">
        <path id="Path_23" data-name="Path 23" d="M361.841,622.1l1.182-1.326.3.265-1.181,1.326Z" transform="translate(-361.816 -620.745)" fill="#003f8f"/>
        <path id="Path_24" data-name="Path 24" d="M361.459,621.706l-.324-.289,1.205-1.353.324.289Zm-.274-.292.271.241,1.158-1.3-.271-.241Z" transform="translate(-361.135 -620.064)" fill="#fff"/>
      </g>
      <g id="Group_17" data-name="Group 17" transform="translate(2.758 2.664)">
        <path id="Path_25" data-name="Path 25" d="M401.628,645.259l.807-1.582.908.463-.117.229-.56-.286-.212.415.4.206-.117.229-.4-.206-.241.473.56.286-.121.237Z" transform="translate(-401.604 -643.653)" fill="#003f8f"/>
        <path id="Path_26" data-name="Path 26" d="M401.9,645.1l-.94-.48.823-1.614.94.48-.133.261-.56-.286-.2.383.4.206-.133.261-.4-.206-.225.441.56.285Zm-.892-.5.876.447.1-.206-.56-.285.258-.5.4.206.1-.2-.4-.206.228-.447.56.286.1-.2-.876-.447Z" transform="translate(-400.955 -643.004)" fill="#fff"/>
      </g>
      <g id="Group_18" data-name="Group 18" transform="translate(5.008 3.334)">
        <path id="Path_27" data-name="Path 27" d="M464.129,662.489l.048-.252,1.183.223-.048.252-.4-.076-.282,1.493-.385-.073.282-1.493Z" transform="translate(-464.108 -662.216)" fill="#003f8f"/>
        <path id="Path_28" data-name="Path 28" d="M464.081,663.588l-.42-.079.282-1.493-.4-.075.054-.288,1.218.23-.054.288-.4-.076Zm-.378-.108.349.066.282-1.493.4.076.041-.217-1.148-.217-.041.217.4.075Z" transform="translate(-463.545 -661.653)" fill="#fff"/>
      </g>
      <g id="Group_19" data-name="Group 19" transform="translate(8.24 3.023)">
        <path id="Path_29" data-name="Path 29" d="M554.691,655.708l-.571-1.682.332-.113.811.845q.048.05.132.155a1.213,1.213,0,0,1-.118-.213l-.325-.957.347-.118.571,1.682-.347.118-.768-.776,0,0-.011-.012a1.524,1.524,0,0,1-.126-.141,1.568,1.568,0,0,1,.12.219l.3.879Z" transform="translate(-554.097 -653.602)" fill="#003f8f"/>
        <path id="Path_30" data-name="Path 30" d="M554.069,655.119l-.006-.017-.577-1.7.36-.122.819.854h0a.344.344,0,0,1-.017-.041l-.331-.974.381-.129.006.017.577,1.7-.375.127-.79-.8-.006-.006a.5.5,0,0,1,.03.065l.3.9Zm-.537-1.694.559,1.648.31-.105-.293-.862a1.579,1.579,0,0,0-.119-.215l.03-.02a1.5,1.5,0,0,0,.124.14l.012.012,0,0,.758.767.32-.109-.559-1.648-.313.106.319.94a1.208,1.208,0,0,0,.117.209l-.029.021c-.055-.069-.1-.121-.131-.154l-.8-.837Z" transform="translate(-553.486 -652.991)" fill="#fff"/>
      </g>
      <g id="Group_20" data-name="Group 20" transform="translate(10.4 2.125)">
        <path id="Path_31" data-name="Path 31" d="M614.926,630.616l-.743-1.667.406-.309L616,629.8l-.32.243-.3-.258-.314.239.166.357Zm.027-.82.237-.181-.555-.51-.02.015Z" transform="translate(-614.161 -628.617)" fill="#003f8f"/>
        <path id="Path_32" data-name="Path 32" d="M614.323,630.029l-.758-1.7.429-.326.011.009,1.424,1.177-.349.266-.3-.258-.291.222.166.357Zm-.713-1.689.728,1.633.276-.21-.166-.357.337-.257.3.258.29-.221-1.378-1.139Zm.741.869L614,628.5l.043-.033.582.534Zm-.3-.685.315.63.2-.154Z" transform="translate(-613.565 -628.002)" fill="#fff"/>
      </g>
      <g id="Group_21" data-name="Group 21" transform="translate(11.642)">
        <path id="Path_33" data-name="Path 33" d="M650.317,571.892l-1.492-.963.283-.438.965.32a1.061,1.061,0,0,1,.241.118,1.114,1.114,0,0,1-.2-.174l-.7-.74.286-.444,1.493.963-.2.308-.942-.608a2.488,2.488,0,0,1-.244-.193l.07.072q.055.056.108.116l.818.908-.106.164-1.157-.384q-.084-.033-.244-.084a2.462,2.462,0,0,1,.274.146l.942.608Z" transform="translate(-648.8 -569.546)" fill="#003f8f"/>
        <path id="Path_34" data-name="Path 34" d="M649.657,571.251l-1.523-.983.3-.465.978.324c.025.008.05.018.075.029l-.055-.055-.706-.75.3-.471,1.523.983-.218.338-.958-.618-.036-.025.82.911-.121.187-1.171-.388-.006,0,.052.032.958.618Zm-1.473-.994,1.462.944.178-.275-.927-.6a2.439,2.439,0,0,0-.272-.145l.013-.033c.106.034.189.062.245.085l1.143.379.091-.14-.808-.9c-.035-.039-.072-.078-.108-.115l-.068-.07h0l.021-.029,0,0a2.465,2.465,0,0,0,.241.19l.927.6.179-.278-1.462-.944-.269.417.687.73a1.1,1.1,0,0,0,.2.171l-.02.03a1.041,1.041,0,0,0-.237-.116l-.951-.315Z" transform="translate(-648.134 -568.88)" fill="#fff"/>
      </g>
    </g>
  </g>
  <g id="Group_24" data-name="Group 24">
    <path id="Path_35" data-name="Path 35" d="M246.272,213.982a10,10,0,1,0,10,10A10,10,0,0,0,246.272,213.982Zm0,19.084a9.084,9.084,0,1,1,9.084-9.084A9.084,9.084,0,0,1,246.272,233.066Z" transform="translate(-236.272 -213.982)" fill="#003f8f"/>
  </g>
  <g id="Group_33" data-name="Group 33" transform="translate(3.697 8.007)">
    <g id="Group_28" data-name="Group 28" transform="translate(0 0)" opacity="0" style="mix-blend-mode: multiply;isolation: isolate">
      <g id="Group_25" data-name="Group 25" transform="translate(0 0.04)">
        <path id="Path_36" data-name="Path 36" d="M340.411,439.47s-.5-.14-.153-.592h3.29a.572.572,0,0,1,.314.694s-.083.317-.484.211a1.4,1.4,0,0,1-.31-.186,1.1,1.1,0,0,0-.414-.161l-.644,0s-.3-.009-.3.254v.744h.943s.324-.5.666-.209c0,0,.066.031.085.209,0,0,.149.739-.428.657a.981.981,0,0,1-.2-.093h-1.034l-.006.679a.454.454,0,0,0,.519.5l.585,0s.229.008.67-.415c0,0,.5-.158.585.231,0,0,.107.231-.3.758h-3.435s-.488-.259.072-.685Z" transform="translate(-340.099 -438.842)" fill="#1a1818"/>
        <path id="Path_37" data-name="Path 37" d="M342.838,441.825h-3.461l-.008,0a.419.419,0,0,1-.215-.3c-.011-.142.079-.289.268-.436l-.014-2.554a.425.425,0,0,1-.261-.236.441.441,0,0,1,.116-.4l.011-.014h3.314l.006,0a.611.611,0,0,1,.336.735.371.371,0,0,1-.164.21.468.468,0,0,1-.364.028h0a1.423,1.423,0,0,1-.318-.19,1.051,1.051,0,0,0-.393-.154l-.644,0a.334.334,0,0,0-.212.073.194.194,0,0,0-.055.145v.708h.889a.71.71,0,0,1,.409-.294.368.368,0,0,1,.3.092c.021.013.082.063.1.235a.781.781,0,0,1-.105.6.4.4,0,0,1-.363.1l-.007,0a1.09,1.09,0,0,1-.2-.091H340.8l-.005.644a.53.53,0,0,0,.129.37.425.425,0,0,0,.35.1h0l.585,0s.224,0,.645-.405l.006-.006.008,0a.671.671,0,0,1,.472.024.335.335,0,0,1,.158.231c.014.038.084.286-.307.791Zm-3.443-.072H342.8c.373-.487.286-.706.286-.708l0-.007a.268.268,0,0,0-.124-.187.594.594,0,0,0-.407-.019c-.443.422-.681.419-.69.419l-.582,0a.492.492,0,0,1-.406-.116.594.594,0,0,1-.151-.424l.006-.713h1.083l.01.008a.876.876,0,0,0,.189.085.327.327,0,0,0,.3-.079c.159-.168.087-.532.087-.536-.017-.152-.067-.184-.067-.184l-.006,0a.3.3,0,0,0-.242-.078.675.675,0,0,0-.371.279l-.011.016h-1v-.78a.263.263,0,0,1,.077-.2.4.4,0,0,1,.263-.093l.643,0a1.111,1.111,0,0,1,.433.166l0,0a1.382,1.382,0,0,0,.3.18c.358.093.435-.175.438-.186a.532.532,0,0,0-.287-.648h-3.264a.364.364,0,0,0-.094.324.379.379,0,0,0,.239.2l.026.007.014,2.643-.014.011c-.178.135-.264.265-.254.384A.341.341,0,0,0,339.4,441.753Z" transform="translate(-339.132 -437.878)" fill="#1a1818"/>
      </g>
      <g id="Group_26" data-name="Group 26" transform="translate(4.116)">
        <path id="Path_38" data-name="Path 38" d="M454.746,437.742h3.185a.561.561,0,0,1,.315.533.348.348,0,0,1-.491.372.833.833,0,0,1-.235-.144,1,1,0,0,0-.478-.2h-.593s-.28-.02-.3.223v.775h.918s.318-.541.681-.169c0,0,.144.479-.027.694,0,0-.174.29-.545.037l-1,0,.011,1.117s.475.327.059.645h-1.4s-.489-.262.059-.691l-.013-2.6S454.412,438.207,454.746,437.742Z" transform="translate(-454.592 -437.707)" fill="#1a1818"/>
        <path id="Path_39" data-name="Path 39" d="M455.3,440.714h-1.42l-.008,0a.428.428,0,0,1-.218-.3.537.537,0,0,1,.258-.436l-.013-2.557a.4.4,0,0,1-.246-.222.46.46,0,0,1,.108-.419l.011-.015h3.211l.007,0a.6.6,0,0,1,.335.565.463.463,0,0,1-.134.36.432.432,0,0,1-.4.046.855.855,0,0,1-.249-.151.976.976,0,0,0-.458-.192h-.59c-.012,0-.248-.014-.266.19v.737h.863a.642.642,0,0,1,.4-.3.39.39,0,0,1,.33.139l.006.006,0,.008c.006.02.147.5-.032.724a.354.354,0,0,1-.214.148.481.481,0,0,1-.37-.1l-.955,0,.01,1.063a.549.549,0,0,1,.23.372.394.394,0,0,1-.185.32Zm-1.4-.071h1.377a.322.322,0,0,0,.148-.254c0-.18-.212-.325-.214-.327l-.015-.01-.011-1.17,1.048,0,.009.006a.422.422,0,0,0,.324.091.283.283,0,0,0,.17-.117l0,0c.146-.183.04-.59.023-.653a.319.319,0,0,0-.265-.112c-.2.025-.353.278-.354.28l-.01.017h-.974v-.811a.3.3,0,0,1,.34-.258h.59a1.032,1.032,0,0,1,.5.208.812.812,0,0,0,.225.138.365.365,0,0,0,.336-.033.4.4,0,0,0,.108-.3v-.006a.517.517,0,0,0-.288-.494h-3.159a.385.385,0,0,0-.089.339.357.357,0,0,0,.224.187l.026.007v.027l.013,2.617-.014.011c-.173.135-.255.265-.245.385A.352.352,0,0,0,453.9,440.643Z" transform="translate(-453.641 -436.758)" fill="#1a1818"/>
      </g>
      <g id="Group_27" data-name="Group 27" transform="translate(7.91 0.023)">
        <path id="Path_40" data-name="Path 40" d="M560.342,438.427h1.808s.378.175-.157.541l.9,1.135.823-1.116s-.528-.4-.068-.579l1.07.021s.3.057.023.4l-1.5,1.888v1s.594.218.174.565h-1.6s-.571-.2.1-.55l0-1.021s-1.424-1.723-1.488-1.766a1.044,1.044,0,0,1-.174-.205A.227.227,0,0,1,560.342,438.427Z" transform="translate(-560.2 -438.373)" fill="#1a1818"/>
        <path id="Path_41" data-name="Path 41" d="M562.46,441.346h-1.614l-.006,0c-.01,0-.238-.087-.249-.248-.008-.119.1-.236.329-.357l0-.987c-.563-.682-1.414-1.7-1.472-1.749l0,0a1.018,1.018,0,0,1-.181-.215.262.262,0,0,1,.084-.354l.01-.007h1.828l.007,0a.266.266,0,0,1,.15.2c.01.118-.081.247-.27.383l.849,1.069.775-1.051c-.073-.061-.263-.237-.241-.405.012-.091.082-.164.209-.214l.007,0,1.083.022a.222.222,0,0,1,.159.125c.032.087-.007.2-.115.33l-1.488,1.878v.961c.073.031.292.137.321.307a.34.34,0,0,1-.16.309Zm-1.6-.072h1.576c.1-.082.138-.16.125-.234-.027-.16-.3-.26-.3-.261l-.024-.009v-1.036l.008-.01,1.5-1.888c.09-.11.125-.2.1-.26a.148.148,0,0,0-.1-.079l-1.059-.021c-.1.04-.149.092-.157.154-.018.134.168.306.241.36l.028.021-.872,1.183-.955-1.2.032-.022c.185-.126.279-.243.271-.339a.191.191,0,0,0-.1-.137h-1.786a.188.188,0,0,0-.055.254l0,.008a.946.946,0,0,0,.165.191h0c.105.094,1.257,1.486,1.49,1.769l.008.01,0,1.056-.02.01c-.263.135-.313.237-.309.3C560.669,441.183,560.8,441.252,560.859,441.274Z" transform="translate(-559.227 -437.405)" fill="#1a1818"/>
      </g>
    </g>
    <g id="Group_32" data-name="Group 32" transform="translate(0 0)">
      <g id="Group_29" data-name="Group 29" transform="translate(0 0.04)">
        <path id="Path_42" data-name="Path 42" d="M340.411,439.47s-.5-.14-.153-.592h3.29a.572.572,0,0,1,.314.694s-.083.317-.484.211a1.4,1.4,0,0,1-.31-.186,1.1,1.1,0,0,0-.414-.161l-.644,0s-.3-.009-.3.254v.744h.943s.324-.5.666-.209c0,0,.066.031.085.209,0,0,.149.739-.428.657a.981.981,0,0,1-.2-.093h-1.034l-.006.679a.454.454,0,0,0,.519.5l.585,0s.229.008.67-.415c0,0,.5-.158.585.231,0,0,.107.231-.3.758h-3.435s-.488-.259.072-.685Z" transform="translate(-340.099 -438.842)" fill="#e50019"/>
        <path id="Path_43" data-name="Path 43" d="M342.838,441.825h-3.461l-.008,0a.419.419,0,0,1-.215-.3c-.011-.142.079-.289.268-.436l-.014-2.554a.425.425,0,0,1-.261-.236.441.441,0,0,1,.116-.4l.011-.014h3.314l.006,0a.611.611,0,0,1,.336.735.371.371,0,0,1-.164.21.468.468,0,0,1-.364.028h0a1.423,1.423,0,0,1-.318-.19,1.051,1.051,0,0,0-.393-.154l-.644,0a.334.334,0,0,0-.212.073.194.194,0,0,0-.055.145v.708h.889a.71.71,0,0,1,.409-.294.368.368,0,0,1,.3.092c.021.013.082.063.1.235a.781.781,0,0,1-.105.6.4.4,0,0,1-.363.1l-.007,0a1.09,1.09,0,0,1-.2-.091H340.8l-.005.644a.53.53,0,0,0,.129.37.425.425,0,0,0,.35.1h0l.585,0s.224,0,.645-.405l.006-.006.008,0a.671.671,0,0,1,.472.024.335.335,0,0,1,.158.231c.014.038.084.286-.307.791Zm-3.443-.072H342.8c.373-.487.286-.706.286-.708l0-.007a.268.268,0,0,0-.124-.187.594.594,0,0,0-.407-.019c-.443.422-.681.419-.69.419l-.582,0a.492.492,0,0,1-.406-.116.594.594,0,0,1-.151-.424l.006-.713h1.083l.01.008a.876.876,0,0,0,.189.085.327.327,0,0,0,.3-.079c.159-.168.087-.532.087-.536-.017-.152-.067-.184-.067-.184l-.006,0a.3.3,0,0,0-.242-.078.675.675,0,0,0-.371.279l-.011.016h-1v-.78a.263.263,0,0,1,.077-.2.4.4,0,0,1,.263-.093l.643,0a1.111,1.111,0,0,1,.433.166l0,0a1.382,1.382,0,0,0,.3.18c.358.093.435-.175.438-.186a.532.532,0,0,0-.287-.648h-3.264a.364.364,0,0,0-.094.324.379.379,0,0,0,.239.2l.026.007.014,2.643-.014.011c-.178.135-.264.265-.254.384A.341.341,0,0,0,339.4,441.753Z" transform="translate(-339.132 -437.878)" fill="#fff"/>
      </g>
      <g id="Group_30" data-name="Group 30" transform="translate(4.116)">
        <path id="Path_44" data-name="Path 44" d="M454.746,437.742h3.185a.561.561,0,0,1,.315.533.348.348,0,0,1-.491.372.833.833,0,0,1-.235-.144,1,1,0,0,0-.478-.2h-.593s-.28-.02-.3.223v.775h.918s.318-.541.681-.169c0,0,.144.479-.027.694,0,0-.174.29-.545.037l-1,0,.011,1.117s.475.327.059.645h-1.4s-.489-.262.059-.691l-.013-2.6S454.412,438.207,454.746,437.742Z" transform="translate(-454.592 -437.707)" fill="#e50019"/>
        <path id="Path_45" data-name="Path 45" d="M455.3,440.714h-1.42l-.008,0a.428.428,0,0,1-.218-.3.537.537,0,0,1,.258-.436l-.013-2.557a.4.4,0,0,1-.246-.222.46.46,0,0,1,.108-.419l.011-.015h3.211l.007,0a.6.6,0,0,1,.335.565.463.463,0,0,1-.134.36.432.432,0,0,1-.4.046.855.855,0,0,1-.249-.151.976.976,0,0,0-.458-.192h-.59c-.012,0-.248-.014-.266.19v.737h.863a.642.642,0,0,1,.4-.3.39.39,0,0,1,.33.139l.006.006,0,.008c.006.02.147.5-.032.724a.354.354,0,0,1-.214.148.481.481,0,0,1-.37-.1l-.955,0,.01,1.063a.549.549,0,0,1,.23.372.394.394,0,0,1-.185.32Zm-1.4-.071h1.377a.322.322,0,0,0,.148-.254c0-.18-.212-.325-.214-.327l-.015-.01-.011-1.17,1.048,0,.009.006a.422.422,0,0,0,.324.091.283.283,0,0,0,.17-.117l0,0c.146-.183.04-.59.023-.653a.319.319,0,0,0-.265-.112c-.2.025-.353.278-.354.28l-.01.017h-.974v-.811a.3.3,0,0,1,.34-.258h.59a1.032,1.032,0,0,1,.5.208.812.812,0,0,0,.225.138.365.365,0,0,0,.336-.033.4.4,0,0,0,.108-.3v-.006a.517.517,0,0,0-.288-.494h-3.159a.385.385,0,0,0-.089.339.357.357,0,0,0,.224.187l.026.007v.027l.013,2.617-.014.011c-.173.135-.255.265-.245.385A.352.352,0,0,0,453.9,440.643Z" transform="translate(-453.641 -436.758)" fill="#fff"/>
      </g>
      <g id="Group_31" data-name="Group 31" transform="translate(7.91 0.023)">
        <path id="Path_46" data-name="Path 46" d="M560.342,438.427h1.808s.378.175-.157.541l.9,1.135.823-1.116s-.528-.4-.068-.579l1.07.021s.3.057.023.4l-1.5,1.888v1s.594.218.174.565h-1.6s-.571-.2.1-.55l0-1.021s-1.424-1.723-1.488-1.766a1.044,1.044,0,0,1-.174-.205A.227.227,0,0,1,560.342,438.427Z" transform="translate(-560.2 -438.373)" fill="#e50019"/>
        <path id="Path_47" data-name="Path 47" d="M562.46,441.346h-1.614l-.006,0c-.01,0-.238-.087-.249-.248-.008-.119.1-.236.329-.357l0-.987c-.563-.682-1.414-1.7-1.472-1.749l0,0a1.018,1.018,0,0,1-.181-.215.262.262,0,0,1,.084-.354l.01-.007h1.828l.007,0a.266.266,0,0,1,.15.2c.01.118-.081.247-.27.383l.849,1.069.775-1.051c-.073-.061-.263-.237-.241-.405.012-.091.082-.164.209-.214l.007,0,1.083.022a.222.222,0,0,1,.159.125c.032.087-.007.2-.115.33l-1.488,1.878v.961c.073.031.292.137.321.307a.34.34,0,0,1-.16.309Zm-1.6-.072h1.576c.1-.082.138-.16.125-.234-.027-.16-.3-.26-.3-.261l-.024-.009v-1.036l.008-.01,1.5-1.888c.09-.11.125-.2.1-.26a.148.148,0,0,0-.1-.079l-1.059-.021c-.1.04-.149.092-.157.154-.018.134.168.306.241.36l.028.021-.872,1.183-.955-1.2.032-.022c.185-.126.279-.243.271-.339a.191.191,0,0,0-.1-.137h-1.786a.188.188,0,0,0-.055.254l0,.008a.946.946,0,0,0,.165.191h0c.105.094,1.257,1.486,1.49,1.769l.008.01,0,1.056-.02.01c-.263.135-.313.237-.309.3C560.669,441.183,560.8,441.252,560.859,441.274Z" transform="translate(-559.227 -437.405)" fill="#fff"/>
      </g>
    </g>
  </g>
  <g id="Group_42" data-name="Group 42" transform="translate(5.671 2.272)">
    <g id="Group_37" data-name="Group 37" transform="translate(0 0)" opacity="0">
      <g id="Group_34" data-name="Group 34">
        <path id="Path_48" data-name="Path 48" d="M398.381,277.207a7.316,7.316,0,0,0-4.291,1.3.078.078,0,0,0,0,.134l.861.628a.167.167,0,0,0,.185,0,5.859,5.859,0,0,1,6.491,0,.167.167,0,0,0,.184,0l.861-.628a.078.078,0,0,0,0-.134,7.317,7.317,0,0,0-4.291-1.3Zm0,0" transform="translate(-394.052 -277.207)" fill="#1a1818"/>
      </g>
      <g id="Group_35" data-name="Group 35" transform="translate(1.615 1.665)">
        <path id="Path_49" data-name="Path 49" d="M441.7,323.523a4.563,4.563,0,0,0-2.676.809.078.078,0,0,0,0,.134l.861.628a.167.167,0,0,0,.185,0,2.943,2.943,0,0,1,3.261,0,.158.158,0,0,0,.092.028.16.16,0,0,0,.092-.028l.861-.628a.078.078,0,0,0,0-.134,4.562,4.562,0,0,0-2.676-.809Zm0,0" transform="translate(-438.985 -323.523)" fill="#1a1818"/>
      </g>
      <g id="Group_36" data-name="Group 36" transform="translate(3.357 3.429)">
        <path id="Path_50" data-name="Path 50" d="M488.435,372.6a1.592,1.592,0,0,0-.934.282.078.078,0,0,0,0,.135l.841.613a.167.167,0,0,0,.184,0l.841-.613a.078.078,0,0,0,0-.135,1.592,1.592,0,0,0-.934-.282Zm0,0" transform="translate(-487.463 -372.603)" fill="#1a1818"/>
      </g>
    </g>
    <g id="Group_41" data-name="Group 41" transform="translate(0 0)">
      <g id="Group_38" data-name="Group 38">
        <path id="Path_51" data-name="Path 51" d="M398.381,277.207a7.316,7.316,0,0,0-4.291,1.3.078.078,0,0,0,0,.134l.861.628a.167.167,0,0,0,.185,0,5.859,5.859,0,0,1,6.491,0,.167.167,0,0,0,.184,0l.861-.628a.078.078,0,0,0,0-.134,7.317,7.317,0,0,0-4.291-1.3Zm0,0" transform="translate(-394.052 -277.207)" fill="#5cad32"/>
      </g>
      <g id="Group_39" data-name="Group 39" transform="translate(1.615 1.665)">
        <path id="Path_52" data-name="Path 52" d="M441.7,323.523a4.563,4.563,0,0,0-2.676.809.078.078,0,0,0,0,.134l.861.628a.167.167,0,0,0,.185,0,2.943,2.943,0,0,1,3.261,0,.158.158,0,0,0,.092.028.16.16,0,0,0,.092-.028l.861-.628a.078.078,0,0,0,0-.134,4.562,4.562,0,0,0-2.676-.809Zm0,0" transform="translate(-438.985 -323.523)" fill="#5cad32"/>
      </g>
      <g id="Group_40" data-name="Group 40" transform="translate(3.357 3.429)">
        <path id="Path_53" data-name="Path 53" d="M488.435,372.6a1.592,1.592,0,0,0-.934.282.078.078,0,0,0,0,.135l.841.613a.167.167,0,0,0,.184,0l.841-.613a.078.078,0,0,0,0-.135,1.592,1.592,0,0,0-.934-.282Zm0,0" transform="translate(-487.463 -372.603)" fill="#5cad32"/>
      </g>
    </g>
  </g>
</svg>
