<svg xmlns="http://www.w3.org/2000/svg" width="4.23" height="9.306" viewBox="0 0 4.23 9.306"><defs><style>.a{fill:#fff;}</style></defs><g transform="translate(-109.641)"><g transform="translate(109.641)"><path class="a" d="M146.6,2.115H148.3a.429.429,0,0,0,.423-.423V.423a.407.407,0,0,0-.126-.3A.407.407,0,0,0,148.3,0H146.6a.407.407,0,0,0-.3.126.407.407,0,0,0-.126.3V1.692a.429.429,0,0,0,.423.423Z" transform="translate(-145.336 0)"/><path class="a" d="M113.745,150.536a.406.406,0,0,0-.3-.126h-.423V146.6a.429.429,0,0,0-.423-.423h-2.538a.429.429,0,0,0-.423.423v.846a.429.429,0,0,0,.423.423h.423v2.538h-.423a.429.429,0,0,0-.423.423v.846a.429.429,0,0,0,.423.423h3.384a.429.429,0,0,0,.423-.423v-.846A.405.405,0,0,0,113.745,150.536Z" transform="translate(-109.641 -142.797)"/></g></g></svg>