<svg id="paperclip_hskk" xmlns="http://www.w3.org/2000/svg" width="12.408" height="13.69" viewBox="0 0 12.408 13.69">
  <path id="Path_2218" data-name="Path 2218" d="M23.094,13.691a2.826,2.826,0,0,1-2-4.825l6.342-6.342a1.919,1.919,0,0,1,2.714,2.714L25.487,9.9a.475.475,0,0,1-.671-.671L29.48,4.567A.97.97,0,1,0,28.108,3.2L21.767,9.537a1.877,1.877,0,0,0,2.655,2.655L30.912,5.7a2.784,2.784,0,1,0-3.938-3.938L22.161,6.577a.475.475,0,1,1-.671-.671L26.3,1.092a3.734,3.734,0,1,1,5.28,5.28l-6.491,6.491A2.808,2.808,0,0,1,23.094,13.691Z" transform="translate(-20.269)" fill="#2680eb"/>
</svg>
