<svg xmlns="http://www.w3.org/2000/svg" xmlns:xlink="http://www.w3.org/1999/xlink" width="30.916" height="31" viewBox="0 0 30.916 31"><defs><style>.a{fill:#fff;}.b{filter:url(#g);}.c{filter:url(#e);}.d{filter:url(#c);}.e{filter:url(#a);}</style><filter id="a" x="7.247" y="0" width="21.104" height="20.96" filterUnits="userSpaceOnUse"><feOffset dy="3" input="SourceAlpha"/><feGaussianBlur stdDeviation="3" result="b"/><feFlood flood-opacity="0.161"/><feComposite operator="in" in2="b"/><feComposite in="SourceGraphic"/></filter><filter id="c" x="0.834" y="1.422" width="28.01" height="27.553" filterUnits="userSpaceOnUse"><feOffset dy="3" input="SourceAlpha"/><feGaussianBlur stdDeviation="3" result="d"/><feFlood flood-opacity="0.161"/><feComposite operator="in" in2="d"/><feComposite in="SourceGraphic"/></filter><filter id="e" x="0" y="9.525" width="20.827" height="20.975" filterUnits="userSpaceOnUse"><feOffset dy="3" input="SourceAlpha"/><feGaussianBlur stdDeviation="3" result="f"/><feFlood flood-opacity="0.161"/><feComposite operator="in" in2="f"/><feComposite in="SourceGraphic"/></filter><filter id="g" x="1.811" y="11.147" width="29.104" height="19.853" filterUnits="userSpaceOnUse"><feOffset dy="3" input="SourceAlpha"/><feGaussianBlur stdDeviation="3" result="h"/><feFlood flood-opacity="0.161"/><feComposite operator="in" in2="h"/><feComposite in="SourceGraphic"/></filter></defs><g transform="translate(6.008 6)"><g class="e" transform="matrix(1, 0, 0, 1, -6.01, -6)"><path class="a" d="M518.123,2.96l.382-.478a1.515,1.515,0,0,0-.237-2.13l-.024-.02a1.515,1.515,0,0,0-2.13.237l-.38.476Z" transform="translate(-499.49 6)"/></g><g class="d" transform="matrix(1, 0, 0, 1, -6.01, -6)"><path class="a" d="M68.512,106.153a.456.456,0,0,0,.808.235l2.622-3.279a.455.455,0,0,0-.081-.647.463.463,0,0,0-.637.086l-.256.319-.438-.351h0L68.143,100.6l-6.111,7.639,2.39,1.914,5.542-6.926.438.351-1.792,2.24A.452.452,0,0,0,68.512,106.153Z" transform="translate(-52.2 -93.18)"/></g><g class="c" transform="matrix(1, 0, 0, 1, -6.01, -6)"><path class="a" d="M5.819,675.7l-2.252-1.8a2.279,2.279,0,0,0-.055.236L3,676.606a.222.222,0,0,0,.31.247l2.3-1.046S5.7,675.765,5.819,675.7Z" transform="translate(6.01 -658.37)"/></g><g class="b" transform="matrix(1, 0, 0, 1, -6.01, -6)"><path class="a" d="M141.925,789.323a.4.4,0,0,0-.058,0l-3.473.449a.213.213,0,0,1-.206-.325c.052-.081.1-.163.154-.245a.338.338,0,0,0-.346-.5l-4.551.684-.544.082-1.484.223a.31.31,0,0,0-.267.339.337.337,0,0,0,.086.2.3.3,0,0,0,.226.1.35.35,0,0,0,.052,0l5.425-.816a.212.212,0,0,1,.2.334l-.106.146a.389.389,0,0,0,.038.469.289.289,0,0,0,.209.09.165.165,0,0,0,.027,0h0l4.683-.6h0a.288.288,0,0,0,.2-.131.339.339,0,0,0,.047-.264A.316.316,0,0,0,141.925,789.323Z" transform="translate(-120.34 -771.55)"/></g></g></svg>