<svg xmlns="http://www.w3.org/2000/svg" width="14.461" height="14.092" viewBox="0 0 14.461 14.092"><defs><style>.a{fill:#76849c;}.b{fill:none;stroke:#76849c;stroke-linecap:round;}</style></defs><g transform="translate(-537 -160.407)"><g transform="translate(537 160.139)"><g transform="translate(0 10.46)"><g transform="translate(0)"><path class="a" d="M1.3,383.747l-.083.083a.273.273,0,0,0-.062.1L.02,386.76a.283.283,0,0,0,.369.368l2.835-1.134a.283.283,0,0,0,.143-.126l.026-.029Z" transform="translate(0 -383.747)"/></g></g><g transform="translate(9.64 0.269)"><g transform="translate(0 0)"><path class="a" d="M366.255.688a1.515,1.515,0,0,0-2.093,0l-1.436,1.436,2.089,2.089,1.439-1.423a1.478,1.478,0,0,0,0-2.1Z" transform="translate(-362.726 -0.269)"/></g></g><g transform="translate(1.701 2.524)"><path class="a" d="M71.532,85.144l-7.538,7.535,2.081,2.081c.753-.776,2.718-2.752,7.545-7.529Z" transform="translate(-63.994 -85.144)"/></g></g><path class="b" d="M-7943.374-13531h9.044" transform="translate(8485.291 13705)"/></g></svg>