<svg xmlns="http://www.w3.org/2000/svg" width="14.194" height="15.154" viewBox="0 0 14.194 15.154"><defs><style>.a{fill:#656565;stroke:#666;stroke-width:0.3px;}</style></defs><g transform="translate(0.151 1.15)"><path class="a" d="M1.668,7.588a5.5,5.5,0,0,1-.041-.641,5.3,5.3,0,0,1,8.887-3.916l-.469.478a.416.416,0,0,0-.106.407.426.426,0,0,0,.309.277c.082.016,2.774.884,2.6.849a.412.412,0,0,0,.48-.48c-.017-.082-.612-3.072-.578-2.9a.4.4,0,0,0-.684-.2l-.4.391A6.952,6.952,0,0,0,0,6.947v.016c0,.229.01.407.023.543a.407.407,0,0,0,.326.363l.836.167a.407.407,0,0,0,.484-.448Zm0,0" transform="translate(0 -1)"/><path class="a" d="M33.438,215.6l-.839-.171a.407.407,0,0,0-.485.448,5.542,5.542,0,0,1,.042.645,5.29,5.29,0,0,1-8.887,3.908l.469-.469a.416.416,0,0,0,.106-.407.426.426,0,0,0-.309-.277c-.082-.017-2.774-.884-2.6-.849a.4.4,0,0,0-.366.114.405.405,0,0,0-.114.366l.578,2.874a.408.408,0,0,0,.285.309.391.391,0,0,0,.4-.106l.391-.391a6.936,6.936,0,0,0,11.68-5.072V216.5c0-.18-.007-.358-.022-.534a.407.407,0,0,0-.324-.364Zm0,0" transform="translate(-19.891 -209.615)"/></g></svg>