<svg xmlns="http://www.w3.org/2000/svg" width="11.017" height="12.019" viewBox="0 0 11.017 12.019"><defs><style>.a{opacity:0.6;}.b{fill:none;stroke:#111;stroke-linecap:round;stroke-linejoin:round;stroke-miterlimit:10;}</style></defs><g class="a" transform="translate(-1.5 -0.5)"><path class="b" d="M9.5,6.51h0A2.5,2.5,0,0,1,7,4.005V3.5A2.5,2.5,0,0,1,9.5,1h0a2.5,2.5,0,0,1,2.5,2.5v.5A2.5,2.5,0,0,1,9.5,6.51Z" transform="translate(-2.496)"/><path class="b" d="M12.017,18.458a2,2,0,0,0-1.47-1.931A13.9,13.9,0,0,0,7.009,16a13.9,13.9,0,0,0-3.539.527A2,2,0,0,0,2,18.458v1.048H12.017Z" transform="translate(0 -7.487)"/></g></svg>