<svg xmlns="http://www.w3.org/2000/svg" width="11.477" height="15.341" viewBox="0 0 11.477 15.341"><defs><style>.a{opacity:0.6;}</style></defs><g class="a" transform="translate(2831.122 -1317.464)"><path d="M-2819.454,1324.536a3.547,3.547,0,0,0,3.889-3.888,3.557,3.557,0,0,0-3.165-3.167,3.547,3.547,0,0,0-3.89,3.89A3.556,3.556,0,0,0-2819.454,1324.536Z" transform="translate(-6.86)"/><path d="M-2789.571,1375.569l-.54-.54a.284.284,0,0,0-.4,0l-.943.943a.283.283,0,0,1-.4,0l-.943-.943a.284.284,0,0,0-.4,0l-.54.54a.284.284,0,0,0,0,.4l.943.943a.284.284,0,0,1,0,.4l-.943.943a.285.285,0,0,0,0,.4l.54.54a.284.284,0,0,0,.4,0l.943-.943a.284.284,0,0,1,.4,0l.942.942a.284.284,0,0,0,.4,0l.54-.54a.284.284,0,0,0,0-.4l-.943-.943a.284.284,0,0,1,0-.4l.943-.943A.284.284,0,0,0-2789.571,1375.569Z" transform="translate(-30.157 -46.479)"/><path d="M-2821.394,1360.34a8.082,8.082,0,0,0-2.275-2.642h0a.525.525,0,0,0-.516-.1h0a4.331,4.331,0,0,1-1.766.389,4.334,4.334,0,0,1-1.761-.387l-.007,0a.458.458,0,0,0-.468.059l-.049.042h0a6.591,6.591,0,0,0-2.884,5.353.268.268,0,0,0,.27.273h6.61a.269.269,0,0,0,.19-.079.269.269,0,0,0,0-.381l-.964-.964a.27.27,0,0,1,0-.381l1.667-1.667a.269.269,0,0,1,.381,0l.964.964a.269.269,0,0,0,.38,0l.174-.174A.268.268,0,0,0-2821.394,1360.34Z" transform="translate(0 -32.421)"/></g></svg>