<svg id="teamviewer_footer" xmlns="http://www.w3.org/2000/svg" width="13" height="13" viewBox="0 0 13 13">
  <path id="Path_57" data-name="Path 57" d="M3206.82,242.206h-11.4a.8.8,0,0,0-.8.8V254.4a.8.8,0,0,0,.8.8h11.4a.8.8,0,0,0,.8-.8V243.009A.8.8,0,0,0,3206.82,242.206Zm-5.7,11.872a5.372,5.372,0,1,1,5.372-5.372A5.371,5.371,0,0,1,3201.123,254.078Z" transform="translate(-3194.623 -242.206)" fill="#2680eb"/>
  <path id="Path_58" data-name="Path 58" d="M3268.344,429.031l-3.581-1.813.5,1.149h-3.589l.487-1.149-3.568,1.813,3.568,1.792-.476-1.161h3.593l-.514,1.161Z" transform="translate(-3256.968 -422.52)" fill="#2680eb"/>
</svg>
