<svg xmlns="http://www.w3.org/2000/svg" width="34" height="34" viewBox="0 0 34 34">
  <g id="trinh_ky_hskk" data-name="trinh ky_hskk" transform="translate(5044 498)">
    <rect id="Rectangle_1225" data-name="Rectangle 1225" width="34" height="34" transform="translate(-5044 -498)" fill="#299f39"/>
    <g id="Group_1083" data-name="Group 1083" transform="translate(-2245.093 -2067.655)">
      <path id="Path_3659" data-name="Path 3659" d="M-2785.857,1584.364a3.344,3.344,0,0,0,2.063,2.555,2.243,2.243,0,0,0,1.508,0,3.381,3.381,0,0,0,2.063-2.547c.159-.016.365-.23.588-1.024.309-1.079-.016-1.238-.293-1.214a2.324,2.324,0,0,0,.118-.445c.469-2.793-.912-2.9-.912-2.9a2.142,2.142,0,0,0-.834-.769,2.8,2.8,0,0,0-1.706-.357,2.389,2.389,0,0,0-.682.127h0a3.015,3.015,0,0,0-.746.38,3.933,3.933,0,0,0-.77.635,3.139,3.139,0,0,0-.833,1.452,3.066,3.066,0,0,0,.007,1.42h0a2.332,2.332,0,0,0,.119.445c-.278-.024-.6.134-.293,1.214C-2786.222,1584.126-2786.016,1584.348-2785.857,1584.364Z" transform="translate(-0.179)" fill="#fff"/>
      <path id="Path_3660" data-name="Path 3660" d="M-2777.145,1589.449a2.313,2.313,0,0,0-1.1-.758,14.791,14.791,0,0,1-2.618-1.27l-1.262,4-.174.54-.563-1.6c1.3-1.818-.1-1.9-.342-1.9h-.016c-.246,0-1.643.087-.341,1.9l-.564,1.6-.175-.54-1.261-4a15.191,15.191,0,0,1-2.618,1.27c-1.809.659-1.7,2.142-1.729,4.927h8.69Z" transform="translate(0 -0.526)" fill="#fff"/>
      <g id="Group_783" data-name="Group 783" transform="translate(-2781.209 1587.049)">
        <path id="Path_2140" data-name="Path 2140" d="M-2770.857,1589.513l-1.835-1.835a.324.324,0,0,0-.457,0l-1.265,1.263.465.45,1.419,1.424.417.413,1.256-1.257A.323.323,0,0,0-2770.857,1589.513Z" transform="translate(2780.375 -1587.584)" fill="#fff"/>
        <path id="Path_2141" data-name="Path 2141" d="M-2774.912,1590.2l-.459-.459-5.25,5.177a.323.323,0,0,0-.094.228v1.835a.322.322,0,0,0,.32.323h1.837a.325.325,0,0,0,.229-.095l5.258-5.169-.457-.46Z" transform="translate(2780.714 -1587.7)" fill="#fff"/>
      </g>
    </g>
  </g>
</svg>
