<svg id="ultra_footer" xmlns="http://www.w3.org/2000/svg" width="13" height="12.077" viewBox="0 0 13 12.077">
  <path id="Path_55" data-name="Path 55" d="M2747.29,75.493h-9.22a1.892,1.892,0,0,0-1.89,1.89v6.2a1.892,1.892,0,0,0,1.89,1.89h2.459v1.007h-1.475a.547.547,0,0,0,0,1.094h7.25a.547.547,0,0,0,0-1.094H2744.8V85.469h2.492a1.892,1.892,0,0,0,1.89-1.89v-6.2A1.892,1.892,0,0,0,2747.29,75.493Zm.687,8.086a.687.687,0,0,1-.687.686h-9.22a.687.687,0,0,1-.687-.686v-6.2a.687.687,0,0,1,.687-.686h9.22a.687.687,0,0,1,.687.686Z" transform="translate(-2736.18 -75.493)" fill="#2680eb"/>
  <path id="Path_56" data-name="Path 56" d="M2751.929,98.014l9.483-6.347h-9.483Z" transform="translate(-2750.205 -89.897)" fill="#2680eb"/>
</svg>
