<svg xmlns="http://www.w3.org/2000/svg" width="30" height="37.866" viewBox="0 0 30 37.866"><defs><style>.a{fill:#39b54a;}</style></defs><g transform="translate(-0.5)"><path class="a" d="M20.905.293A.916.916,0,0,0,20.247,0H5.476A5,5,0,0,0,.5,4.966V32.9a5,5,0,0,0,4.976,4.967H25.524A5,5,0,0,0,30.5,32.9V10.719a.984.984,0,0,0-.265-.64Zm.265,2.936,6.247,6.558H23.357A2.178,2.178,0,0,1,21.171,7.61Zm4.354,32.808H5.476A3.168,3.168,0,0,1,2.329,32.9V4.966A3.168,3.168,0,0,1,5.476,1.829H19.341V7.61a4,4,0,0,0,4.015,4.006h5.314V32.9A3.162,3.162,0,0,1,25.524,36.037Zm0,0"/><path class="a" d="M105.141,401.934H90.087a.915.915,0,1,0,0,1.829h15.064a.915.915,0,1,0-.009-1.829Zm0,0" transform="translate(-82.114 -372.208)"/><path class="a" d="M119.98,177.587l3.768-4.052v9.988a.915.915,0,0,0,1.829,0v-9.988l3.768,4.052a.913.913,0,0,0,1.336-1.244l-5.36-5.753a.908.908,0,0,0-1.335,0l-5.36,5.753a.911.911,0,0,0,.046,1.29A.933.933,0,0,0,119.98,177.587Zm0,0" transform="translate(-109.163 -157.702)"/></g></svg>