<svg xmlns="http://www.w3.org/2000/svg" width="46" height="46.002" viewBox="0 0 46 46.002"><defs><style>.a{fill:#ecf0f1;}.b{fill:#556080;}</style></defs><g transform="translate(0 -1)"><g transform="translate(0 1)"><path class="a" d="M17.4,38.122l-6.863,3.744a6.167,6.167,0,0,0-1.1.784,22.986,22.986,0,0,0,29.534.076,6.088,6.088,0,0,0-1.21-.811l-7.349-3.674a2.8,2.8,0,0,1-1.549-2.507V32.851a11.1,11.1,0,0,0,.7-.894,16.91,16.91,0,0,0,2.284-4.6,2.308,2.308,0,0,0,1.637-2.2V22.079a2.3,2.3,0,0,0-.769-1.706V15.925S33.624,9,24.248,9s-8.463,6.924-8.463,6.924v4.449a2.3,2.3,0,0,0-.769,1.706v3.078a2.307,2.307,0,0,0,1.064,1.936,15.273,15.273,0,0,0,2.783,5.757v2.812A2.8,2.8,0,0,1,17.4,38.122Z" transform="translate(-1.246 -2.057)"/><path class="b" d="M23.394,1A22.986,22.986,0,0,0,8.2,41.586a6.111,6.111,0,0,1,1.091-.776l6.863-3.744a2.8,2.8,0,0,0,1.461-2.461V31.793a15.259,15.259,0,0,1-2.783-5.757A2.308,2.308,0,0,1,13.768,24.1V21.022a2.3,2.3,0,0,1,.769-1.706V14.867S13.623,7.944,23,7.944s8.463,6.924,8.463,6.924v4.449a2.3,2.3,0,0,1,.769,1.706V24.1a2.308,2.308,0,0,1-1.637,2.2,16.91,16.91,0,0,1-2.284,4.6,11.1,11.1,0,0,1-.7.894v2.883a2.8,2.8,0,0,0,1.549,2.507l7.349,3.674a6.119,6.119,0,0,1,1.206.809A23,23,0,0,0,23.394,1Z" transform="translate(0 -1)"/></g></g></svg>