<svg xmlns="http://www.w3.org/2000/svg" width="16.637" height="18.02" viewBox="0 0 16.637 18.02">
  <g id="nop_to_khai_hskk" data-name="nop to khai_hskk" transform="translate(-3762.853 -1482.903)">
    <path id="Path_230" data-name="Path 230" d="M3765.05,1498.138h-.832a.2.2,0,0,1-.2-.2v-13.662a.2.2,0,0,1,.2-.2h10.357a.2.2,0,0,1,.2.2v5.127a.353.353,0,0,0,.353.353h.482a.341.341,0,0,0,.342-.34h0v-5.14a1.372,1.372,0,0,0-1.373-1.372h-10.355a1.371,1.371,0,0,0-1.371,1.372v13.662a1.371,1.371,0,0,0,1.371,1.371h.855a.39.39,0,0,0,.389-.388v-.375A.412.412,0,0,0,3765.05,1498.138Z" fill="#39b54a"/>
    <path id="Path_231" data-name="Path 231" d="M3772.741,1485.936h-6.691a.588.588,0,1,0,0,1.176h6.691a.588.588,0,1,0,0-1.176Z" fill="#39b54a"/>
    <path id="Path_232" data-name="Path 232" d="M3772.741,1488.585h-6.691a.588.588,0,0,0-.047,1.175h6.738a.588.588,0,0,0,0-1.175Z" fill="#39b54a"/>
    <path id="Path_233" data-name="Path 233" d="M3772.741,1491.234h-6.691a.588.588,0,1,0,0,1.176h6.691a.588.588,0,1,0,0-1.176Z" fill="#39b54a"/>
    <path id="Path_2244" data-name="Path 2244" d="M3777.626,1492.41a.665.665,0,0,1,.5,1.107l-5.318,5.983a.664.664,0,0,1-.912.077l-3.324-2.659a.665.665,0,1,1,.831-1.038l2.831,2.264,4.9-5.511a.66.66,0,0,1,.5-.223m0-1.2a1.861,1.861,0,0,0-1.394.627l-4.141,4.658-1.942-1.552a1.865,1.865,0,1,0-2.329,2.913l3.323,2.658a1.864,1.864,0,0,0,2.559-.217l5.318-5.983a1.865,1.865,0,0,0-1.394-3.1Z" fill="#39b54a"/>
  </g>
</svg>
