<svg xmlns="http://www.w3.org/2000/svg" xmlns:xlink="http://www.w3.org/1999/xlink" width="641" height="276" viewBox="0 0 641 276"><defs><style>.a{fill:#fff;}.b{font-size:14px;font-family:Arial-BoldMT, Arial;font-weight:700;}.b,.f{opacity:0.7;}.c,.f{font-size:12px;}.c,.f,.k{font-family:ArialMT, Arial;}.c,.k{opacity:0.5;}.d,.e{fill:#e4e4e4;}.e{opacity:0.4;}.g{fill:#eb8d2f;}.h{fill:#2680eb;}.i,.j{fill:none;stroke-linecap:round;stroke-width:1.5px;}.i{stroke:#2680eb;}.j{stroke:#eb8d2f;}.k{font-size:9px;}.l{filter:url(#a);}</style><filter id="a" x="0" y="0" width="641" height="276" filterUnits="userSpaceOnUse"><feOffset dy="3" input="SourceAlpha"/><feGaussianBlur stdDeviation="3" result="b"/><feFlood flood-opacity="0.051"/><feComposite operator="in" in2="b"/><feComposite in="SourceGraphic"/></filter></defs><g transform="translate(-720 -75)"><g class="l" transform="matrix(1, 0, 0, 1, 720, 75)"><rect class="a" width="623" height="258" rx="10" transform="translate(9 6)"/></g><text class="b" transform="translate(835 110)"><tspan x="-87.432" y="0">Biến động người tham gia</tspan></text><text class="c" transform="translate(839 312)"><tspan x="-6.674" y="0">01</tspan></text><text class="c" transform="translate(878 312)"><tspan x="-6.674" y="0">02</tspan></text><text class="c" transform="translate(917 312)"><tspan x="-6.674" y="0">03</tspan></text><text class="c" transform="translate(956 312)"><tspan x="-6.674" y="0">04</tspan></text><text class="c" transform="translate(995 312)"><tspan x="-6.674" y="0">05</tspan></text><text class="c" transform="translate(1034 312)"><tspan x="-6.674" y="0">06</tspan></text><text class="c" transform="translate(1073 312)"><tspan x="-6.674" y="0">07</tspan></text><text class="c" transform="translate(1112 312)"><tspan x="-6.674" y="0">08</tspan></text><text class="c" transform="translate(1190 312)"><tspan x="-6.674" y="0">10</tspan></text><text class="c" transform="translate(1229 312)"><tspan x="-6.229" y="0">11</tspan></text><text class="c" transform="translate(1268 312)"><tspan x="-6.674" y="0">12</tspan></text><text class="c" transform="translate(1310 312)"><tspan x="-21.009" y="0">(Tháng)</tspan></text><text class="c" transform="translate(789 141)"><tspan x="-41.9" y="0">(Người)</tspan></text><text class="c" transform="translate(788 167)"><tspan x="-20.021" y="0">500</tspan></text><text class="c" transform="translate(788 193)"><tspan x="-20.021" y="0">400</tspan></text><text class="c" transform="translate(788 219)"><tspan x="-20.021" y="0">300</tspan></text><text class="c" transform="translate(788 245)"><tspan x="-20.021" y="0">200</tspan></text><text class="c" transform="translate(788 271)"><tspan x="-20.021" y="0">100</tspan></text><text class="c" transform="translate(788 297)"><tspan x="-6.674" y="0">0</tspan></text><rect class="d" width="532" height="1" transform="translate(799 293)"/><rect class="d" width="1" height="161" transform="translate(799 133)"/><rect class="e" width="1" height="161" transform="translate(838 133)"/><rect class="e" width="1" height="161" transform="translate(877 133)"/><rect class="e" width="1" height="161" transform="translate(916 133)"/><rect class="e" width="1" height="161" transform="translate(955 133)"/><rect class="e" width="1" height="161" transform="translate(994 133)"/><rect class="e" width="1" height="161" transform="translate(1033 133)"/><path class="e" d="M0,0H1V161H0Z" transform="translate(1072 133)"/><rect class="e" width="1" height="161" transform="translate(1111 133)"/><rect class="e" width="1" height="161" transform="translate(1149 133)"/><rect class="e" width="1" height="161" transform="translate(1189 133)"/><rect class="e" width="1" height="161" transform="translate(1228 133)"/><rect class="e" width="1" height="161" transform="translate(1267 133)"/><text class="f" transform="translate(1066 109)"><tspan x="-58.04" y="0">NLĐ thuộc văn phòng</tspan></text><text class="f" transform="translate(1219 109)"><tspan x="-62.654" y="0">NLĐ thuộc phân xưởng</tspan></text><circle class="g" cx="3.5" cy="3.5" r="3.5" transform="translate(1142 101)"/><circle class="h" cx="3.5" cy="3.5" r="3.5" transform="translate(996 101)"/><path class="i" d="M10158,2831.66l38.7-12.492,38.611,10.22,39.179,5.678,39.746-7.949h193.623l40.314-2.271,38.043-5.678" transform="translate(-9319 -2553)"/><path class="j" d="M10158,2766.5l38.667,5.5,38-5.5H10274l78-5.833,39.333-9.333h118l37.334,3.333,39.333-3.333" transform="translate(-9318 -2553)"/><g transform="translate(297)"><text class="b" transform="translate(1019 110)"><tspan x="-15.572" y="0">2020</tspan></text></g><text class="c" transform="translate(1151 312)"><tspan x="-6.674" y="0">09</tspan></text><text class="k" transform="translate(848 209)"><tspan x="-15.016" y="0">304</tspan></text><text class="k" transform="translate(844 272)"><tspan x="-10.011" y="0">56</tspan></text><text class="k" transform="translate(883 262)"><tspan x="-10.011" y="0">96</tspan></text><text class="k" transform="translate(922 272)"><tspan x="-10.011" y="0">50</tspan></text><text class="k" transform="translate(960 277)"><tspan x="-10.011" y="0">42</tspan></text><text class="k" transform="translate(1000 270)"><tspan x="-10.011" y="0">51</tspan></text><text class="k" transform="translate(1039 270)"><tspan x="-10.011" y="0">51</tspan></text><text class="k" transform="translate(1078 270)"><tspan x="-10.011" y="0">51</tspan></text><text class="k" transform="translate(1115 270)"><tspan x="-10.011" y="0">51</tspan></text><text class="k" transform="translate(1154 270)"><tspan x="-10.011" y="0">51</tspan></text><text class="k" transform="translate(1194 270)"><tspan x="-10.011" y="0">51</tspan></text><text class="k" transform="translate(1234 267)"><tspan x="-10.011" y="0">56</tspan></text><text class="k" transform="translate(1273 262)"><tspan x="-10.011" y="0">68</tspan></text><text class="k" transform="translate(886 214)"><tspan x="-15.016" y="0">280</tspan></text><text class="k" transform="translate(924 209)"><tspan x="-15.016" y="0">301</tspan></text><text class="k" transform="translate(964 209)"><tspan x="-15.016" y="0">302</tspan></text><text class="k" transform="translate(1004 204)"><tspan x="-15.016" y="0">322</tspan></text><text class="k" transform="translate(1041 203)"><tspan x="-15.016" y="0">329</tspan></text><text class="k" transform="translate(1081 194)"><tspan x="-15.016" y="0">360</tspan></text><text class="k" transform="translate(1121 194)"><tspan x="-15.016" y="0">360</tspan></text><text class="k" transform="translate(1157 194)"><tspan x="-15.016" y="0">360</tspan></text><text class="k" transform="translate(1197 194)"><tspan x="-15.016" y="0">360</tspan></text><text class="k" transform="translate(1236 197)"><tspan x="-15.016" y="0">353</tspan></text><text class="k" transform="translate(1276 194)"><tspan x="-15.016" y="0">362</tspan></text></g></svg>