<svg xmlns="http://www.w3.org/2000/svg" xmlns:xlink="http://www.w3.org/1999/xlink" width="641" height="276" viewBox="0 0 641 276"><defs><style>.a{fill:#fff;}.b{font-size:14px;font-family:Arial-BoldMT, Arial;font-weight:700;opacity:0.7;}.c{font-size:12px;}.c,.d{font-family:ArialMT, Arial;opacity:0.5;}.d{font-size:9px;}.e{fill:#e4e4e4;}.f{fill:none;stroke:#e4e4e4;stroke-dasharray:2 2;}.g{fill:url(#c);}.h{filter:url(#a);}</style><filter id="a" x="0" y="0" width="641" height="276" filterUnits="userSpaceOnUse"><feOffset dy="3" input="SourceAlpha"/><feGaussianBlur stdDeviation="3" result="b"/><feFlood flood-opacity="0.051"/><feComposite operator="in" in2="b"/><feComposite in="SourceGraphic"/></filter><linearGradient id="c" x1="0.5" x2="0.5" y2="1" gradientUnits="objectBoundingBox"><stop offset="0" stop-color="#4d9eff"/><stop offset="1" stop-color="#0062d6"/></linearGradient></defs><g transform="translate(-82 -75)"><g class="h" transform="matrix(1, 0, 0, 1, 82, 75)"><rect class="a" width="623" height="258" rx="10" transform="translate(9 6)"/></g><text class="b" transform="translate(110 110)"><tspan x="0" y="0">Biến động quỹ lương BHXH</tspan></text><text class="c" transform="translate(201 312)"><tspan x="-6.674" y="0">01</tspan></text><text class="c" transform="translate(240 312)"><tspan x="-6.674" y="0">02</tspan></text><text class="c" transform="translate(279 312)"><tspan x="-6.674" y="0">03</tspan></text><text class="c" transform="translate(318 312)"><tspan x="-6.674" y="0">04</tspan></text><text class="c" transform="translate(357 312)"><tspan x="-6.674" y="0">05</tspan></text><text class="c" transform="translate(396 312)"><tspan x="-6.674" y="0">06</tspan></text><text class="c" transform="translate(435 312)"><tspan x="-6.674" y="0">07</tspan></text><text class="c" transform="translate(474 312)"><tspan x="-6.674" y="0">08</tspan></text><text class="c" transform="translate(552 312)"><tspan x="-6.674" y="0">10</tspan></text><text class="c" transform="translate(591 312)"><tspan x="-6.229" y="0">11</tspan></text><text class="c" transform="translate(630 312)"><tspan x="-6.674" y="0">12</tspan></text><text class="c" transform="translate(672 312)"><tspan x="-21.009" y="0">(Tháng)</tspan></text><text class="d" transform="translate(151 141)"><tspan x="-48.687" y="0">(Triệu đồng)</tspan></text><text class="d" transform="translate(211 199)"><tspan x="-20.021" y="0">1723</tspan></text><text class="d" transform="translate(250 214)"><tspan x="-20.021" y="0">1467</tspan></text><text class="d" transform="translate(289 204)"><tspan x="-20.021" y="0">1601</tspan></text><text class="d" transform="translate(328 202)"><tspan x="-20.021" y="0">1686</tspan></text><text class="d" transform="translate(367 197)"><tspan x="-20.021" y="0">1742</tspan></text><text class="d" transform="translate(406 200)"><tspan x="-20.021" y="0">1670</tspan></text><text class="d" transform="translate(445 209)"><tspan x="-20.021" y="0">1545</tspan></text><text class="d" transform="translate(484 209)"><tspan x="-20.021" y="0">1545</tspan></text><text class="d" transform="translate(523 209)"><tspan x="-20.021" y="0">1545</tspan></text><text class="d" transform="translate(562 209)"><tspan x="-20.021" y="0">1545</tspan></text><text class="c" transform="translate(150 167)"><tspan x="-26.695" y="0">2500</tspan></text><text class="c" transform="translate(150 193)"><tspan x="-26.695" y="0">2000</tspan></text><text class="c" transform="translate(150 219)"><tspan x="-26.695" y="0">1500</tspan></text><text class="c" transform="translate(150 245)"><tspan x="-26.695" y="0">1000</tspan></text><text class="c" transform="translate(150 271)"><tspan x="-20.021" y="0">500</tspan></text><text class="c" transform="translate(150 297)"><tspan x="-6.674" y="0">0</tspan></text><rect class="e" width="532" height="1" transform="translate(161 293)"/><rect class="e" width="1" height="161" transform="translate(161 133)"/><g transform="translate(-356)"><text class="b" transform="translate(1034 110)"><tspan x="-15.572" y="0">2020</tspan></text></g><text class="c" transform="translate(513 312)"><tspan x="-6.674" y="0">09</tspan></text><path class="f" d="M9480.5,2821H10012" transform="translate(-9319 -2554)"/><path class="f" d="M9480.5,2821H10012" transform="translate(-9319 -2580)"/><path class="f" d="M9480.5,2821H10012" transform="translate(-9319 -2606)"/><path class="f" d="M9480.5,2821H10012" transform="translate(-9319 -2632)"/><path class="f" d="M9480.5,2821H10012" transform="translate(-9319 -2658)"/><path class="g" d="M2,0H12a2,2,0,0,1,2,2V90a0,0,0,0,1,0,0H0a0,0,0,0,1,0,0V2A2,2,0,0,1,2,0Z" transform="translate(194 203)"/><path class="g" d="M2,0H12a2,2,0,0,1,2,2V75a0,0,0,0,1,0,0H0a0,0,0,0,1,0,0V2A2,2,0,0,1,2,0Z" transform="translate(233 218)"/><path class="g" d="M2,0H12a2,2,0,0,1,2,2V85a0,0,0,0,1,0,0H0a0,0,0,0,1,0,0V2A2,2,0,0,1,2,0Z" transform="translate(272 208)"/><path class="g" d="M2,0H12a2,2,0,0,1,2,2V88a0,0,0,0,1,0,0H0a0,0,0,0,1,0,0V2A2,2,0,0,1,2,0Z" transform="translate(311 205)"/><path class="g" d="M2,0H12a2,2,0,0,1,2,2V91a0,0,0,0,1,0,0H0a0,0,0,0,1,0,0V2A2,2,0,0,1,2,0Z" transform="translate(350 202)"/><path class="g" d="M2,0H12a2,2,0,0,1,2,2V88a0,0,0,0,1,0,0H0a0,0,0,0,1,0,0V2A2,2,0,0,1,2,0Z" transform="translate(389 205)"/><path class="g" d="M2,0H12a2,2,0,0,1,2,2V80a0,0,0,0,1,0,0H0a0,0,0,0,1,0,0V2A2,2,0,0,1,2,0Z" transform="translate(428 213)"/><path class="g" d="M2,0H12a2,2,0,0,1,2,2V80a0,0,0,0,1,0,0H0a0,0,0,0,1,0,0V2A2,2,0,0,1,2,0Z" transform="translate(467 213)"/><path class="g" d="M2,0H12a2,2,0,0,1,2,2V80a0,0,0,0,1,0,0H0a0,0,0,0,1,0,0V2A2,2,0,0,1,2,0Z" transform="translate(506 213)"/><path class="g" d="M2,0H12a2,2,0,0,1,2,2V80a0,0,0,0,1,0,0H0a0,0,0,0,1,0,0V2A2,2,0,0,1,2,0Z" transform="translate(545 213)"/><path class="g" d="M2,0H12a2,2,0,0,1,2,2V71a0,0,0,0,1,0,0H0a0,0,0,0,1,0,0V2A2,2,0,0,1,2,0Z" transform="translate(584 222)"/><path class="g" d="M2,0H12a2,2,0,0,1,2,2V85a0,0,0,0,1,0,0H0a0,0,0,0,1,0,0V2A2,2,0,0,1,2,0Z" transform="translate(623 208)"/><text class="d" transform="translate(600 218)"><tspan x="-20.021" y="0">1420</tspan></text><text class="d" transform="translate(639 204)"><tspan x="-20.021" y="0">1615</tspan></text></g></svg>