<svg xmlns="http://www.w3.org/2000/svg" xmlns:xlink="http://www.w3.org/1999/xlink" width="322" height="276" viewBox="0 0 322 276"><defs><style>.a{fill:none;}.b{fill:#fff;}.c{font-size:14px;font-family:Arial-BoldMT, Arial;font-weight:700;opacity:0.7;}.d{fill:url(#e);}.e{mix-blend-mode:multiply;isolation:isolate;}.f{clip-path:url(#h);}.g,.i,.j{fill:#3b8bca;}.h{fill:#ed1c24;}.i{font-size:23px;}.i,.j{font-family:OCRAbyBT-Regular, OCR-A BT;}.j{font-size:13px;}.k{fill:#b7c2c9;}.l{clip-path:url(#i);}.m{fill:url(#j);}.n{fill:#b2811f;}.o{filter:url(#f);}.p{filter:url(#c);}.q{filter:url(#a);}</style><filter id="a" x="32" y="66" width="258" height="168" filterUnits="userSpaceOnUse"><feOffset input="SourceAlpha"/><feGaussianBlur stdDeviation="3" result="b"/><feFlood flood-color="#3b8bca" flood-opacity="0.2"/><feComposite operator="in" in2="b"/><feComposite in="SourceGraphic"/></filter><filter id="c" x="0" y="0" width="322" height="276" filterUnits="userSpaceOnUse"><feOffset dy="3" input="SourceAlpha"/><feGaussianBlur stdDeviation="3" result="d"/><feFlood flood-opacity="0.051"/><feComposite operator="in" in2="d"/><feComposite in="SourceGraphic"/></filter><linearGradient id="e" x1="0.5" x2="0.5" y2="1" gradientUnits="objectBoundingBox"><stop offset="0" stop-color="#fff"/><stop offset="1" stop-color="#d1e9f8"/></linearGradient><filter id="f" x="26" y="60" width="270" height="180" filterUnits="userSpaceOnUse"><feOffset input="SourceAlpha"/><feGaussianBlur stdDeviation="5" result="g"/><feFlood flood-color="#2680eb" flood-opacity="0.251"/><feComposite operator="in" in2="g"/><feComposite in="SourceGraphic"/></filter><clipPath id="h"><path class="a" d="M10.187,0H229.419A10.581,10.581,0,0,1,240,10.581V139.813A10.187,10.187,0,0,1,229.813,150H10.187A10.187,10.187,0,0,1,0,139.813V10.187A10.187,10.187,0,0,1,10.187,0Z" transform="translate(2296.143 1327.956)"/></clipPath><clipPath id="i"><rect class="a" width="24.958" height="24.381" rx="4.81" transform="translate(2316.328 1390.774)"/></clipPath><linearGradient id="j" y1="0.5" x2="1" y2="0.5" gradientUnits="objectBoundingBox"><stop offset="0" stop-color="#ebca83"/><stop offset="0" stop-color="#e5ba5d"/><stop offset="0.228" stop-color="#ffffd0"/><stop offset="0.414" stop-color="#e2b854"/><stop offset="0.586" stop-color="#f4c96c"/><stop offset="0.772" stop-color="#d09f26"/><stop offset="1" stop-color="#c2973b"/></linearGradient></defs><g transform="translate(-720 -348)"><g transform="translate(638)"><g class="q" transform="matrix(1, 0, 0, 1, 82, 348)"><rect class="b" width="240" height="150" rx="10" transform="translate(41 75)"/></g><g class="p" transform="matrix(1, 0, 0, 1, 82, 348)"><rect class="b" width="304" height="258" rx="10" transform="translate(9 6)"/></g><text class="c" transform="translate(243 384)"><tspan x="-96.458" y="0">Danh sách thẻ BHXH hết hạn</tspan></text><g transform="translate(-2173.144 -904.956)"><g class="o" transform="matrix(1, 0, 0, 1, 2255.14, 1252.96)"><path class="d" d="M10.187,0H229.419A10.581,10.581,0,0,1,240,10.581V139.813A10.187,10.187,0,0,1,229.813,150H10.187A10.187,10.187,0,0,1,0,139.813V10.187A10.187,10.187,0,0,1,10.187,0Z" transform="translate(41 75)"/></g><path class="g" d="M2320.451,1347.225a2.2,2.2,0,0,1-1.025.506,3.354,3.354,0,0,1-.545.061l-.294.009h-2.43v-6.662h2.053c.257,0,.454,0,.588.013a3.265,3.265,0,0,1,.563.075,1.818,1.818,0,0,1,.979.562,1.573,1.573,0,0,1,.4,1.1,1.437,1.437,0,0,1-.774,1.34,1.5,1.5,0,0,1,1.1,1.547A1.8,1.8,0,0,1,2320.451,1347.225Zm-1.542-4.495a.906.906,0,0,0-.467-.1h-.654v1.037h.646c.45,0,.676-.177.676-.531A.435.435,0,0,0,2318.909,1342.73Zm.276,2.47a1.145,1.145,0,0,0-.545-.106h-.852v1.213h.843a1,1,0,0,0,.559-.132.568.568,0,0,0,.241-.505A.5.5,0,0,0,2319.185,1345.2Z"/><path class="g" d="M2326.274,1347.8l-.325-.962h-2.312l-.351.962h-1.828l2.671-6.662h1.341l2.65,6.662Zm-.4-8a1.589,1.589,0,0,1-.128.171c-.041.047-.091.1-.149.154l-.15.14a1.454,1.454,0,0,0-.136.137.505.505,0,0,0-.145.3h-.764a.748.748,0,0,1,.118-.4,1.29,1.29,0,0,1,.123-.158c.035-.041.08-.09.136-.145l.141-.136c.049-.053.089-.1.119-.137a.464.464,0,0,0,.119-.285c0-.182-.086-.273-.256-.273a.253.253,0,0,0-.25.132.6.6,0,0,0-.053.29h-.8a.166.166,0,0,1,0-.039v-.04a1.039,1.039,0,0,1,.334-.795,1.172,1.172,0,0,1,.822-.3.991.991,0,0,1,.949.527.857.857,0,0,1,.106.4A.839.839,0,0,1,2325.87,1339.8Zm-1.055,3.414h-.026l-.686,2.277h1.4Z"/><path class="g" d="M2334.509,1346.94a3.618,3.618,0,0,1-4.953.017,3.174,3.174,0,0,1-1.045-2.4,3.894,3.894,0,0,1,.259-1.424,2.993,2.993,0,0,1,.435-.747,3.349,3.349,0,0,1,2.817-1.367,3.428,3.428,0,0,1,2.487.993,3.468,3.468,0,0,1,0,4.931Zm-1.164-3.832a1.672,1.672,0,0,0-1.314-.6,1.692,1.692,0,0,0-1.319.58,1.965,1.965,0,0,0-.5,1.362,2.01,2.01,0,0,0,.5,1.389,1.7,1.7,0,0,0,1.332.593,1.648,1.648,0,0,0,1.3-.6,2.138,2.138,0,0,0,0-2.729Z"/><path class="g" d="M2343.113,1347.8v-2.663h-2.18v2.663h-1.7v-6.662h1.7v2.505h2.18v-2.505h1.7v6.662Z"/><path class="g" d="M2346.017,1347.8v-6.662h1.7v6.662Z"/><path class="g" d="M2351.165,1340.555l-.414-.519-.413.519h-1.459l1.4-1.495h.975l1.35,1.495Zm-2.243,7.246v-6.662h3.7v1.494h-2.071v1.037h2.008v1.494h-2.008v1.143h2.071v1.494Zm4.3-9.391a1.034,1.034,0,0,1-.128.171,1.41,1.41,0,0,1-.149.154l-.149.141c-.056.053-.1.1-.136.136a.55.55,0,0,0-.146.3h-.764a.782.782,0,0,1,.123-.4,1.531,1.531,0,0,1,.119-.158,1.91,1.91,0,0,1,.14-.145l.136-.136c.05-.053.089-.1.118-.136a.463.463,0,0,0,.119-.286c0-.182-.084-.272-.254-.272a.259.259,0,0,0-.251.131.662.662,0,0,0-.053.29h-.8a.141.141,0,0,1-.005-.039v-.04a1.036,1.036,0,0,1,.339-.8,1.163,1.163,0,0,1,.818-.3.99.99,0,0,1,.949.527.844.844,0,0,1-.022.853Z"/><path class="g" d="M2359.136,1347.8l.053-4.988-.018-.017-1.419,5.005h-1.125l-1.424-5.005-.018.017.053,4.988h-1.565v-6.662h2.19l1.322,4.386h.018l1.3-4.386h2.194v6.662Z"/><path class="g" d="M2368.882,1347.8l-1.441-2.36-1.366,2.36h-1.9l2.329-3.546-2.06-3.116h1.929l1.142,1.9,1.108-1.9h1.916l-2.035,3.151,2.3,3.511Z"/><path class="g" d="M2375.8,1347.8l-.325-.962h-2.311l-.352.962h-1.828l2.672-6.662H2375l2.649,6.662Zm.343-7.642a1.92,1.92,0,0,1-1.019.334,2.146,2.146,0,0,1-.352-.035l-.742-.163a2.127,2.127,0,0,0-.348-.035,1.134,1.134,0,0,0-.33.053l-.316.118-.54-.8a3.064,3.064,0,0,1,.474-.22,1.619,1.619,0,0,1,.515-.092,2.24,2.24,0,0,1,.369.035c.053.009.112.021.18.035l.36.084c.067.015.129.026.185.035a2.165,2.165,0,0,0,.365.035,1.711,1.711,0,0,0,.658-.154Zm-1.8,3.054h-.026l-.686,2.277h1.4Z"/><path class="g" d="M2384.989,1347.8v-2.663h-2.18v2.663h-1.7v-6.662h1.7v2.505h2.18v-2.505h1.7v6.662Z"/><path class="g" d="M2393.6,1346.94a3.618,3.618,0,0,1-4.953.017,3.174,3.174,0,0,1-1.045-2.4,3.894,3.894,0,0,1,.259-1.424,3.018,3.018,0,0,1,.434-.747,3.351,3.351,0,0,1,2.818-1.367,3.432,3.432,0,0,1,2.487.993,3.471,3.471,0,0,1,0,4.931Zm-2.065-6.385-.413-.519-.413.519h-1.459l1.4-1.495h.972l1.353,1.495Zm.9,2.553a1.766,1.766,0,0,0-2.633-.018,1.966,1.966,0,0,0-.5,1.362,2.011,2.011,0,0,0,.505,1.389,1.7,1.7,0,0,0,1.332.593,1.649,1.649,0,0,0,1.3-.6,2.138,2.138,0,0,0,0-2.729Zm-2.035,6.851V1348.6h1.433v1.358Z"/><path class="g" d="M2395.548,1347.8v-6.662h1.7v6.662Z"/><path class="g" d="M2404.746,1347.8h-1.753l-2.224-6.662h1.744l1.341,4.671h.023l1.348-4.671h1.753Z"/><path class="g" d="M2407.726,1347.8v-6.662h1.7v6.662Z"/><path class="g" d="M2412.873,1340.555l-.414-.519-.413.519h-1.459l1.4-1.495h.975l1.35,1.495Zm-2.243,7.246v-6.662h3.7v1.494h-2.071v1.037h2.008v1.494h-2.008v1.143h2.071v1.494Zm1.139,2.158V1348.6h1.428v1.358Z"/><path class="g" d="M2417.881,1342.633v5.168h-1.7v-5.168h-1.314v-1.494h4.32v1.494Z"/><path class="g" d="M2426.786,1347.8l-2.536-4.052-.023.009.049,4.043h-1.631v-6.662h1.469l2.574,4.188.018-.018-.075-4.17h1.631v6.662Z"/><path class="g" d="M2433.768,1347.8l-.325-.962h-2.312l-.351.962h-1.828l2.672-6.662h1.34l2.65,6.662Zm-1.459-4.588h-.026l-.686,2.277h1.4Z"/><path class="g" d="M2441.757,1347.8l.053-4.988-.017-.017-1.42,5.005h-1.125l-1.424-5.005-.018.017.053,4.988h-1.564v-6.662h2.189l1.322,4.386h.018l1.3-4.386h2.194v6.662Z"/><path class="g" d="M2448.694,1462.055l-3.951-5.858h-.017v5.858h-.668v-6.663h.9l3.718,5.529h.017v-5.529h.665v6.663Z"/><path class="g" d="M2455.492,1461.281c0,.188,0,.347-.013.479a4.07,4.07,0,0,1-.057.462,2.078,2.078,0,0,1-.378.856,2.309,2.309,0,0,1-1.956.91,2.671,2.671,0,0,1-1.572-.466,2.373,2.373,0,0,1-.946-1.34h.668a1.824,1.824,0,0,0,1.842,1.239,1.726,1.726,0,0,0,1.309-.505,1.842,1.842,0,0,0,.474-1.327v-.435h-.017a1.769,1.769,0,0,1-.8.764,2.375,2.375,0,0,1-1.095.255,2.557,2.557,0,0,1-2.574-2.557,2.541,2.541,0,0,1,.746-1.842,2.465,2.465,0,0,1,1.828-.769,2.122,2.122,0,0,1,1.9,1.007h.017v-.879h.629Zm-1.156-3.1a1.892,1.892,0,0,0-2.777,0,1.987,1.987,0,0,0-.558,1.419,1.962,1.962,0,0,0,.558,1.406,1.9,1.9,0,0,0,2.773,0,1.955,1.955,0,0,0,.567-1.406A2,2,0,0,0,2454.336,1458.179Z"/><path class="g" d="M2461.057,1462.055v-.866h-.018a2.149,2.149,0,0,1-1.916.984,2.592,2.592,0,0,1-1.877-.742,2.47,2.47,0,0,1-.768-1.851,2.438,2.438,0,0,1,.778-1.841,2.6,2.6,0,0,1,1.867-.734,2.114,2.114,0,0,1,1.916.989h.018v-.861h.633v4.922Zm-.528-3.881a1.871,1.871,0,0,0-1.406-.6,1.94,1.94,0,0,0-1.445.58,1.986,1.986,0,0,0-.572,1.455,1.933,1.933,0,0,0,.576,1.432,1.971,1.971,0,0,0,1.441.567,1.88,1.88,0,0,0,1.406-.593,1.958,1.958,0,0,0,.567-1.415A1.989,1.989,0,0,0,2460.529,1458.174Zm-.65-1.692-1.779-.962.285-.541,1.793.985Z"/><path class="g" d="M2464.092,1463.782h-.654l.852-1.89-1.916-4.759h.668l1.565,3.924,1.674-3.924h.663Z"/><path class="g" d="M2475.013,1460.6a2.709,2.709,0,0,1-4.316.831,2.448,2.448,0,0,1-.777-1.837,2.473,2.473,0,0,1,.781-1.841,2.591,2.591,0,0,1,1.864-.752,2.654,2.654,0,0,1,1.472.426,2.484,2.484,0,0,1,.976,1.187h-.694a1.833,1.833,0,0,0-1.737-1.046,1.967,1.967,0,0,0-1.436.58,1.911,1.911,0,0,0-.6,1.428,1.95,1.95,0,0,0,.589,1.442,1.975,1.975,0,0,0,1.445.584,1.8,1.8,0,0,0,1.737-1Z"/><path class="g" d="M2480.335,1462.055v-.866h-.017a2.151,2.151,0,0,1-1.916.984,2.589,2.589,0,0,1-1.877-.742,2.468,2.468,0,0,1-.769-1.851,2.441,2.441,0,0,1,.778-1.841,2.606,2.606,0,0,1,1.868-.734,2.115,2.115,0,0,1,1.916.989h.017v-.861h.633v4.922Zm-.527-3.881a1.874,1.874,0,0,0-1.406-.6,1.942,1.942,0,0,0-1.446.58,1.986,1.986,0,0,0-.572,1.455,1.932,1.932,0,0,0,.576,1.432,1.971,1.971,0,0,0,1.442.567,1.883,1.883,0,0,0,1.406-.593,1.957,1.957,0,0,0,.566-1.415A1.988,1.988,0,0,0,2479.808,1458.174Zm-.559-1.872-.777-.655-.791.655h-.818l1.306-1.125h.593l1.288,1.125Zm.545-.611-.3-.518,1.793-.985.286.541Z"/><path class="g" d="M2486.54,1461.431a2.592,2.592,0,0,1-1.876.742,2.194,2.194,0,0,1-1.921-.984h-.017v2.593h-.628v-6.649h.628v.861h.017a2.227,2.227,0,0,1,1.921-.989,2.591,2.591,0,0,1,1.863.734,2.438,2.438,0,0,1,.782,1.841A2.468,2.468,0,0,1,2486.54,1461.431Zm-.43-3.279a1.945,1.945,0,0,0-1.446-.58,1.871,1.871,0,0,0-1.406.6,1.984,1.984,0,0,0-.567,1.424,1.953,1.953,0,0,0,.567,1.415,1.88,1.88,0,0,0,1.406.593,1.958,1.958,0,0,0,1.437-.567,1.931,1.931,0,0,0,.575-1.432A2,2,0,0,0,2486.11,1458.152Z"/><path class="g" d="M2488.57,1458.258v-1.134h.668v1.134Zm0,3.8v-1.134h.668v1.134Z"/><path class="g" d="M2497.364,1459.624a3.85,3.85,0,0,1-.075.778,2.4,2.4,0,0,1-.259.734,2.256,2.256,0,0,1-3.8,0,2.4,2.4,0,0,1-.264-.734,4.024,4.024,0,0,1-.07-.778v-1.942a2.687,2.687,0,0,1,.25-1.226,2.252,2.252,0,0,1,3.959,0,2.657,2.657,0,0,1,.255,1.226Zm-.668-1.793a3.307,3.307,0,0,0-.066-.654,1.909,1.909,0,0,0-.22-.611,1.534,1.534,0,0,0-2.557,0,1.779,1.779,0,0,0-.22.611,3.323,3.323,0,0,0-.065.654v1.7a4.527,4.527,0,0,0,.047.685,1.756,1.756,0,0,0,.2.646,1.572,1.572,0,0,0,2.627,0,1.756,1.756,0,0,0,.2-.646,4.519,4.519,0,0,0,.048-.685Z"/><path class="g" d="M2499.979,1462.055V1456h-1.143v-.607h1.811v6.663Z"/><path class="g" d="M2503.688,1462.955H2503l2.519-7.563h.711Z"/><path class="g" d="M2510.776,1458.477a4,4,0,0,1-.391.484c-.108.117-.26.266-.453.448l-2.14,2.043h3.331v.6h-4.232v-.6l2.756-2.649a4.746,4.746,0,0,0,.408-.449,1.708,1.708,0,0,0,.435-1.059,1.348,1.348,0,0,0-.43-1,1.392,1.392,0,0,0-1.007-.413,1.29,1.29,0,0,0-1.08.5,1.816,1.816,0,0,0-.362,1.169h-.667v-.018a2.442,2.442,0,0,1,.308-1.265,1.884,1.884,0,0,1,.988-.822,2.241,2.241,0,0,1,.848-.163,2.075,2.075,0,0,1,2.07,2.026A2.055,2.055,0,0,1,2510.776,1458.477Z"/><path class="g" d="M2516.243,1459.624a3.85,3.85,0,0,1-.075.778,2.417,2.417,0,0,1-.259.734,2.256,2.256,0,0,1-3.8,0,2.411,2.411,0,0,1-.263-.734,4,4,0,0,1-.071-.778v-1.942a2.687,2.687,0,0,1,.25-1.226,2.252,2.252,0,0,1,3.959,0,2.648,2.648,0,0,1,.256,1.226Zm-.668-1.793a3.325,3.325,0,0,0-.066-.654,1.909,1.909,0,0,0-.22-.611,1.534,1.534,0,0,0-2.557,0,1.779,1.779,0,0,0-.22.611,3.325,3.325,0,0,0-.066.654v1.7a4.521,4.521,0,0,0,.048.685,1.776,1.776,0,0,0,.2.646,1.573,1.573,0,0,0,2.628,0,1.774,1.774,0,0,0,.2-.646,4.521,4.521,0,0,0,.048-.685Z"/><path class="g" d="M2520.742,1458.477a3.916,3.916,0,0,1-.39.484q-.164.175-.453.448l-2.14,2.043h3.331v.6h-4.232v-.6l2.755-2.649a4.771,4.771,0,0,0,.409-.449,1.708,1.708,0,0,0,.435-1.059,1.348,1.348,0,0,0-.43-1,1.394,1.394,0,0,0-1.007-.413,1.288,1.288,0,0,0-1.08.5,1.81,1.81,0,0,0-.362,1.169h-.668v-.018a2.442,2.442,0,0,1,.309-1.265,1.883,1.883,0,0,1,.988-.822,2.241,2.241,0,0,1,.848-.163,1.919,1.919,0,0,1,1.908,1.27,1.943,1.943,0,0,1,.162.756A2.049,2.049,0,0,1,2520.742,1458.477Z"/><path class="g" d="M2526.21,1459.624a3.85,3.85,0,0,1-.075.778,2.443,2.443,0,0,1-.259.734,2.256,2.256,0,0,1-3.8,0,2.418,2.418,0,0,1-.263-.734,4.022,4.022,0,0,1-.071-.778v-1.942a2.684,2.684,0,0,1,.25-1.226,2.252,2.252,0,0,1,3.959,0,2.648,2.648,0,0,1,.256,1.226Zm-.668-1.793a3.325,3.325,0,0,0-.066-.654,1.909,1.909,0,0,0-.22-.611,1.535,1.535,0,0,0-2.558,0,1.779,1.779,0,0,0-.219.611,3.325,3.325,0,0,0-.066.654v1.7a4.521,4.521,0,0,0,.048.685,1.757,1.757,0,0,0,.2.646,1.573,1.573,0,0,0,2.628,0,1.757,1.757,0,0,0,.2-.646,4.39,4.39,0,0,0,.049-.685Z"/><path class="h" d="M2320.519,1359.766v8.444h-2.461v-8.444h-1.9v-2.441h6.251v2.441Z"/><path class="h" d="M2329.008,1368.21v-4.351h-3.154v4.351h-2.461v-10.885h2.461v4.093h3.154v-4.093h2.461v10.885Z"/><path class="h" d="M2333.212,1368.21v-10.885h5.354v2.441h-2.995v1.7h2.9v2.441h-2.9v1.867h2.995v2.441Zm4.209-13.075a2.373,2.373,0,0,1-.184.28c-.06.077-.132.161-.216.251l-.223.23a2.65,2.65,0,0,0-.191.223.925.925,0,0,0-.216.488h-1.106a1.4,1.4,0,0,1,.177-.646,2.143,2.143,0,0,1,.179-.259q.076-.1.2-.237l.2-.222a2.453,2.453,0,0,0,.178-.223.836.836,0,0,0,.165-.466q0-.445-.369-.446a.366.366,0,0,0-.362.216,1.207,1.207,0,0,0-.076.474h-1.164a.386.386,0,0,0-.006-.065v-.065a1.8,1.8,0,0,1,.489-1.3,1.587,1.587,0,0,1,1.183-.488,1.4,1.4,0,0,1,1.374.861,1.554,1.554,0,0,1-.026,1.393Z"/><path class="h" d="M2350.317,1367.269a3.063,3.063,0,0,1-1.481.826,4.365,4.365,0,0,1-.79.1l-.425.015H2344.1v-10.885h2.97q.56,0,.852.022a4.121,4.121,0,0,1,.814.122,2.585,2.585,0,0,1,1.418.919,2.766,2.766,0,0,1,.572,1.8,2.41,2.41,0,0,1-1.119,2.189,2.446,2.446,0,0,1,1.59,2.528A3.127,3.127,0,0,1,2350.317,1367.269Zm-2.232-7.345a1.19,1.19,0,0,0-.674-.158h-.948v1.7h.935q.98,0,.98-.869A.741.741,0,0,0,2348.085,1359.924Zm.4,4.035a1.513,1.513,0,0,0-.789-.172h-1.234v1.982h1.221a1.318,1.318,0,0,0,.808-.216.969.969,0,0,0,.349-.825A.846.846,0,0,0,2348.486,1363.959Z"/><path class="h" d="M2358.743,1368.21l-.471-1.573h-3.345l-.508,1.573h-2.646l3.866-10.885h1.94l3.835,10.885Zm-.585-13.075a2.556,2.556,0,0,1-.185.28c-.059.077-.132.161-.216.251l-.216.23a2.229,2.229,0,0,0-.2.223.881.881,0,0,0-.21.488h-1.106a1.341,1.341,0,0,1,.172-.646,2.034,2.034,0,0,1,.179-.259c.05-.067.116-.146.2-.237l.2-.222c.072-.086.129-.161.172-.223a.818.818,0,0,0,.171-.466q0-.445-.368-.446a.36.36,0,0,0-.363.216,1.075,1.075,0,0,0-.077.474h-1.163a.265.265,0,0,1-.007-.065v-.065a1.809,1.809,0,0,1,.484-1.3,1.592,1.592,0,0,1,1.189-.488,1.406,1.406,0,0,1,1.373.861,1.518,1.518,0,0,1,.153.661A1.5,1.5,0,0,1,2358.158,1355.135Zm-1.527,5.579h-.038l-.992,3.719h2.023Z"/><path class="h" d="M2370.66,1366.8a4.811,4.811,0,0,1-7.167.028,5.517,5.517,0,0,1-1.514-3.927,7.092,7.092,0,0,1,.376-2.327,5.173,5.173,0,0,1,.629-1.22,4.822,4.822,0,0,1,7.676-.61,6.2,6.2,0,0,1,0,8.056Zm-1.686-6.261a2.365,2.365,0,0,0-3.808-.029,3.462,3.462,0,0,0-.726,2.226,3.553,3.553,0,0,0,.731,2.269,2.345,2.345,0,0,0,1.927.969,2.281,2.281,0,0,0,1.876-.977,3.845,3.845,0,0,0,0-4.458Z"/><path class="h" d="M2383.111,1368.21v-4.351h-3.154v4.351H2377.5v-10.885h2.461v4.093h3.154v-4.093h2.461v10.885Z"/><path class="h" d="M2387.313,1368.21v-10.885h2.461v10.885Z"/><path class="h" d="M2394.76,1356.37l-.6-.847-.6.847h-2.111l2.028-2.441h1.412l1.952,2.441Zm-3.243,11.84v-10.885h5.355v2.441h-3v1.7h2.906v2.441h-2.906v1.867h3v2.441Zm6.219-15.344a1.647,1.647,0,0,1-.184.28,2.265,2.265,0,0,1-.216.252l-.216.229c-.081.086-.147.161-.2.223a.944.944,0,0,0-.21.488h-1.106a1.4,1.4,0,0,1,.178-.646,2.821,2.821,0,0,1,.172-.259,2.98,2.98,0,0,1,.2-.236l.2-.223a2.71,2.71,0,0,0,.172-.223.819.819,0,0,0,.172-.466q0-.445-.369-.446a.368.368,0,0,0-.363.216,1.205,1.205,0,0,0-.076.474h-1.164a.327.327,0,0,1-.006-.065v-.064a1.8,1.8,0,0,1,.49-1.3,1.576,1.576,0,0,1,1.182-.488,1.408,1.408,0,0,1,1.374.861,1.53,1.53,0,0,1,.152.661A1.5,1.5,0,0,1,2397.736,1352.866Z"/><path class="h" d="M2406.295,1368.21l.077-8.149-.026-.029-2.053,8.178h-1.628l-2.061-8.178-.025.029.076,8.149h-2.264v-10.885h3.167l1.914,7.166h.026l1.888-7.166h3.173v10.885Z"/><circle class="b" cx="18.113" cy="18.113" r="18.113" transform="translate(2488.517 1336.332)"/><path class="g" d="M2511.274,1368.786a.678.678,0,0,0-1.04.267,1.2,1.2,0,0,0,.317,1.237.68.68,0,0,0,1.04-.267,1.21,1.21,0,0,0-.317-1.237Z"/><path class="g" d="M2494.136,1361.976a.678.678,0,0,0-.506-.947,1.208,1.208,0,0,0-1.126.6.679.679,0,0,0,.506.948,1.2,1.2,0,0,0,1.126-.6Z"/><path class="g" d="M2509.264,1359.952a3.592,3.592,0,0,0,2.194.22,10.5,10.5,0,0,1,1.942-.258.161.161,0,0,0,.17-.13,8.847,8.847,0,0,1,.688-1.419,4.5,4.5,0,0,0,.588-1.593,3.168,3.168,0,0,0-.6-2.368,14.058,14.058,0,0,0-1.243-1.363c-.036-.038-.086-.067-.1-.128.054-.011.106-.023.159-.032a15.182,15.182,0,0,0,1.777-.357,2.994,2.994,0,0,0,1.967-1.656,4.73,4.73,0,0,0,.338-1.278,10.255,10.255,0,0,1,.343-1.839c.035-.1-.013-.156-.086-.21a6.176,6.176,0,0,1-.8-.739,10.686,10.686,0,0,0-.817-.832,3.219,3.219,0,0,0-3.237-.727,12.513,12.513,0,0,0-1.708.767.333.333,0,0,1-.162.062.67.67,0,0,1,0-.08c.089-.558.184-1.116.218-1.682a3.386,3.386,0,0,0-.231-1.562,3.213,3.213,0,0,0-1.471-1.541,16.722,16.722,0,0,1-2.032-1.1.136.136,0,0,0-.177.011,8.639,8.639,0,0,1-1.428.764,4.332,4.332,0,0,0-1.388.931,3.136,3.136,0,0,0-.865,1.756,6.615,6.615,0,0,0,.087,1.778c.034.241.07.483.109.748l-.18-.09a14.775,14.775,0,0,0-1.608-.738,2.982,2.982,0,0,0-2.59.175,4.57,4.57,0,0,0-.974.784,11.06,11.06,0,0,1-1.413,1.34.156.156,0,0,0-.057.194c.048.175.1.351.133.529.117.578.13,1.175.27,1.748a3.234,3.234,0,0,0,1.8,2.311,6.507,6.507,0,0,0,1.69.445l.688.116a.365.365,0,0,0,.018.041c-.085.076-.175.146-.252.226a9.947,9.947,0,0,0-1.251,1.415,2.939,2.939,0,0,0-.524,1.825,3.977,3.977,0,0,0,.492,1.609,11.3,11.3,0,0,1,.85,1.78c.029.094.1.113.186.112a4.743,4.743,0,0,1,.822.077,11.2,11.2,0,0,0,1.747.258,3.366,3.366,0,0,0,2.025-.622.233.233,0,0,0,.11-.219c-.008-.577-.042-1.151-.093-1.725a10.316,10.316,0,0,0-1-3.529,17.776,17.776,0,0,0-3.708-5.149c-.025-.023-.07-.038-.055-.1.616,0,1.232,0,1.846,0a.285.285,0,0,1,.25.116c.676.8,1.334,1.619,1.935,2.48a13.172,13.172,0,0,1,2.428,5.53c.009-.072.017-.14.027-.207a10.3,10.3,0,0,1,.861-2.7,23.078,23.078,0,0,1,3.506-5.144.154.154,0,0,1,.122-.07h1.972c-.049.051-.072.077-.094.1a17.809,17.809,0,0,0-2.744,3.391,13.241,13.241,0,0,0-1.728,3.877,13.955,13.955,0,0,0-.33,3.208.166.166,0,0,0,.081.146A2.833,2.833,0,0,0,2509.264,1359.952Zm-2.183-7.147a1.779,1.779,0,1,1,1.775-1.781A1.79,1.79,0,0,1,2507.081,1352.805Z"/><path class="g" d="M2492.009,1359.34l.238.682.844-.67,0-.009Z"/><path class="g" d="M2505.269,1369.147l-.477.968.718.086-.231-1.053Z"/><path class="g" d="M2507.062,1335.471a19.148,19.148,0,1,0,19.148,19.149A19.149,19.149,0,0,0,2507.062,1335.471Zm-13.177,23.519c.056.128.123.178.2.151a.129.129,0,0,0,.089-.071.2.2,0,0,0-.012-.131.484.484,0,0,0-.051-.1l.151-.06a1.346,1.346,0,0,1,.06.141.435.435,0,0,1,.015.245.225.225,0,0,1-.161.171c-.115.04-.213-.007-.295-.14l-.071.018-.06-.172Zm-3.46-2.292,2.326-.444.215,1.131a.807.807,0,0,1-.05.534.526.526,0,0,1-.4.266.513.513,0,0,1-.559-.238h-.006a.524.524,0,0,1-.14.363.669.669,0,0,1-.376.188.593.593,0,0,1-.51-.124,1,1,0,0,1-.3-.609Zm1.042,3.948.518-.417-.311-.892-.665,0-.141-.4,2.534.077.146.417-1.935,1.641Zm1.461,2.3a1.131,1.131,0,0,1-.775-1.454,1.411,1.411,0,0,1,1.558-.831,1.127,1.127,0,0,1,.775,1.454,1.414,1.414,0,0,1-1.558.831Zm1.784,2.863.808-.7-.7-.815-.808.7-.271-.314,1.792-1.546.271.313-.713.616.7.816.713-.616.271.314-1.793,1.547Zm.754.758,1.614-1.733.3.283-1.613,1.733Zm2.155,1.771-1.373-1.048,1.435-1.883,1.355,1.034-.217.285-1.026-.782-.375.493.949.723-.2.27-.949-.724-.421.551,1.044.8Zm.486-2.907.57-.162.293.223,0,.594-.245-.187-.007-.38-.365.1Zm2.157,4.4-.348-.185.86-1.612-.006,0-1.439,1.3-.3-.161.281-1.921-.006,0-.86,1.612-.348-.186,1.114-2.089.515.275-.3,1.943.006,0,1.434-1.336.509.271Zm-.829-3.973a.215.215,0,0,0-.083-.1.506.506,0,0,0-.1-.06l.093-.133a1.2,1.2,0,0,1,.127.085.448.448,0,0,1,.149.2.231.231,0,0,1-.041.232.239.239,0,0,1-.323.046l-.05.054-.144-.111.086-.113c.117.075.2.081.25.015A.134.134,0,0,0,2499.435,1365.853Zm3.831,4.94-.335-1.028-.814.719-.458-.123,1.128-.967-.46-1.305.477.128.3.946.758-.661.449.12-1.052.9.492,1.4Zm2.461.383-.146-.649-.938-.112-.3.595-.425-.05,1.184-2.243.437.052.624,2.459Zm-.947-2.769a.54.54,0,0,1,.144-.244.282.282,0,0,1,.243-.087.722.722,0,0,1,.258.1.648.648,0,0,0,.2.084.164.164,0,0,0,.182-.125l.185.022a.511.511,0,0,1-.141.253.313.313,0,0,1-.27.081.618.618,0,0,1-.236-.091.62.62,0,0,0-.217-.086c-.077-.009-.129.03-.158.118Zm.582-2.63c-.114,0-.14-.031-.132-.141q.086-1.473.165-2.949c.028-.5.046-1,.069-1.534a5.193,5.193,0,0,1-1.081.447,4.7,4.7,0,0,1-2.405.018,8.479,8.479,0,0,0-1.425-.229,2.012,2.012,0,0,0-1.17.226,2.12,2.12,0,0,0-.2-1.334c-.117-.266-.261-.517-.4-.771a8.694,8.694,0,0,1-.753-1.516,3.978,3.978,0,0,1,.618-3.878c.111-.144.246-.269.366-.4.025-.027.078-.042.058-.089s-.06-.027-.092-.034a3.907,3.907,0,0,1-1.494-.564,4.4,4.4,0,0,1-1.978-3.053c-.081-.49-.127-.985-.2-1.476a2.479,2.479,0,0,0-.665-1.511,2.27,2.27,0,0,0,1.321-.721c.45-.434.837-.931,1.3-1.356a4.255,4.255,0,0,1,2.519-1.182,3.918,3.918,0,0,1,2.225.448c.043.023.088.045.149.076-.019-.184-.041-.351-.052-.52a4.128,4.128,0,0,1,1.079-3,4.548,4.548,0,0,1,1.661-1.2c.382-.169.765-.339,1.132-.54a1.163,1.163,0,0,1,2.317.058c.516.262,1.062.467,1.568.751a4.221,4.221,0,0,1,1.951,2.139,3.942,3.942,0,0,1,.186,2.314c.145-.064.269-.121.4-.174a4.179,4.179,0,0,1,3.539.184,4.417,4.417,0,0,1,1.345,1.04,11.881,11.881,0,0,0,1.162,1.179,2.009,2.009,0,0,0,1.046.5c.012.054-.035.068-.059.094a2.226,2.226,0,0,0-.539,1.176c-.116.59-.136,1.193-.24,1.784a4.151,4.151,0,0,1-2.075,3.1,3.774,3.774,0,0,1-1.392.458.134.134,0,0,0-.116.05c.153.168.31.337.448.522a3.9,3.9,0,0,1,.772,2.059,4.507,4.507,0,0,1-.628,2.772c-.219.367-.418.747-.61,1.13a2.314,2.314,0,0,0-.282,1.483,1.945,1.945,0,0,0-.7-.22,4.808,4.808,0,0,0-1.434.141,8.451,8.451,0,0,1-1.94.255,4.249,4.249,0,0,1-1.883-.487c-.033-.018-.061-.049-.086-.044,0,.269-.009.533,0,.8.044.885.094,1.769.143,2.654.016.31.031.62.053.93.008.1-.01.144-.128.143Q2507.077,1365.771,2505.362,1365.777Zm10.869-.462-.23.2-.043-.591.278-.241.582.123-.234.2-.373-.071Zm-5.144,2.727-.3.077-.3-.231-.151.347-.295.075.226-.547.356-.092Zm-1.992,3.051-.1-1.063-1.073.1.1,1.063-.413.038-.216-2.358.413-.038.086.938,1.073-.1-.086-.938.413-.037.216,2.357Zm2.072.2-.089-.347.366-.093.089.346Zm.763-1.1a1.132,1.132,0,0,1-1.6.41,1.414,1.414,0,0,1-.438-1.711,1.128,1.128,0,0,1,1.6-.409,1.411,1.411,0,0,1,.438,1.71Zm.87,0-.839-2.214.387-.147.84,2.214Zm2.358-1.073-1.86-1.664.374-.214,1.445,1.332.006,0-.4-1.928.366-.209.472,2.457Zm1.393-.862-1.367-1.933.338-.239,1.367,1.933Zm1.717-.665-.235-.271.285-.247.235.27Zm-.85.048-1.551-1.788,1.287-1.117.235.27-.975.845.407.469.9-.782.222.255-.9.782.454.524.992-.861.235.271Zm2.038-1.928-1.507-1.329-.5.562-.268-.236,1.267-1.438.269.237-.5.564,1.507,1.329Zm2.366-3.353-2.046.065,0,.009,1.509.868-.2.342-2.052-1.181.218-.379,2.051-.067,0-.006-1.512-.87.2-.342,2.052,1.182Zm1.081-2.46-.665-.021-.344.88.5.435-.155.4-1.875-1.708.16-.411,2.537.012Zm.583-2.229-.069.335-1.921.275,0,.007,1.79.367-.08.386-2.319-.476.118-.571,1.947-.267v-.007l-1.687-1,.116-.565,2.319.476-.08.387-1.789-.368,0,.006Z"/><path class="g" d="M2521.9,1359.865l-1.077-.04,0,.009.818.7Z"/><path class="g" d="M2492.112,1357.741a.31.31,0,0,0,.257.051.318.318,0,0,0,.228-.131.393.393,0,0,0,.026-.272l-.127-.664-.642.122.127.664A.366.366,0,0,0,2492.112,1357.741Z"/><path class="g" d="M2491.123,1358.031a.36.36,0,0,0,.292.051.342.342,0,0,0,.245-.153.419.419,0,0,0,.038-.306l-.137-.72-.726.138.137.72A.414.414,0,0,0,2491.123,1358.031Z"/><text class="i" transform="translate(2370.814 1432.072)"><tspan x="0" y="0">012 345 6789</tspan></text><text class="j" transform="translate(2437.419 1410.204)"><tspan x="0" y="0">NGUYEN VAN A</tspan></text><g class="e"><path class="g" d="M2375.295,1418.135h5.245a2.16,2.16,0,0,1,1.589.55,2.127,2.127,0,0,1,.557,1.583V1430.9a2.128,2.128,0,0,1-.557,1.583,2.161,2.161,0,0,1-1.589.55h-5.245a1.922,1.922,0,0,1-2.133-2.133v-10.636a1.922,1.922,0,0,1,2.133-2.133Zm-.2,1.931v11.04h5.66v-11.04Z"/><path class="g" d="M2388.458,1418.135h4.649v12.971h1.865v-3.8a1.089,1.089,0,0,1,.263-.775.92.92,0,0,1,.7-.281.9.9,0,0,1,.7.292,1.08,1.08,0,0,1,.269.764v4.762a.89.89,0,0,1-.3.7,1.121,1.121,0,0,1-.775.269h-7.367a1.117,1.117,0,0,1-.781-.269.958.958,0,0,1,.006-1.393,1.126,1.126,0,0,1,.775-.269h2.717v-11.04h-2.717a1.13,1.13,0,0,1-.787-.264.9.9,0,0,1-.291-.7.889.889,0,0,1,.3-.7A1.121,1.121,0,0,1,2388.458,1418.135Z"/><path class="g" d="M2402.676,1418.135h6.514a1.926,1.926,0,0,1,1.931,1.931v4.549a1.926,1.926,0,0,1-1.931,1.931h-5.661v4.56h6.514a1.121,1.121,0,0,1,.78.269.957.957,0,0,1,0,1.393,1.122,1.122,0,0,1-.775.269H2401.6v-6.491a1.924,1.924,0,0,1,1.931-1.931h5.661v-4.549h-6.514a1.13,1.13,0,0,1-.787-.264.9.9,0,0,1-.291-.7.886.886,0,0,1,.3-.7A1.121,1.121,0,0,1,2402.676,1418.135Z"/><path class="g" d="M2424,1418.135h6.514a1.946,1.946,0,0,1,1.931,1.931v3.583a2.742,2.742,0,0,1-.179.977,3.646,3.646,0,0,1-.539.932,4.037,4.037,0,0,1,.539.994,2.94,2.94,0,0,1,.179.994v3.56a1.936,1.936,0,0,1-1.931,1.931H2424a1.117,1.117,0,0,1-.781-.269.959.959,0,0,1,.006-1.393,1.126,1.126,0,0,1,.775-.269h6.49v-3.594a.932.932,0,0,0-.286-.674.916.916,0,0,0-.679-.292h-3.638a1.105,1.105,0,0,1-.776-.258.995.995,0,0,1,.012-1.4,1.065,1.065,0,0,1,.764-.275h3.638a.978.978,0,0,0,.965-.966v-3.583H2424a1.129,1.129,0,0,1-.787-.264.9.9,0,0,1-.291-.7.889.889,0,0,1,.3-.7A1.121,1.121,0,0,1,2424,1418.135Z"/><path class="g" d="M2439.556,1419.213v7.041h3.751v-5.424a1.154,1.154,0,0,1,.263-.792.958.958,0,0,1,1.393.006,1.121,1.121,0,0,1,.275.786v5.424a1.083,1.083,0,0,1,.691.3.894.894,0,0,1,.275.663.883.883,0,0,1-.263.646,1.176,1.176,0,0,1-.7.32v3.773a1.119,1.119,0,0,1-.269.781.959.959,0,0,1-1.393-.006,1.125,1.125,0,0,1-.269-.775v-3.773h-5.683v-8.973a1.125,1.125,0,0,1,.264-.786.963.963,0,0,1,1.392.011A1.105,1.105,0,0,1,2439.556,1419.213Z"/><path class="g" d="M2453.269,1418.135h6.537a1.116,1.116,0,0,1,.78.269.949.949,0,0,1-.006,1.387,1.109,1.109,0,0,1-.774.275H2455.2v4.549h3.752a1.955,1.955,0,0,1,1.932,1.931v4.56a1.936,1.936,0,0,1-1.932,1.931h-4.279a2.6,2.6,0,0,1-.545-.061,4.174,4.174,0,0,1-.556-.163l-1.527-.629a1.162,1.162,0,0,1-.5-.376.922.922,0,0,1-.18-.567.9.9,0,0,1,.275-.668.937.937,0,0,1,.69-.276.886.886,0,0,1,.22.029,1.544,1.544,0,0,1,.253.084l1.5.606a.858.858,0,0,0,.191.073.772.772,0,0,0,.158.017h4.3v-4.56h-5.683Z"/><path class="g" d="M2473.652,1418.135h.853a1.117,1.117,0,0,1,.781.269.894.894,0,0,1,.3.7.878.878,0,0,1-.264.646,1.164,1.164,0,0,1-.7.32v6.188h5.447a2.161,2.161,0,0,1,1.588.551,2.123,2.123,0,0,1,.557,1.583v2.516a2.125,2.125,0,0,1-.557,1.583,2.161,2.161,0,0,1-1.588.55h-5.246a1.921,1.921,0,0,1-2.132-2.133v-11.691a1.13,1.13,0,0,1,.263-.786A.9.9,0,0,1,2473.652,1418.135Zm.966,10.051v2.92h5.66v-2.92Z"/><path class="g" d="M2487.869,1418.135h8.559v5.772a1.217,1.217,0,0,1-.079.483,1.551,1.551,0,0,1-.405.46l-3.313,2.831v4.278a1.119,1.119,0,0,1-.27.781.958.958,0,0,1-1.392-.006,1.121,1.121,0,0,1-.27-.775v-4.649a1.234,1.234,0,0,1,.079-.483,1.544,1.544,0,0,1,.405-.46l3.313-2.808v-3.493h-5.66a1.129,1.129,0,0,1-.354.595.913.913,0,0,1-.613.214.893.893,0,0,1-.695-.3,1.1,1.1,0,0,1-.27-.769v-.595a1.125,1.125,0,0,1,.264-.786A.9.9,0,0,1,2487.869,1418.135Z"/><path class="g" d="M2504,1418.135h3.774a.894.894,0,0,1,.69.3,1.1,1.1,0,0,1,.274.775v5.4a2.092,2.092,0,0,1,1.421.634,2.177,2.177,0,0,1,.49,1.511v4.144a2.129,2.129,0,0,1-.557,1.583,2.162,2.162,0,0,1-1.589.55h-5.245a1.922,1.922,0,0,1-2.133-2.133v-4.144a2.2,2.2,0,0,1,.488-1.517,2.044,2.044,0,0,1,1.42-.628v-5.4a1.126,1.126,0,0,1,.265-.786A.9.9,0,0,1,2504,1418.135Zm-.943,8.411v4.56h5.66v-4.56Zm1.908-6.48v4.549h1.842v-4.549Z"/><path class="g" d="M2517.473,1418.135h5.245a2.138,2.138,0,0,1,1.589.561,2.169,2.169,0,0,1,.556,1.595v11.691a1.075,1.075,0,0,1-.269.769.914.914,0,0,1-.7.286h-.854a1.116,1.116,0,0,1-.78-.269.9.9,0,0,1-.3-.7.889.889,0,0,1,.259-.646,1.2,1.2,0,0,1,.708-.331v-6.155h-5.459a2.12,2.12,0,0,1-1.577-.561,2.169,2.169,0,0,1-.556-1.595v-2.493a2.169,2.169,0,0,1,.556-1.595A2.12,2.12,0,0,1,2517.473,1418.135Zm-.2,1.931v2.92h5.66v-2.92Z"/></g><g class="e"><path class="g" d="M2438.745,1402.327h1.442l2.849,6.487v-5.878a.635.635,0,0,1,.15-.444.545.545,0,0,1,.787.006.632.632,0,0,1,.155.438v7.814h-1.447l-2.844-6.462v5.853a.635.635,0,0,1-.152.441.508.508,0,0,1-.393.168.5.5,0,0,1-.394-.171.632.632,0,0,1-.153-.438Z"/><path class="g" d="M2449.981,1402.327h1.574a.634.634,0,0,1,.441.152.506.506,0,0,1,.168.394.5.5,0,0,1-.171.39.625.625,0,0,1-.438.156h-1.561a.555.555,0,0,0-.228.054.4.4,0,0,0-.166.117l-1.4,1.816a1.96,1.96,0,0,0-.256.421.96.96,0,0,0-.068.359v2.927a.517.517,0,0,0,.166.383.525.525,0,0,0,.381.163h2.094a.525.525,0,0,0,.381-.163.518.518,0,0,0,.166-.383v-1.1h-.991a.642.642,0,0,1-.445-.149.512.512,0,0,1-.164-.4.5.5,0,0,1,.171-.393.634.634,0,0,1,.438-.153h2.094v2.2a1.646,1.646,0,0,1-1.637,1.637h-2.1a1.6,1.6,0,0,1-1.168-.479,1.576,1.576,0,0,1-.483-1.158v-2.927a2.017,2.017,0,0,1,.127-.711,3.771,3.771,0,0,1,.5-.837l1.263-1.676a1.6,1.6,0,0,1,.577-.454A1.654,1.654,0,0,1,2449.981,1402.327Z"/><path class="g" d="M2455.909,1402.936v6.177a.526.526,0,0,0,.162.387.534.534,0,0,0,.385.159h2.094a.548.548,0,0,0,.388-.166.511.511,0,0,0,.171-.38v-6.177a.634.634,0,0,1,.149-.444.509.509,0,0,1,.4-.165.5.5,0,0,1,.39.171.627.627,0,0,1,.155.438v6.177a1.646,1.646,0,0,1-1.636,1.637h-2.1a1.6,1.6,0,0,1-1.168-.479,1.574,1.574,0,0,1-.482-1.158v-6.177a.634.634,0,0,1,.149-.444.509.509,0,0,1,.4-.165.5.5,0,0,1,.39.171A.627.627,0,0,1,2455.909,1402.936Z"/><path class="g" d="M2463.945,1402.936v.68l1.6,2,1.6-2v-.68a.635.635,0,0,1,.152-.438.541.541,0,0,1,.787,0,.629.629,0,0,1,.152.441v1.054l-2.144,2.7v3.447a.634.634,0,0,1-.152.441.51.51,0,0,1-.4.168.5.5,0,0,1-.393-.171.636.636,0,0,1-.152-.438v-3.447l-2.146-2.7v-1.054a.635.635,0,0,1,.149-.444.511.511,0,0,1,.4-.165.5.5,0,0,1,.389.171A.627.627,0,0,1,2463.945,1402.936Z"/><path class="g" d="M2470.89,1402.327h4.773a.636.636,0,0,1,.442.152.508.508,0,0,1,.168.394.5.5,0,0,1-.171.39.629.629,0,0,1-.439.156h-3.681v2.571h1.548a.608.608,0,0,1,.432.152.549.549,0,0,1,0,.787.607.607,0,0,1-.432.152h-1.548v2.578h3.681a.631.631,0,0,1,.442.152.542.542,0,0,1,0,.787.636.636,0,0,1-.439.152h-4.773Z"/><path class="g" d="M2478.926,1402.327h1.441l2.85,6.487v-5.878a.64.64,0,0,1,.149-.444.511.511,0,0,1,.4-.165.5.5,0,0,1,.389.171.628.628,0,0,1,.156.438v7.814h-1.448l-2.843-6.462v5.853a.63.63,0,0,1-.153.441.542.542,0,0,1-.787,0,.637.637,0,0,1-.152-.438Z"/><path class="g" d="M2492.072,1402.936v1.651l1.6,4.2,1.6-4.2v-1.651a.635.635,0,0,1,.152-.438.541.541,0,0,1,.787,0,.629.629,0,0,1,.152.441v1.86l-2.144,5.485a.863.863,0,0,1-.226.371.5.5,0,0,1-.321.1.518.518,0,0,1-.336-.108.792.792,0,0,1-.223-.361l-2.132-5.485v-1.86a.635.635,0,0,1,.149-.444.509.509,0,0,1,.4-.165.5.5,0,0,1,.39.171A.627.627,0,0,1,2492.072,1402.936Z"/><path class="g" d="M2502.291,1402.936l2.057,7.065a.735.735,0,0,1,.029.115.65.65,0,0,1,.01.1.532.532,0,0,1-.873.409.638.638,0,0,1-.207-.326l-.406-1.384h-2.38l-.413,1.377a.725.725,0,0,1-.212.346.531.531,0,0,1-.347.111.531.531,0,0,1-.52-.52,1.262,1.262,0,0,1,.006-.143.571.571,0,0,1,.02-.092l2.056-7.059a1.075,1.075,0,0,1,.232-.476.5.5,0,0,1,.364-.133.491.491,0,0,1,.356.127A1.043,1.043,0,0,1,2502.291,1402.936Zm-.584,1.886-.882,3h1.752Z"/><path class="g" d="M2507.053,1402.327h1.441l2.85,6.487v-5.878a.64.64,0,0,1,.149-.444.511.511,0,0,1,.4-.165.5.5,0,0,1,.389.171.628.628,0,0,1,.156.438v7.814h-1.448l-2.843-6.462v5.853a.63.63,0,0,1-.153.441.541.541,0,0,1-.787,0,.636.636,0,0,1-.152-.438Z"/><path class="g" d="M2522.382,1402.936l2.057,7.065a.793.793,0,0,1,.029.115.65.65,0,0,1,.01.1.532.532,0,0,1-.873.409.636.636,0,0,1-.207-.326l-.407-1.384h-2.38l-.413,1.377a.712.712,0,0,1-.212.346.529.529,0,0,1-.346.111.5.5,0,0,1-.364-.155.5.5,0,0,1-.156-.365,1.262,1.262,0,0,1,.006-.143.546.546,0,0,1,.02-.092l2.056-7.059a1.075,1.075,0,0,1,.232-.476.5.5,0,0,1,.364-.133.489.489,0,0,1,.355.127A1.045,1.045,0,0,1,2522.382,1402.936Zm-.584,1.886-.882,3h1.752Z"/></g><path class="k" d="M2298.786,1403.783l12.168,8.354a1,1,0,0,0,1.57-.826V1394.6a1,1,0,0,0-1.57-.827l-12.168,8.354A1,1,0,0,0,2298.786,1403.783Z"/><g class="l"><path class="m" d="M2342.659,1413.245c0,1.942-.509,3.517-1.137,3.517H2316.38c-.628,0-1.138-1.575-1.138-3.517V1393c0-1.942.51-3.516,1.138-3.516h25.142c.628,0,1.137,1.574,1.137,3.516Z"/></g><path class="n" d="M2336.59,1390.635h-15.6a4.835,4.835,0,0,0-4.829,4.83v14.983a4.834,4.834,0,0,0,4.829,4.829h15.6a4.835,4.835,0,0,0,4.83-4.829v-14.983A4.836,4.836,0,0,0,2336.59,1390.635Zm-5.514,12.9c.019.033,1.943,3.366.959,6.1a3.188,3.188,0,0,1-6.347,0c-.984-2.727.939-6.064.958-6.1l.044-.075-.041-.075a6.953,6.953,0,0,1-.811-5.59,3.037,3.037,0,1,1,6.046,0,6.953,6.953,0,0,1-.811,5.59l-.041.076Zm-14.611-8.066a4.526,4.526,0,0,1,4.521-4.521h7.732v3.25a6.424,6.424,0,0,0-3.17,3.493c-.025.074-.04.151-.063.226h-9.02Zm0,2.773h8.93a7.414,7.414,0,0,0,.86,5.039h-9.79Zm0,5.38h9.783a9.487,9.487,0,0,0-1.127,4.784h-8.656Zm24.646,6.83a4.525,4.525,0,0,1-4.521,4.521h-15.6a4.526,4.526,0,0,1-4.521-4.521v-1.728h8.686a4.985,4.985,0,0,0,.247,1.011,5.25,5.25,0,0,0,3.41,3.088l.053-.145.053.145a5.254,5.254,0,0,0,3.411-3.088,4.969,4.969,0,0,0,.247-1.011h8.539Zm0-2.046H2332.6a9.5,9.5,0,0,0-1.128-4.784h9.637Zm0-5.125h-9.644a7.419,7.419,0,0,0,.861-5.039h8.783Zm0-5.364h-8.874c-.022-.075-.037-.152-.063-.226a6.421,6.421,0,0,0-3.17-3.493v-3.25h7.586a4.525,4.525,0,0,1,4.521,4.521Z"/></g></g></g></svg>