<svg xmlns="http://www.w3.org/2000/svg" xmlns:xlink="http://www.w3.org/1999/xlink" width="322" height="276" viewBox="0 0 322 276"><defs><style>.a{fill:#fff;}.b{font-size:14px;opacity:0.7;}.b,.e{font-family:Arial-BoldMT, Arial;font-weight:700;}.c,.e,.i{fill:#fff6f3;}.c{stroke:#e7b383;}.d{fill:#e7b383;}.e{font-size:26px;}.f,.k{fill:none;}.f{stroke:#f9dbd2;stroke-width:2px;}.g{fill:#f9dbd2;}.h{fill:#04346e;}.i{fill-rule:evenodd;}.j{stroke:none;}.l{filter:url(#c);}.m{filter:url(#a);}</style><filter id="a" x="0" y="0" width="322" height="276" filterUnits="userSpaceOnUse"><feOffset dy="3" input="SourceAlpha"/><feGaussianBlur stdDeviation="3" result="b"/><feFlood flood-opacity="0.051"/><feComposite operator="in" in2="b"/><feComposite in="SourceGraphic"/></filter><filter id="c" x="52" y="61" width="219" height="187" filterUnits="userSpaceOnUse"><feOffset input="SourceAlpha"/><feGaussianBlur stdDeviation="5" result="d"/><feFlood flood-color="#e7b383" flood-opacity="0.4"/><feComposite operator="in" in2="d"/><feComposite in="SourceGraphic"/></filter></defs><g transform="translate(-82 -348)"><g class="m" transform="matrix(1, 0, 0, 1, 82, 348)"><rect class="a" width="304" height="258" rx="10" transform="translate(9 6)"/></g><text class="b" transform="translate(244 384)"><tspan x="-81.679" y="0">Tạm tính kết quả C12-TS</tspan></text><g class="l" transform="matrix(1, 0, 0, 1, 82, 348)"><g class="c" transform="translate(256 233) rotate(180)"><rect class="j" width="189" height="157" rx="15"/><rect class="k" x="0.5" y="0.5" width="188" height="156" rx="14.5"/></g></g><path class="d" d="M15,0H174a15,15,0,0,1,15,15V40a0,0,0,0,1,0,0H0a0,0,0,0,1,0,0V15A15,15,0,0,1,15,0Z" transform="translate(149 424)"/><text class="e" transform="translate(219 453)"><tspan x="0" y="0">C12</tspan></text><rect class="d" width="25" height="25" transform="translate(165 474)"/><g class="f" transform="translate(198 474)"><rect class="j" width="25" height="25"/><rect class="k" x="1" y="1" width="23" height="23"/></g><g class="f" transform="translate(231 540)"><rect class="j" width="25" height="25"/><rect class="k" x="1" y="1" width="23" height="23"/></g><rect class="g" width="25" height="25" transform="translate(231 474)"/><rect class="g" width="25" height="25" transform="translate(264 474)"/><rect class="h" width="25" height="25" transform="translate(297 474)"/><rect class="d" width="25" height="25" transform="translate(165 507)"/><rect class="h" width="25" height="25" transform="translate(198 507)"/><rect class="g" width="25" height="25" transform="translate(231 507)"/><rect class="g" width="25" height="25" transform="translate(264 507)"/><rect class="g" width="25" height="25" transform="translate(297 507)"/><rect class="d" width="25" height="25" transform="translate(165 540)"/><rect class="g" width="25" height="25" transform="translate(198 540)"/><rect class="h" width="25" height="25" transform="translate(264 540)"/><rect class="g" width="25" height="25" transform="translate(297 540)"/><path class="i" d="M2043.392,1507.4a6.094,6.094,0,1,1-6.094,6.1,6.093,6.093,0,0,1,6.094-6.1Z" transform="translate(-1733.298 -1079.928)"/><rect class="h" width="6" height="23" rx="3" transform="translate(307 413)"/><path class="i" d="M2043.392,1507.4a6.094,6.094,0,1,1-6.094,6.1,6.093,6.093,0,0,1,6.094-6.1Z" transform="translate(-1866.298 -1079.928)"/><rect class="h" width="6" height="23" rx="3" transform="translate(174 413)"/></g></svg>