<svg xmlns="http://www.w3.org/2000/svg" xmlns:xlink="http://www.w3.org/1999/xlink" width="322" height="276" viewBox="0 0 322 276"><defs><style>.a,.bn{fill:#fff;}.b{font-size:14px;font-family:Arial-BoldMT, Arial;font-weight:700;opacity:0.7;}.c{fill:#9ed7e2;}.af,.al,.av,.ax,.c{opacity:0.2;}.af,.al,.ao,.ap,.av,.bj,.c,.u{mix-blend-mode:multiply;isolation:isolate;}.d{fill:#edb485;}.e{fill:#a97c50;}.f{fill:#33404d;}.g{fill:#cc2221;}.h{fill:#212529;}.i{fill:#7e8e96;}.j{fill:#1f2b38;}.k{fill:#141b2f;}.l{fill:#cf9b72;}.m{fill:#edd6b6;}.n{fill:#ff4140;}.o{fill:#17191a;}.p{fill:#504760;}.ao,.ap,.bj,.bn,.q,.u{opacity:0.3;}.af,.r{fill:#292a36;}.s{fill:#8c6038;}.ao,.t{fill:#f3ad7a;}.v{fill:#ffcd9c;}.ap,.w{fill:#fec08a;}.x{fill:#2a2626;}.y{fill:#231f20;}.z{fill:#fefefe;}.aa{fill:#ffe9d4;}.ab{opacity:0.1;}.ac{fill:#f48fb7;}.ad{fill:#462119;}.ae{fill:#d3e6f0;}.ag{fill:#2f4052;}.ah{fill:#353942;}.ai{fill:#fff7dc;}.aj{fill:#405067;}.ak{fill:#585b64;}.am{fill:#eed1c9;}.an{fill:#fdeadc;}.aq{fill:#007364;}.ar{fill:#342b44;}.as{fill:#3f705c;}.at{fill:#7cc4a6;}.au{fill:#00806f;}.av{fill:#6e706f;}.aw{fill:#bf4223;}.ay{fill:#2c1816;}.az{fill:#1a9a89;}.ba{fill:#dcdcdc;}.bb{fill:#fc649a;}.bc{fill:#e5bd99;}.bd{fill:#ff9d00;}.be{fill:#2e3133;}.bf{fill:#fb0;}.bg{fill:#1e2a36;}.bh{fill:#468689;}.bi,.bj{fill:#3f7582;}.bk{fill:#ccc5bf;}.bl{fill:#99948f;}.bm{fill:#362825;}.bo{fill:#e89700;}.bp{fill:#bb0069;}.bq{fill:#ffca00;}.br{filter:url(#a);}</style><filter id="a" x="0" y="0" width="322" height="276" filterUnits="userSpaceOnUse"><feOffset dy="3" input="SourceAlpha"/><feGaussianBlur stdDeviation="3" result="b"/><feFlood flood-opacity="0.051"/><feComposite operator="in" in2="b"/><feComposite in="SourceGraphic"/></filter></defs><g transform="translate(-401 -348)"><g class="br" transform="matrix(1, 0, 0, 1, 401, 348)"><rect class="a" width="304" height="258" rx="10" transform="translate(9 6)"/></g><text class="b" transform="translate(562 384)"><tspan x="-115.121" y="0">Báo cáo chế độ BHXH, TNLĐ, BNN</tspan></text><g transform="translate(-1598.701 -936.848)"><path class="c" d="M2281.7,1448.455c0-6.2-53.726-11.23-120-11.23s-120,5.029-120,11.23,53.725,11.229,120,11.229S2281.7,1454.658,2281.7,1448.455Z" transform="translate(0 46.347)"/><g transform="translate(2183.899 1410.727)"><g transform="translate(2.675 5.227)"><rect class="d" width="2.283" height="3.954" transform="translate(0 0.876) rotate(-22.579)"/></g><g transform="translate(0 3.175)"><path class="d" d="M2126.661,1395.863a.641.641,0,0,1,.9.044l1.876,2.094a1.975,1.975,0,0,1-.431.847c-.134.137-.659.032-.659.032l-1.728-2.122A.637.637,0,0,1,2126.661,1395.863Z" transform="translate(-2126.453 -1395.701)"/></g><g transform="translate(0.859)"><path class="d" d="M2127.757,1399.746a32.97,32.97,0,0,1-.791-4.408,2.474,2.474,0,0,1,1.191-1.461c.51-.27,1.681.331,1.864.6a15.75,15.75,0,0,1,1.49,4.092,1.142,1.142,0,0,1-.747,1.436l-1.567.492A1.142,1.142,0,0,1,2127.757,1399.746Z" transform="translate(-2126.965 -1393.808)"/></g></g><g transform="translate(2166.354 1416.684)"><path class="e" d="M2117.351,1398.317a2.1,2.1,0,0,1,2.706,1.218c1.539,4.06,9.033,11.785,12.971,12.651,1.783.391,2.512-.19,2.947-.742a2.627,2.627,0,0,0,.183-.253c1.467-2.247,1.223-7.449.283-10.751a10.321,10.321,0,0,0-.6-1.636l3.825-1.444a12.493,12.493,0,0,1,.559,1.391c1.321,3.881,2.033,10.768-.565,14.751-.122.188-.255.369-.391.545a6.768,6.768,0,0,1-7.142,2.238c-5.935-1.305-14.168-10.436-16-15.263A2.1,2.1,0,0,1,2117.351,1398.317Z" transform="translate(-2115.995 -1397.359)"/></g><g transform="translate(2138.114 1417.005)"><g transform="translate(5.414 0.864)"><path class="f" d="M2119.2,1425.518h-2.567V1408.39a7.767,7.767,0,0,0-7.758-7.76h-6.486v-2.565h6.486a10.337,10.337,0,0,1,10.325,10.325Z" transform="translate(-2102.391 -1398.065)"/></g><path class="g" d="M2111.312,1397.55h-10.157a1.991,1.991,0,0,0,0,3.981h10.157Z" transform="translate(-2099.164 -1397.55)"/></g><g transform="translate(2140.226 1440.644)"><g transform="translate(14.651 18.88)"><path class="h" d="M2153.4,1458l-3.552-33.251a2.071,2.071,0,0,0-2.061-1.859h-38.628v3.354h36.521a2.072,2.072,0,0,1,2.06,1.859l3.327,32.219Z" transform="translate(-2109.155 -1422.892)"/></g><g transform="translate(19.661)"><path class="g" d="M2146.082,1430.52h-33.941v-18.88h21.833a12.108,12.108,0,0,1,12.107,12.107Z" transform="translate(-2112.141 -1411.639)"/></g><g transform="translate(0 8.528)"><g transform="translate(0.696 0.697)"><path class="i" d="M2149.282,1440.806l-.021-.64-19.189.69,18.944-3.131-.1-.637-22.321,3.689,19.173-12.009-.345-.546-16.266,10.188,14.838-12.176-.409-.5-17.484,14.352,10.595-19.984-.564-.3-8.993,16.958,6.758-17.966-.6-.229-7.963,21.18-.818-22.609-.644.022.694,19.177-3.129-18.931-.633.1,3.687,22.32-12.009-19.168-.546.341,10.188,16.262-12.178-14.831-.494.407,14.352,17.483-19.985-10.6-.3.569,16.961,8.993-17.971-6.76-.225.6,21.176,7.968-22.61.815.022.644,19.173-.693-18.929,3.128.105.636,22.32-3.686-19.17,12.009.341.543,16.256-10.184-14.825,12.172.407.5,17.487-14.354-10.6,19.986.57.3,8.99-16.96-6.758,17.966.6.228,7.964-21.17.815,22.6.644-.023-.694-19.188,3.132,18.944.636-.106-3.691-22.317,12.012,19.167.543-.342-10.188-16.262,12.178,14.833.5-.407-14.357-17.488,19.988,10.6.3-.569-16.962-8.994,17.967,6.76.229-.6-21.173-7.965Z" transform="translate(-2100.838 -1417.137)"/></g><g transform="translate(1.677 1.679)"><path class="i" d="M2125.069,1464.2a23.177,23.177,0,1,1,9.01-1.985A23.128,23.128,0,0,1,2125.069,1464.2Zm-.763-43.866a20.632,20.632,0,1,0,20.986,20.273A20.654,20.654,0,0,0,2124.305,1420.334Z" transform="translate(-2101.423 -1417.723)"/></g><path class="h" d="M2125.339,1466.56a24.85,24.85,0,1,1,9.7-1.96A24.758,24.758,0,0,1,2125.339,1466.56Zm0-47.043a22.123,22.123,0,1,0,22.124,22.124A22.147,22.147,0,0,0,2125.339,1419.517Z" transform="translate(-2100.423 -1416.722)"/><g transform="translate(19.446 19.448)"><path class="h" d="M2122.956,1433.784a5.471,5.471,0,1,0-5.471,5.471A5.471,5.471,0,0,0,2122.956,1433.784Z" transform="translate(-2112.013 -1428.313)"/></g></g></g><g transform="translate(2131.844 1423.428)"><rect class="j" width="31.235" height="39.451"/></g><g transform="translate(2151.964 1459.524)"><rect class="h" width="36.158" height="3.354"/></g><g transform="translate(2153.633 1442.246)"><path class="k" d="M2124.313,1423.665v-3.21a7.883,7.883,0,0,0-7.86-7.861h-.138a7.884,7.884,0,0,0-7.861,7.861l-.04,2.319v.891Z" transform="translate(-2108.414 -1412.594)"/><g transform="translate(0 10.175)"><g transform="translate(13.221)"><g transform="translate(20.562 35.564)"><g transform="translate(0.678)"><rect class="l" width="2.797" height="2.352" transform="translate(0 0.065) rotate(-1.334)"/></g><g transform="translate(0.463 1.507)"><rect class="m" width="3.289" height="3.406" transform="translate(0 0.081) rotate(-1.416)"/></g><g transform="translate(0 1.973)"><g transform="translate(2.799)"><path class="n" d="M2131.428,1441.031a1.206,1.206,0,0,0-1.211,1.211v1.109a1.213,1.213,0,0,0,1.213,1.213h0a1.212,1.212,0,0,0,1.213-1.213v-1.117a1.2,1.2,0,0,0-1.215-1.2Z" transform="translate(-2130.217 -1441.031)"/></g><g transform="translate(0 3.857)"><path class="o" d="M2128.551,1443.535a.613.613,0,0,0,.611.614c1.144,0,3.6,0,3.6,0l5.646,0v-.814l-9.857.015Z" transform="translate(-2128.549 -1443.33)"/></g><g transform="translate(0 1.091)"><path class="n" d="M2138.4,1444.47l-9.854.01v-.943h0v-1.243a.61.61,0,0,1,.5-.6v.065a1.148,1.148,0,1,0,2.3,0v-.082l2.426.156v.061a.655.655,0,0,0,.117.406.5.5,0,0,0,.084.086,1.03,1.03,0,0,0,.507.211l.125.022c.109.01.23.013.364.019l1.189-.005C2137.4,1442.636,2138.4,1443.238,2138.4,1444.47Z" transform="translate(-2128.549 -1441.681)"/></g></g></g><path class="p" d="M2141.6,1442.253c-.366-4.81-.745-9.788-1.159-14.729l-.01-.1a10.9,10.9,0,0,0-1.757-4.591l-.107-.163a9.619,9.619,0,0,0-5.463-3.753l-.8-.129c-4.074-.185-11.577-.118-16.01-.1v7.327c2.98,0,5.832,0,7.106-.017,4.711-.049,3.386-.091,8.1.1a2.112,2.112,0,0,1,1.007.718,3.96,3.96,0,0,1,.629,1.391c.408,4.892.784,9.83,1.149,14.61.183,2.391.369,9.959.561,12.417l7.359,0C2142,1452.588,2141.8,1444.83,2141.6,1442.253Z" transform="translate(-2116.294 -1418.658)"/><g class="q" transform="translate(0 0.001)"><path class="r" d="M2134.029,1426.181c-1.394-2.789-6.133-3.574-6.485-7.5-3.809-.037-8.238,0-11.25.005v7.327c2.98,0,5.832,0,7.106-.017,4.711-.049,3.386-.091,8.1.1a2.112,2.112,0,0,1,1.007.718,3.96,3.96,0,0,1,.629,1.391c.408,4.892.784,9.83,1.149,14.61.183,2.391.369,9.959.561,12.417l7.359,0c-.059-.747-.116-1.911-.175-3.245-1.389-.461-3.148-.555-4.383-1.173C2132.581,1442.843,2137.651,1434.151,2134.029,1426.181Z" transform="translate(-2116.294 -1418.659)"/></g></g><g transform="translate(0 0.005)"><g transform="translate(22.735 35.559)"><g transform="translate(0.679)"><rect class="d" width="2.798" height="2.352" transform="translate(0 0.065) rotate(-1.334)"/></g><g transform="translate(0.465 1.507)"><rect class="a" width="3.288" height="3.406" transform="matrix(1, -0.025, 0.025, 1, 0, 0.081)"/></g><g transform="translate(0 1.973)"><g transform="translate(2.8)"><path class="n" d="M2124.844,1441.031a1.206,1.206,0,0,0-1.211,1.211v1.109a1.213,1.213,0,0,0,1.213,1.213h0a1.213,1.213,0,0,0,1.213-1.213v-1.117a1.206,1.206,0,0,0-1.215-1.2Z" transform="translate(-2123.633 -1441.031)"/></g><g transform="translate(0 3.857)"><path class="o" d="M2121.967,1443.535a.613.613,0,0,0,.611.614c1.144,0,3.6,0,3.6,0l5.646,0v-.814l-9.859.015Z" transform="translate(-2121.964 -1443.33)"/></g><g transform="translate(0 1.091)"><path class="n" d="M2131.821,1444.47l-9.854.01,0-.943h0v-1.243a.612.612,0,0,1,.5-.6v.065a1.149,1.149,0,1,0,2.3,0v-.082l2.426.156v.061a.655.655,0,0,0,.117.406.468.468,0,0,0,.084.086,1.03,1.03,0,0,0,.507.211c.039.007.081.015.126.022.109.01.229.013.364.019l1.19-.005C2130.816,1442.636,2131.818,1443.238,2131.821,1444.47Z" transform="translate(-2121.964 -1441.681)"/></g></g></g><path class="p" d="M2136.133,1442.249c-.366-4.81-.747-9.787-1.16-14.729l-.011-.1a10.908,10.908,0,0,0-1.757-4.591l-.107-.161a8.373,8.373,0,0,0-5.179-3.671,36.255,36.255,0,0,0-5.388-.32h-.181c-.659-.007-1.341-.012-2.033-.015v.02c-.375,0-.71,0-1,0h-4.164v-.015h-6.736v3.505a3.841,3.841,0,0,0,3.837,3.835s6.611.008,11.632,0l2.148.087a2.107,2.107,0,0,1,1.006.718,3.936,3.936,0,0,1,.628,1.391c.408,4.892.784,9.83,1.151,14.612.181,2.389.369,9.958.56,12.416l7.359,0C2136.529,1452.587,2136.328,1444.828,2136.133,1442.249Z" transform="translate(-2108.414 -1418.661)"/><g class="q"><path class="r" d="M2127.78,1426.9c-4.274-4.985-17.641.523-18.089-8.243h-1.277v3.505a3.841,3.841,0,0,0,3.837,3.835s6.611.008,11.632,0l2.148.087a2.107,2.107,0,0,1,1.006.718,3.936,3.936,0,0,1,.628,1.391c.408,4.892.784,9.83,1.151,14.612.181,2.389.369,9.958.56,12.416l7.359,0c-.045-.572-.089-1.393-.134-2.339C2124.5,1450.942,2134.194,1433.318,2127.78,1426.9Z" transform="translate(-2108.414 -1418.661)"/></g></g></g></g><g transform="translate(2152.622 1416.183)"><path class="e" d="M2125.252,1399.763v32.293a1.225,1.225,0,0,1-.077.433,1.175,1.175,0,0,1-.175.351,1.215,1.215,0,0,1-.738.478,1,1,0,0,1-.233.025h-14.995a1.14,1.14,0,0,1-.206-.019,1.159,1.159,0,0,1-.356-.124,1.3,1.3,0,0,1-.661-1.144v-32.293a1.72,1.72,0,0,1,.027-.259,1.316,1.316,0,0,1,.426-.743,1.176,1.176,0,0,1,.77-.292l.621-.109,4.8-.854.363-.065,2.1-.374.039-.007,3.028.575.465.091,3.021.582.621.116a2.144,2.144,0,0,1,.634.3,1.2,1.2,0,0,1,.5.789A1.077,1.077,0,0,1,2125.252,1399.763Z" transform="translate(-2107.811 -1397.06)"/></g><g transform="translate(2152.622 1422.813)"><path class="s" d="M2125.252,1427.78v1.6a1.225,1.225,0,0,1-.077.433,1.175,1.175,0,0,1-.175.351,1.215,1.215,0,0,1-.738.478,1,1,0,0,1-.233.025h-14.995a1.14,1.14,0,0,1-.206-.019,1.159,1.159,0,0,1-.356-.124,1.3,1.3,0,0,1-.661-1.144v-28.32c.913-.414,1.805,2.114,1.9,2.762a34.283,34.283,0,0,1-.063,5.867c-.086,2.025.07,3.867,1.479,5.446a35.132,35.132,0,0,0,3.1,3.008c1.164.99,2.537,1.8,3.7,2.82a13.747,13.747,0,0,1,2.665,3.337c.756,1.25,1.307,3,2.886,3.242C2124.074,1427.631,2124.669,1427.7,2125.252,1427.78Z" transform="translate(-2107.811 -1401.012)"/></g><g transform="translate(2159.219 1406.072)"><path class="t" d="M2117.053,1402.413a2.654,2.654,0,0,1-2.655,2.654h0a2.652,2.652,0,0,1-2.656-2.654v-8.726a2.653,2.653,0,0,1,2.656-2.653h0a2.654,2.654,0,0,1,2.655,2.653Z" transform="translate(-2111.743 -1391.034)"/><g class="u"><path class="t" d="M2114.119,1401.8c.727-.435,1.95.79,2.935.616v-8.726a2.655,2.655,0,0,0-5.311,0v8.726a2.65,2.65,0,0,0,1.3,2.28C2112.673,1402.937,2112.448,1402.8,2114.119,1401.8Z" transform="translate(-2111.743 -1391.034)"/></g></g><g transform="translate(2157.504 1397.433)"><path class="v" d="M2121.781,1397.22a5.527,5.527,0,0,1-5.526,5.53h0a5.53,5.53,0,0,1-5.534-5.53v-5.805a5.53,5.53,0,0,1,5.534-5.53h0a5.528,5.528,0,0,1,5.526,5.53Z" transform="translate(-2110.721 -1385.885)"/></g><g transform="translate(2157.504 1397.433)"><path class="w" d="M2113.323,1396.1c-1.085-1.809-1.81-5.248.181-6.334,1.99-1.267,4.525,0,6.877-.725a2.611,2.611,0,0,1,1,.321,5.53,5.53,0,0,0-10.666,2.052v5.805a5.53,5.53,0,0,0,8.29,4.792A17.1,17.1,0,0,1,2113.323,1396.1Z" transform="translate(-2110.721 -1385.885)"/></g><g transform="translate(2153.365 1395.218)"><path class="x" d="M2123.437,1391.9s.957-7.831-6.654-7.305c-4.107-.025-4.107,2.458-4.107,2.458s-2.745-.1-3.543,1.715a13.722,13.722,0,0,0-.878,4.792c0,3.52,2.017,6.431,4.64,6.913a5.76,5.76,0,0,1-.468-2.285l-.032-2.929a7.544,7.544,0,0,1,.705,1.383c.463,1.146.617,1.609.617,1.037,0,0-1.543-8.219.826-8.312,1.943-.075,1.215.748,3.958.805,1.495.03,2.641-1.183,3.47-.97C2123.353,1389.552,2123.437,1391.9,2123.437,1391.9Z" transform="translate(-2108.254 -1384.565)"/></g><g transform="translate(2154.551 1404.178)"><path class="x" d="M2112.76,1389.905s.079,5.292,2.337,5.659a21.449,21.449,0,0,0,5.022.123,11.968,11.968,0,0,0,2.8-.747s1.533,6.488.4,7.122c-2.507,1.406-7.657.574-9.659-2.3a16.25,16.25,0,0,1-2.572-8.06l-2.119-1.416Z" transform="translate(-2108.961 -1389.905)"/></g><g transform="translate(2153.365 1397.983)"><path class="y" d="M2123.521,1403.191c-4.163,1.81-8.869-.544-10.861-4.707-.179-.542-1.808-1.085-2.352-1.81-2.352-2.352-1.267-6.334-.543-9.411a2.514,2.514,0,0,1,1.089-1.05,2.749,2.749,0,0,0-1.721,1.433,13.722,13.722,0,0,0-.878,4.792c0,3.4,1.879,6.226,4.368,6.852a15.839,15.839,0,0,0,1.51,2.978c2,2.871,7.152,3.7,9.659,2.3.351-.2.447-.951.411-1.9A3.214,3.214,0,0,1,2123.521,1403.191Z" transform="translate(-2108.254 -1386.213)"/></g><g transform="translate(2155.67 1404.701)"><path class="w" d="M2111.583,1393.6c-.589.245-1.374-.3-1.751-1.218s-.21-1.859.375-2.1,1.376.3,1.755,1.221S2112.17,1393.353,2111.583,1393.6Z" transform="translate(-2109.628 -1390.217)"/><g transform="translate(0.741 1.139)"><path class="t" d="M2110.96,1392.255c-.235.123-.579-.075-.767-.441s-.155-.76.079-.883.58.075.768.441S2111.193,1392.133,2110.96,1392.255Z" transform="translate(-2110.07 -1390.896)"/></g></g><g transform="translate(2161.469 1405.213)"><path class="x" d="M2114.445,1391.383a.7.7,0,1,1-.679-.861A.785.785,0,0,1,2114.445,1391.383Z" transform="translate(-2113.084 -1390.522)"/><g transform="translate(0.126 0.158)"><path class="z" d="M2113.714,1390.969a.286.286,0,1,1-.278-.353A.32.32,0,0,1,2113.714,1390.969Z" transform="translate(-2113.159 -1390.616)"/></g></g><g transform="translate(2163.61 1406.288)"><path class="t" d="M2115.28,1394.745h0a.906.906,0,0,1-.919-.817c.013-.778.193-1.168.206-1.948a.74.74,0,0,1,.713-.817h0a.74.74,0,0,1,.713.817c.013.78.193,1.17.206,1.948A.907.907,0,0,1,2115.28,1394.745Z" transform="translate(-2114.36 -1391.163)"/><g class="q" transform="translate(1.07 2.079)"><path class="aa" d="M2115.579,1392.87c0,.258-.131.466-.291.466s-.29-.208-.29-.466.131-.468.29-.468S2115.579,1392.612,2115.579,1392.87Z" transform="translate(-2114.998 -1392.402)"/></g></g><g transform="translate(2166.212 1405.213)"><path class="x" d="M2117.27,1391.383a.7.7,0,1,1-.681-.861A.784.784,0,0,1,2117.27,1391.383Z" transform="translate(-2115.911 -1390.522)"/><g transform="translate(0.125 0.158)"><path class="z" d="M2116.541,1390.969a.286.286,0,1,1-.279-.353A.319.319,0,0,1,2116.541,1390.969Z" transform="translate(-2115.985 -1390.616)"/></g></g><g class="ab" transform="translate(2160.013 1408.325)"><path class="ac" d="M2114.33,1393.367c-.1.352-.646.5-1.225.344s-.972-.575-.875-.926.648-.5,1.227-.344S2114.427,1393.016,2114.33,1393.367Z" transform="translate(-2112.216 -1392.377)"/></g><g class="ab" transform="translate(2166.016 1408.325)"><path class="ac" d="M2115.809,1393.367c.1.352.646.5,1.225.344s.97-.575.873-.926-.646-.5-1.225-.344S2115.712,1393.016,2115.809,1393.367Z" transform="translate(-2115.794 -1392.377)"/></g><g transform="translate(2162.895 1410.589)"><path class="ad" d="M2118.085,1393.726a4.3,4.3,0,0,1-.017.723,2.423,2.423,0,0,1-4.037.235,4.692,4.692,0,0,1-.1-.716Z" transform="translate(-2113.934 -1393.726)"/></g><g transform="translate(2163.079 1410.601)"><path class="z" d="M2117.826,1393.733a.34.34,0,0,1-.025.127,3.71,3.71,0,0,1-3.718.215.331.331,0,0,1-.039-.124Z" transform="translate(-2114.044 -1393.733)"/></g><g transform="translate(2160.56 1403.719)"><path class="x" d="M2115.2,1390.842a6.371,6.371,0,0,0-1.971,0,.606.606,0,0,1-.677-.46h0a.583.583,0,0,1,.532-.663,7.315,7.315,0,0,1,2.263,0,.582.582,0,0,1,.532.663h0A.607.607,0,0,1,2115.2,1390.842Z" transform="translate(-2112.542 -1389.632)"/></g><g transform="translate(2165.188 1403.719)"><path class="x" d="M2117.96,1390.842a6.371,6.371,0,0,0-1.971,0,.607.607,0,0,1-.678-.46h0a.582.582,0,0,1,.532-.663,7.314,7.314,0,0,1,2.263,0,.582.582,0,0,1,.532.663h0A.607.607,0,0,1,2117.96,1390.842Z" transform="translate(-2115.301 -1389.632)"/></g><g transform="translate(2137.203 1391.384)"><g transform="translate(0 4.304)"><rect class="d" width="3.954" height="2.283" transform="translate(0 3.005) rotate(-49.469)"/></g><g transform="translate(1.908)"><g transform="translate(2.298 3.599)"><path class="d" d="M2104.426,1384.741a.639.639,0,0,0-.866-.233l-2.43,1.413a1.978,1.978,0,0,0,.149.939c.084.171.618.233.618.233l2.3-1.487A.638.638,0,0,0,2104.426,1384.741Z" transform="translate(-2101.128 -1384.425)"/></g><path class="d" d="M2103.181,1388.225a33.015,33.015,0,0,0,2.11-3.949,2.472,2.472,0,0,0-.683-1.757c-.4-.414-1.7-.2-1.958-.007a15.755,15.755,0,0,0-2.678,3.434,1.143,1.143,0,0,0,.267,1.6l1.339.95A1.143,1.143,0,0,0,2103.181,1388.225Z" transform="translate(-2099.759 -1382.28)"/></g></g><g transform="translate(2129.147 1396.665)"><path class="e" d="M2093.879,1401.731c-.3,3.875.561,7.079,2.5,9.179,2.673,2.9,7.127,3.837,13.235,2.792a50.285,50.285,0,0,0,10.033-2.967,2.3,2.3,0,0,0-1.718-4.275,45.219,45.219,0,0,1-9.094,2.7c-3.081.525-7.139.715-9.074-1.378-1.259-1.361-1.651-4.151-1.05-7.466.883-4.913,6.733-12.194,6.733-12.194l-3.263-2.7s-7.051,8.77-8,14.07Q2093.967,1400.648,2093.879,1401.731Z" transform="translate(-2093.82 -1385.427)"/></g><g transform="translate(2112.183 1417.869)"><g transform="translate(5.416)"><path class="f" d="M2103.749,1425.518h-2.567V1408.39a7.767,7.767,0,0,0-7.758-7.76h-6.486v-2.565h6.486a10.337,10.337,0,0,1,10.325,10.325Z" transform="translate(-2086.937 -1398.065)"/></g><g transform="translate(61.332 76.766)"><rect class="f" width="25.603" height="2.313"/></g><g transform="translate(19.661 41.655)"><path class="f" d="M2139.764,1460.094l-3.648-35.343a2.07,2.07,0,0,0-2.061-1.859h-38.628v3.354h36.521a2.074,2.074,0,0,1,2.061,1.859l3.327,32.219Z" transform="translate(-2095.427 -1422.892)"/></g><g transform="translate(19.661 22.775)"><path class="n" d="M2129.369,1430.52h-33.942v-18.88h21.833a12.108,12.108,0,0,1,12.109,12.107Z" transform="translate(-2095.427 -1411.639)"/></g><g transform="translate(0 31.303)"><g transform="translate(0.697 0.697)"><path class="ae" d="M2132.568,1440.806l-.021-.64-19.189.69,18.943-3.131-.1-.637-22.321,3.689,19.173-12.009-.346-.546-16.266,10.188,14.838-12.176-.409-.5-17.484,14.352,10.594-19.984-.564-.3-8.993,16.958,6.758-17.966-.6-.229-7.963,21.18-.818-22.609-.644.022.694,19.177-3.129-18.931-.634.1,3.687,22.32-12.009-19.168-.546.341,10.188,16.262-12.178-14.831-.494.407,14.352,17.483-19.986-10.6-.3.569,16.962,8.993-17.971-6.76-.226.6,21.176,7.968-22.61.815.022.644,19.173-.693-18.928,3.128.105.636,22.32-3.686-19.171,12.009.342.543,16.256-10.184-14.824,12.172.406.5,17.487-14.354-10.6,19.986.57.3,8.99-16.96-6.758,17.966.6.228,7.963-21.17.816,22.6.644-.023-.694-19.188,3.133,18.944.636-.106-3.691-22.317,12.011,19.167.544-.342-10.189-16.262,12.178,14.833.5-.407-14.357-17.488,19.989,10.6.3-.569-16.962-8.994,17.967,6.76.229-.6-21.173-7.965Z" transform="translate(-2084.125 -1417.137)"/></g><g transform="translate(1.677 1.679)"><path class="ae" d="M2108.355,1464.2a23.175,23.175,0,1,1,9.012-1.985A23.134,23.134,0,0,1,2108.355,1464.2Zm-.762-43.866a20.632,20.632,0,1,0,20.985,20.273A20.653,20.653,0,0,0,2107.593,1420.334Z" transform="translate(-2084.709 -1417.723)"/></g><path class="f" d="M2108.626,1466.56a24.85,24.85,0,1,1,9.7-1.96A24.77,24.77,0,0,1,2108.626,1466.56Zm0-47.043a22.123,22.123,0,1,0,22.122,22.124A22.148,22.148,0,0,0,2108.626,1419.517Z" transform="translate(-2083.709 -1416.722)"/><g transform="translate(19.446 19.448)"><path class="f" d="M2106.242,1433.784a5.471,5.471,0,1,0-5.471,5.471A5.471,5.471,0,0,0,2106.242,1433.784Z" transform="translate(-2095.299 -1428.313)"/></g></g></g><g transform="translate(2112.183 1417.005)"><path class="n" d="M2095.858,1397.55H2085.7a1.991,1.991,0,1,0,0,3.981h10.157Z" transform="translate(-2083.709 -1397.55)"/></g><g transform="translate(2089.329 1424.075)"><path class="p" d="M2087.844,1413.133v-2.591a8.8,8.8,0,0,0-8.778-8.778h-.153a8.8,8.8,0,0,0-8.778,8.778l-.047,2.591Z" transform="translate(-2070.088 -1401.764)"/><path class="af" d="M2087.844,1413.133v-2.591a8.8,8.8,0,0,0-8.778-8.778h-.153a8.8,8.8,0,0,0-8.778,8.778l-.047,2.591Z" transform="translate(-2070.088 -1401.764)"/><g transform="translate(0 11.368)"><path class="p" d="M2072.6,1414.483h12.7l.848-5.943H2072.6Z" transform="translate(-2068.386 -1408.54)"/><g transform="translate(10.342 53.085)"><rect class="t" width="3.275" height="2.758" transform="matrix(1, -0.024, 0.024, 1, 0.791, 0.077)"/><rect class="m" width="3.856" height="3.993" transform="translate(0.579 1.82) rotate(-0.254)"/><g transform="translate(0 2.314)"><path class="ag" d="M2079.625,1441.558a1.414,1.414,0,0,0-1.419,1.418v1.3a1.424,1.424,0,0,0,1.424,1.424h0a1.421,1.421,0,0,0,1.419-1.424v-1.309a1.412,1.412,0,0,0-1.424-1.408Z" transform="translate(-2074.928 -1441.558)"/><path class="ah" d="M2076.252,1444.489a.713.713,0,0,0,.715.72h4.216l7.745-.005v-.95l-12.676.015Z" transform="translate(-2076.252 -1439.731)"/><path class="ag" d="M2088.928,1445.587l-12.676.015v-1.109h0v-1.457a.706.706,0,0,1,.581-.7v.076a1.348,1.348,0,1,0,2.7,0v-.093l2.843.188v.065a.8.8,0,0,0,.138.48c.024.028.059.062.1.1a1.23,1.23,0,0,0,.6.25.832.832,0,0,1,.143.02c.127.01.272.015.428.022l2.52-.007C2087.747,1443.437,2088.923,1444.145,2088.928,1445.587Z" transform="translate(-2076.252 -1441.043)"/></g></g><g transform="translate(3.249 53.085)"><rect class="t" width="3.279" height="2.758" transform="translate(0 0.077) rotate(-1.352)"/></g><g transform="translate(3.038 54.888)"><rect class="ai" width="3.852" height="3.993" transform="translate(0 0.017) rotate(-0.255)"/></g><g transform="translate(2.455 55.399)"><g transform="translate(3.278)"><path class="aj" d="M2074.926,1441.558a1.413,1.413,0,0,0-1.421,1.418l.005,1.3a1.418,1.418,0,0,0,1.416,1.424h0a1.423,1.423,0,0,0,1.424-1.424l-.007-1.309a1.408,1.408,0,0,0-1.418-1.408Z" transform="translate(-2073.505 -1441.558)"/></g><g transform="translate(0.005 4.523)"><path class="ak" d="M2071.554,1444.489a.712.712,0,0,0,.713.72h4.213l7.748-.005v-.95l-12.674.015Z" transform="translate(-2071.554 -1444.254)"/></g><g transform="translate(0 1.275)"><path class="aj" d="M2084.225,1445.587l-12.669.015v-1.109h0l0-1.457a.711.711,0,0,1,.592-.7v.076a1.343,1.343,0,1,0,2.686,0v-.093l2.846.188-.006.065a.855.855,0,0,0,.138.48,1.168,1.168,0,0,1,.1.1,1.3,1.3,0,0,0,.6.25.8.8,0,0,1,.147.02c.124.01.268.015.431.022l2.517-.007C2083.046,1443.437,2084.225,1444.145,2084.225,1445.587Z" transform="translate(-2071.551 -1442.318)"/></g></g><g transform="translate(0.001)"><path class="p" d="M2078.225,1462.089V1408.54h-8.137l1.535,53.549Z" transform="translate(-2070.088 -1408.54)"/></g><g class="al" transform="translate(0 0)"><path class="r" d="M2078.016,1460.344c-1.819.809-3.839-1.01-4.243-2.626-1.415-7.072-.809-13.941-.4-21.011.2-1.01-1.211-2.626-1.415-3.839-.784-8.238-.049-16.287-.19-24.328h-1.676l1.535,53.548h6.6v-1.842C2078.155,1460.277,2078.085,1460.311,2078.016,1460.344Z" transform="translate(-2070.088 -1408.54)"/></g><g transform="translate(9.62)"><path class="p" d="M2075.822,1462.089V1408.54h8.137l-1.536,53.549Z" transform="translate(-2075.822 -1408.54)"/></g><g class="al" transform="translate(9.619 5.926)"><path class="r" d="M2078.17,1455.729a36.526,36.526,0,0,1,0-21.82c-3.233-6.869,0-14.142-1.616-21.617a.992.992,0,0,0-.733-.2v47.6h6.6l.062-2.2C2080.454,1457.682,2078.708,1457.452,2078.17,1455.729Z" transform="translate(-2075.821 -1412.072)"/></g></g></g><g transform="translate(2104.378 1394.211)"><path class="t" d="M2101.228,1425.389c-1.443,1.235-.268-.027-1.732,1.189-5.674-6.362-18.062-26.988-20.406-39.784a2.334,2.334,0,0,1,3.594-2.426,2.563,2.563,0,0,1,1.1,1.723q.476,2.559,1.094,5.037a78.685,78.685,0,0,0,2.609,8.424C2090.7,1408.18,2095.04,1418.079,2101.228,1425.389Z" transform="translate(-2079.057 -1383.965)"/></g><g transform="translate(2104.378 1394.211)"><path class="am" d="M2084.877,1391.128a78.685,78.685,0,0,0,2.609,8.424q.619,1.664,1.312,3.29l-4.557,1.411a84.516,84.516,0,0,1-5.151-17.459,2.334,2.334,0,0,1,3.594-2.426,2.536,2.536,0,0,1,1.015,1.364,2.493,2.493,0,0,1,.084.359Q2084.259,1388.651,2084.877,1391.128Z" transform="translate(-2079.057 -1383.965)"/></g><g transform="translate(2108.324 1411.194)"><rect class="am" width="6.43" height="2.616" rx="0.412" transform="translate(0 1.902) rotate(-17.206)"/></g><g transform="translate(2124.003 1434.605)"><g transform="translate(1.301 3.173)"><path class="t" d="M2092.517,1410.171a.534.534,0,0,0-.748-.146h0a.536.536,0,0,0-.148.747l1.8,2.684a.54.54,0,0,0,.748.148h0a.539.539,0,0,0,.146-.748Z" transform="translate(-2091.53 -1409.931)"/></g><g transform="translate(3.27 1.564)"><path class="t" d="M2093.634,1409.14a.537.537,0,0,0-.762-.018h0a.536.536,0,0,0-.022.76l2.223,2.351a.536.536,0,0,0,.76.022h0a.542.542,0,0,0,.023-.763Z" transform="translate(-2092.703 -1408.972)"/></g><g transform="translate(2.232 0.356)"><path class="t" d="M2095.611,1408.792a.585.585,0,0,1-.535.633l-2.606.213a1.852,1.852,0,0,1-.384-.8c-.023-.173.348-.5.348-.5l2.545-.081A.585.585,0,0,1,2095.611,1408.792Z" transform="translate(-2092.084 -1408.252)"/></g><g transform="translate(2.61 2.737)"><path class="t" d="M2093.267,1409.871a.537.537,0,0,0-.758-.077h0a.538.538,0,0,0-.077.758l2.045,2.51a.542.542,0,0,0,.758.079h0a.542.542,0,0,0,.077-.76Z" transform="translate(-2092.31 -1409.671)"/></g><path class="t" d="M.637,0H3.024a.636.636,0,0,1,.636.636V3.025a.635.635,0,0,1-.635.635H.636A.636.636,0,0,1,0,3.024V.637A.637.637,0,0,1,.637,0Z" transform="matrix(0.775, -0.632, 0.632, 0.775, 0, 2.313)"/></g><g transform="translate(2088.208 1392.651)"><path class="an" d="M2089.432,1423.209a1.441,1.441,0,0,1-1.4,1.478h-17.216a1.438,1.438,0,0,1-1.4-1.478v-37.07a1.44,1.44,0,0,1,1.4-1.478l9.09-1.626,8.189,1.572a1.586,1.586,0,0,1,1.334,1.532Z" transform="translate(-2069.42 -1383.035)"/></g><g transform="translate(2088.208 1394.634)"><path class="am" d="M2073.3,1416.676c-.966-3.287,3.289-5.027,6.189-5.221.386,0,.773-.773.579-.773-4.061-.773-6.961-2.9-7.928-6.768a65.55,65.55,0,0,1-2.232-19.7,1.513,1.513,0,0,0-.488,1.121v37.07a1.438,1.438,0,0,0,1.4,1.478h17.216a1.441,1.441,0,0,0,1.4-1.478v-1.617C2083.356,1422.609,2075.6,1423.418,2073.3,1416.676Z" transform="translate(-2069.42 -1384.217)"/></g><g transform="translate(2088.479 1395.364)"><path class="am" d="M2073.386,1387.1a2.538,2.538,0,0,1-.139.832,81.809,81.809,0,0,0-2.611,10.787,59.266,59.266,0,0,1-.992-13.585,2.266,2.266,0,0,1,2.207-.332A2.45,2.45,0,0,1,2073.386,1387.1Z" transform="translate(-2069.581 -1384.652)"/></g><g transform="translate(2083.618 1394.326)"><path class="v" d="M2071.573,1429.948c-1.854.414-.5.486-2.359.874-3.24-14.867-3.777-30.572.82-45.086a2.384,2.384,0,0,1,3.08-1.552h0a2.481,2.481,0,0,1,1.394,3.131C2070.209,1401.008,2068.518,1415.935,2071.573,1429.948Z" transform="translate(-2066.684 -1384.033)"/></g><g transform="translate(2085.583 1439.724)"><g transform="translate(0.431 2.274)"><path class="v" d="M2069.188,1412.929a.536.536,0,0,0-.592-.48h0a.537.537,0,0,0-.48.591l.334,3.216a.54.54,0,0,0,.592.481h0a.538.538,0,0,0,.48-.591Z" transform="translate(-2068.112 -1412.446)"/></g><g transform="translate(2.924 1.775)"><path class="v" d="M2070.657,1412.543a.536.536,0,0,0-.663-.374h0a.537.537,0,0,0-.376.663l.861,3.117a.538.538,0,0,0,.663.376h0a.541.541,0,0,0,.377-.663Z" transform="translate(-2069.598 -1412.149)"/></g><g transform="translate(2.544 0.267)"><path class="v" d="M2072.579,1413.144a.584.584,0,0,1-.769.307l-2.4-1.032a1.834,1.834,0,0,1,.037-.889c.059-.163.542-.28.542-.28l2.286,1.121A.587.587,0,0,1,2072.579,1413.144Z" transform="translate(-2069.372 -1411.25)"/></g><g transform="translate(1.791 2.501)"><path class="v" d="M2069.99,1413.017a.538.538,0,0,0-.633-.424h0a.538.538,0,0,0-.424.634l.629,3.176a.543.543,0,0,0,.634.425h0a.54.54,0,0,0,.423-.634Z" transform="translate(-2068.923 -1412.582)"/></g><path class="v" d="M.636,0H3.023a.638.638,0,0,1,.638.638V3.023a.637.637,0,0,1-.637.637H.638A.638.638,0,0,1,0,3.023V.636A.636.636,0,0,1,.636,0Z" transform="translate(0 0.713) rotate(-11.232)"/></g><g transform="translate(2083.266 1394.326)"><path class="an" d="M2074.65,1387.315a80.206,80.206,0,0,0-3.22,15.141c-.074.637-.136,1.277-.193,1.915h-4.763c.067-.8.142-1.6.235-2.4a84.819,84.819,0,0,1,3.468-16.238,2.384,2.384,0,0,1,3.079-1.55A2.48,2.48,0,0,1,2074.65,1387.315Z" transform="translate(-2066.474 -1384.033)"/></g><g transform="translate(2082.538 1412.956)"><rect class="an" width="6.431" height="2.616" rx="0.412"/></g><g transform="translate(2096.358 1382.103)"><path class="t" d="M2080.032,1389.082a2.877,2.877,0,0,1-2.878,2.877h0a2.874,2.874,0,0,1-2.877-2.877v-9.458a2.875,2.875,0,0,1,2.877-2.876h0a2.877,2.877,0,0,1,2.878,2.876Z" transform="translate(-2074.277 -1376.748)"/><path class="ao" d="M2077.079,1386.8a9.091,9.091,0,0,1,2.953-.72v-6.461a2.877,2.877,0,0,0-5.755,0v9.458a2.871,2.871,0,0,0,1.406,2.471C2075.284,1389.649,2075.269,1387.892,2077.079,1386.8Z" transform="translate(-2074.277 -1376.748)"/></g><path class="v" d="M2085.157,1383.453a5.993,5.993,0,0,1-5.992,5.995h0a6,6,0,0,1-6-5.995v-6.292a5.993,5.993,0,0,1,6-5.993h0a5.99,5.99,0,0,1,5.987,5.765c0,.076,0,.151,0,.228Z" transform="translate(21.329 1.572)"/><path class="v" d="M2075.721,1375.251c-2.747,2.747-2.747,9.416,1.178,11.181a7.572,7.572,0,0,0,4.062.609,5.993,5.993,0,0,0,3.777-5.571v-6.292l0-.03C2081.67,1374.357,2077.976,1373.184,2075.721,1375.251Z" transform="translate(21.749 3.555)"/><path class="ap" d="M2077.319,1388.415c-3.925-1.765-3.925-8.434-1.178-11.181,2.255-2.067,5.95-.894,9.015-.1,0-.067,0-.133,0-.2a5.994,5.994,0,0,0-11.983.228v6.292a6,6,0,0,0,8.211,5.571A7.572,7.572,0,0,1,2077.319,1388.415Z" transform="translate(21.329 1.572)"/><path class="x" d="M2086.951,1377.682s1.037-8.487-7.213-7.917c-1.968.237-5.032-.423-8.292,4.521-.812,1.233-.951,3.6-.951,5.195,0,3.815,2.185,6.97,5.028,7.493a6.258,6.258,0,0,1-.508-2.476l-.03-2.846a5.506,5.506,0,0,1,.76,1.168c.5,1.243,1.1.683,1.1.064l-.015-4.5a11.43,11.43,0,0,1,.689-3.339c1.073.821.283,1.247,3.6,1.307C2085.441,1376.432,2086.951,1377.682,2086.951,1377.682Z" transform="translate(19.517 0.602)"/><path class="y" d="M2072.379,1383.466c-.785-1.178.587-2.354,1.373-3.139.2-.393.2-.982-.2-1.176a2.9,2.9,0,0,1-1.765-3.924,10.553,10.553,0,0,1,3.874-5.084,9.582,9.582,0,0,0-4.218,3.869c-.812,1.233-.951,3.6-.951,5.195,0,3.815,2.185,6.97,5.028,7.493a6.181,6.181,0,0,1-.4-1.317,7.293,7.293,0,0,1-1.176-.347A5.933,5.933,0,0,1,2072.379,1383.466Z" transform="translate(19.517 0.877)"/><g transform="translate(2092.578 1381.626)"><path class="w" d="M2074.274,1380.06c-.623.3-1.5-.247-1.968-1.215s-.339-2,.282-2.3,1.506.247,1.971,1.218S2074.9,1379.761,2074.274,1380.06Z" transform="translate(-2072.025 -1376.464)"/></g><g transform="translate(2093.359 1382.736)"><path class="t" d="M2073.574,1378.519c-.236.163-.632,0-.884-.371s-.267-.8-.032-.961.632.005.886.374S2073.809,1378.358,2073.574,1378.519Z" transform="translate(-2072.49 -1377.125)"/></g><g transform="translate(2098.795 1381.173)"><path class="x" d="M2077.2,1377.125a.758.758,0,1,1-.736-.931A.85.85,0,0,1,2077.2,1377.125Z" transform="translate(-2075.73 -1376.194)"/><g transform="translate(0.136 0.171)"><path class="z" d="M2076.413,1376.675a.309.309,0,1,1-.3-.379A.347.347,0,0,1,2076.413,1376.675Z" transform="translate(-2075.811 -1376.296)"/></g></g><g transform="translate(2099.806 1387.106)"><path class="x" d="M2080.433,1379.73a4.394,4.394,0,0,1-.059.711,2.389,2.389,0,0,1-3.987,0,4.564,4.564,0,0,1-.055-.711Z" transform="translate(-2076.332 -1379.73)"/><g transform="translate(0.181)"><path class="z" d="M2080.177,1379.73a.312.312,0,0,1-.034.124,3.661,3.661,0,0,1-3.671,0,.355.355,0,0,1-.032-.124Z" transform="translate(-2076.44 -1379.73)"/></g></g><g transform="translate(2101.116 1382.103)"><path class="t" d="M2078.11,1380.63h0a.983.983,0,0,1-1-.884c.013-.846.209-1.269.223-2.113a.8.8,0,0,1,.773-.886h0a.8.8,0,0,1,.773.886c.013.844.209,1.267.223,2.113A.984.984,0,0,1,2078.11,1380.63Z" transform="translate(-2077.113 -1376.748)"/><g class="q" transform="translate(1.124 2.443)"><path class="aa" d="M2078.411,1378.711c0,.279-.141.507-.314.507s-.313-.228-.313-.507.141-.507.313-.507S2078.411,1378.43,2078.411,1378.711Z" transform="translate(-2077.783 -1378.204)"/></g></g><g transform="translate(2097.566 1379.779)"><path class="x" d="M2077.992,1376.145l-2.555.317a.392.392,0,0,1-.436-.341h0a.392.392,0,0,1,.339-.438l2.557-.317a.393.393,0,0,1,.436.341h0A.393.393,0,0,1,2077.992,1376.145Z" transform="translate(-2074.997 -1375.363)"/></g><g transform="translate(2102.994 1379.886)"><path class="x" d="M2081.181,1376.315l-2.573-.1a.393.393,0,0,1-.375-.408h0a.392.392,0,0,1,.408-.376l2.572.106a.392.392,0,0,1,.376.406h0A.392.392,0,0,1,2081.181,1376.315Z" transform="translate(-2078.233 -1375.427)"/></g><g transform="translate(2103.936 1381.173)"><path class="x" d="M2080.268,1377.125a.757.757,0,1,1-.739-.931A.849.849,0,0,1,2080.268,1377.125Z" transform="translate(-2078.794 -1376.194)"/><g transform="translate(0.134 0.171)"><path class="z" d="M2079.476,1376.675a.309.309,0,1,1-.3-.379A.347.347,0,0,1,2079.476,1376.675Z" transform="translate(-2078.874 -1376.296)"/></g></g><g class="ab" transform="translate(2097.219 1384.545)"><path class="ac" d="M2077.08,1379.278c-.105.379-.7.547-1.329.373s-1.05-.624-.945-1.005.7-.547,1.327-.373S2077.186,1378.9,2077.08,1379.278Z" transform="translate(-2074.791 -1378.204)"/></g><g class="ab" transform="translate(2103.724 1384.545)"><path class="ac" d="M2078.684,1379.278c.106.379.7.547,1.327.373s1.052-.624.946-1.005-.7-.547-1.329-.373S2078.578,1378.9,2078.684,1379.278Z" transform="translate(-2078.667 -1378.204)"/></g><path class="x" d="M2061.641,1381.088a25.665,25.665,0,0,1,.752-5.329h5.451a9.223,9.223,0,0,0,1.039,4.488c1.416,2.841,3.119,5.185,3.008,8.538a7.256,7.256,0,0,1-3.679,6.242c-1.7.815-4.062,1.28-5.721.127a.362.362,0,0,1,.062-.656,10.508,10.508,0,0,0,1.5-1.376c1.062-1.144.242-3.4-.311-4.6C2062.609,1386.046,2061.372,1383.9,2061.641,1381.088Z" transform="translate(13.49 4.684)"/><g transform="translate(2079.304 1394.869)"><g transform="translate(6.27 39.535)"><g transform="translate(0.822 4.25)"><path class="v" d="M2069.834,1412.406a.526.526,0,0,0-.655-.359h0a.525.525,0,0,0-.359.653l.881,3.04a.53.53,0,0,0,.655.362h0a.529.529,0,0,0,.359-.654Z" transform="translate(-2068.028 -1409.388)"/><path class="v" d="M2071.184,1411.78a.529.529,0,0,0-.707-.247h0a.527.527,0,0,0-.247.7l1.373,2.854a.524.524,0,0,0,.7.247h0a.529.529,0,0,0,.25-.7Z" transform="translate(-2067.093 -1409.757)"/><path class="v" d="M2073.132,1412.025a.572.572,0,0,1-.688.429l-2.493-.577a1.807,1.807,0,0,1-.119-.862c.028-.166.473-.364.473-.364l2.4.683A.573.573,0,0,1,2073.132,1412.025Z" transform="translate(-2067.339 -1410.32)"/><path class="v" d="M2070.623,1412.351a.524.524,0,0,0-.683-.3h0a.527.527,0,0,0-.3.684l1.159,2.951a.533.533,0,0,0,.685.3h0a.531.531,0,0,0,.3-.686Z" transform="translate(-2067.483 -1409.395)"/><path class="v" d="M.625,0H2.96a.624.624,0,0,1,.624.624V2.961a.622.622,0,0,1-.622.622H.624A.624.624,0,0,1,0,2.959V.625A.625.625,0,0,1,.625,0Z" transform="translate(0 1.311) rotate(-21.452)"/></g><path class="v" d="M2069.651,1408.51a.935.935,0,0,0-1.21-.525h0a.935.935,0,0,0-.526,1.21l2.047,5.2a.932.932,0,0,0,1.21.525h0a.933.933,0,0,0,.527-1.208Z" transform="translate(-2067.85 -1407.92)"/></g><path class="aq" d="M2074.886,1427.232c-1.715.721-2.574,1.077-4.3,1.775a81.589,81.589,0,0,1-5.768-42.58,2.331,2.331,0,0,1,2.7-2.03h0a2.426,2.426,0,0,1,1.887,2.774A76.962,76.962,0,0,0,2074.886,1427.232Z" transform="translate(-2064.113 -1384.357)"/></g><g transform="translate(2067.162 1444.053)"><g transform="translate(8.83 0.651)"><path class="t" d="M2068.619,1462.4l.773-44.709a3.627,3.627,0,1,0-7.253,0l2.73,43.924Z" transform="translate(-2062.139 -1414.059)"/></g><path class="ar" d="M2072.439,1447.624c.391-.213.335-.044.34-.636.013-.891-4.267-3.762-4.767-4.149-3.543-2.757-3.85-1.752-3.874-1.715a2.641,2.641,0,0,0-1.064,3.085c.559,1.636,2.565.24,3.433,1.679C2067.807,1448.029,2071.339,1447.946,2072.439,1447.624Z" transform="translate(-2052.767 -1395.204)"/><path class="ar" d="M2064.115,1446.4h-.732l-.32-3.436h1.22Z" transform="translate(-2052.681 -1393.815)"/><path class="t" d="M2067.372,1442.848s2.847,1.863,2.76,2.673c-.075.668-5.429-1.773-6-2.193a1.54,1.54,0,0,1-.513-1.9,2,2,0,0,1,2.49-.614A4.093,4.093,0,0,1,2067.372,1442.848Z" transform="translate(-2052.392 -1395.417)"/><path class="v" d="M2063.262,1461.294l.765-44.048a3.575,3.575,0,1,0-7.151,0l2.688,43.274Z" transform="translate(-2056.876 -1413.671)"/><path class="p" d="M2067.319,1447.624c.393-.213.333-.044.341-.636.01-.891-4.269-3.762-4.767-4.149-3.545-2.757-3.853-1.752-3.879-1.715a2.64,2.64,0,0,0-1.061,3.085c.555,1.636,2.562.24,3.435,1.679C2062.685,1448.029,2066.213,1447.946,2067.319,1447.624Z" transform="translate(-2056.239 -1395.204)"/><path class="p" d="M2058.992,1446.4h-.733l-.316-3.436h1.22Z" transform="translate(-2056.153 -1393.815)"/><path class="v" d="M2062.25,1442.848s2.844,1.863,2.758,2.673c-.074.668-5.427-1.773-6-2.193a1.539,1.539,0,0,1-.511-1.9,2.007,2.007,0,0,1,2.491-.614A4.085,4.085,0,0,1,2062.25,1442.848Z" transform="translate(-2055.865 -1395.417)"/></g><g transform="translate(2066.528 1424.03)"><path class="as" d="M2073.377,1412.544v-2.461a8.369,8.369,0,0,0-8.344-8.345h-.146a8.369,8.369,0,0,0-8.344,8.345l-.045,2.461Z" transform="translate(-2056.498 -1401.737)"/><g transform="translate(4.004 10.807)"><path class="at" d="M2058.885,1413.827h12.069l.806-5.649h-12.875Z" transform="translate(-2058.885 -1408.178)"/></g></g><g transform="translate(2063.728 1393.596)"><path class="au" d="M2072.449,1392.119a5.5,5.5,0,1,0-5.478,5.946A5.722,5.722,0,0,0,2072.449,1392.119Z" transform="translate(-2050.314 -1381.853)"/><path class="au" d="M2076.871,1440.834c-.07,1.513-.2,3.105-.395,4.82-.245,2.186-19.31,2.431-19.931.342-1.391-4.657-2.264-19.367-1.325-24.065.369-1.869,1.979-5.969,3.318-9.986.084-.267.175-.532.259-.791.227-.684.439-1.357.634-2.011a25.442,25.442,0,0,0,1.015-4.683,2.77,2.77,0,0,0,.02-.362,75.62,75.62,0,0,0-1.081-8.591v-.013c-.563-3.435-1.191-6.851-1.475-8.371-.045-.279-.09-.485-.118-.628s-.038-.206-.038-.206a1.242,1.242,0,0,1,1.209-1.282l4.891-.879,2.988-.53,7.1,1.357a3.688,3.688,0,0,1,.408.156,1.351,1.351,0,0,1,.374.272,1.18,1.18,0,0,1,.376.906v8.738c-.013.188-.039.382-.059.57,0,0-1.778,8.389-1.559,11.132.059.777.161,1.721.291,2.8.091.77.2,1.617.324,2.523.02.149.039.3.059.46.025.24.063.485.1.731q.194,1.483.408,3.131c.057.394.1.782.154,1.189C2075.966,1426.3,2077.31,1432.159,2076.871,1440.834Z" transform="translate(-2054.829 -1383.598)"/><path class="av" d="M2076.871,1430.372c-.07,1.513-.2,3.105-.395,4.82-.245,2.186-19.31,2.431-19.931.342-1.391-4.657-2.264-19.367-1.325-24.065.369-1.869,1.979-5.969,3.318-9.986a22.56,22.56,0,0,0,2.73.231c1.708.072,2.594-.8,3.978-1.695,1.541-.99,1.371.3,2.879.659a6.361,6.361,0,0,0,4.522-1.029,4.435,4.435,0,0,1,1.131-.582.755.755,0,0,1,.867.3c.517.679.052,1.9-.484,2.684a3.16,3.16,0,0,1-.479.555c-1.735,1.515-5.421,1.5-7.621,1.606-2,.1-4.988-.519-6.146,1.486a16.555,16.555,0,0,0-.963,3.074,15.961,15.961,0,0,0-1.171,4.153,78.966,78.966,0,0,0-.408,9.975c.129,2.911-.045,5.783,1.178,8.493,1.034,2.277,5.219,6.062,7.678,3.978,2.039-1.727,4.528-2.386,6.56-4.191A4.3,4.3,0,0,1,2076.871,1430.372Z" transform="translate(-2054.829 -1373.136)"/></g><g transform="translate(2073.31 1383.655)"><path class="t" d="M2066.329,1390.08a2.894,2.894,0,0,1-2.895,2.894h0a2.891,2.891,0,0,1-2.894-2.894v-9.515a2.891,2.891,0,0,1,2.894-2.893h0a2.893,2.893,0,0,1,2.895,2.893Z" transform="translate(-2060.54 -1377.673)"/><path class="ao" d="M2063.359,1387.79a9.1,9.1,0,0,1,2.97-.725v-6.5a2.894,2.894,0,0,0-5.789,0v9.515a2.886,2.886,0,0,0,1.415,2.485C2061.553,1390.649,2061.537,1388.883,2063.359,1387.79Z" transform="translate(-2060.54 -1377.673)"/></g><path class="aw" d="M2060.466,1374.714c2.028-2.678,4.8-3.991,6.2-2.933s.881,4.087-1.146,6.765-4.8,3.987-6.2,2.928S2058.441,1377.39,2060.466,1374.714Z" transform="translate(11.412 1.74)"/><g transform="translate(2069.508 1383.176)"><path class="v" d="M2060.537,1381c-.628.3-1.515-.247-1.98-1.221s-.341-2.012.283-2.312,1.515.248,1.983,1.225S2061.162,1380.7,2060.537,1381Z" transform="translate(-2058.274 -1377.387)"/><path class="t" d="M2059.833,1379.456c-.237.163-.636-.005-.889-.374s-.269-.8-.032-.967.637.005.891.374S2060.069,1379.291,2059.833,1379.456Z" transform="translate(-2057.957 -1376.936)"/></g><path class="x" d="M2074.666,1379.861a9.235,9.235,0,0,1-.083,1.227,8.727,8.727,0,0,1-.194,1.012,9.11,9.11,0,0,1-12.031,6.253h0a9.079,9.079,0,0,1-5.847-7.924c-.014-.188-.02-.377-.02-.567a9.083,9.083,0,0,1,9.087-9.075,8.894,8.894,0,0,1,2.275.289,7.631,7.631,0,0,1,.8.24,9.112,9.112,0,0,1,6.018,8.547Z" transform="translate(10.023 1.313)"/><g transform="translate(2071.296 1374.021)"><path class="v" d="M2059.34,1378.025v6.4a6.044,6.044,0,0,0,1.787,4.305,5.532,5.532,0,0,0,.73.622,6.091,6.091,0,0,0,9.676-4.928v-6.4c0-.079-.007-.156-.007-.233a6.1,6.1,0,0,0-12.186.233Z" transform="translate(-2059.34 -1371.931)"/></g><g transform="translate(2077.284 1389.392)"><path class="x" d="M2066.52,1381.2a1.867,1.867,0,0,1-3.611,0c0-.017.046-.032.138-.043a23.546,23.546,0,0,1,3.336,0C2066.474,1381.164,2066.523,1381.179,2066.52,1381.2Z" transform="translate(-2062.909 -1381.093)"/></g><g transform="translate(2077.422 1389.392)"><path class="ai" d="M2066.327,1381.152l-.006.012a2.905,2.905,0,0,1-3.322,0l-.007-.012A23.543,23.543,0,0,1,2066.327,1381.152Z" transform="translate(-2062.991 -1381.093)"/></g><g transform="translate(2074.018 1381.28)"><g transform="translate(1.65 1.315)"><path class="x" d="M2063.446,1377.987a.77.77,0,1,1-.75-.946A.865.865,0,0,1,2063.446,1377.987Z" transform="translate(-2061.946 -1377.041)"/><g transform="translate(0.141 0.46)"><path class="ai" d="M2062.643,1377.7a.315.315,0,1,1-.307-.388A.352.352,0,0,1,2062.643,1377.7Z" transform="translate(-2062.03 -1377.315)"/></g></g><g transform="translate(4.254 3.28)"><path class="t" d="M2064.267,1381.576h0a.8.8,0,0,1-.769-.767c.012-.733.161-1.1.173-1.831.007-.421.22-.767.6-.767h0c.374,0,.589.345.6.767.01.732.161,1.1.171,1.831A.8.8,0,0,1,2064.267,1381.576Z" transform="translate(-2063.498 -1378.212)"/><g class="q" transform="translate(0.768 1.931)"><path class="aa" d="M2064.594,1379.878c0,.285-.143.515-.319.515s-.319-.23-.319-.515.142-.515.319-.515S2064.594,1379.594,2064.594,1379.878Z" transform="translate(-2063.956 -1379.363)"/></g></g><g transform="translate(6.877 1.315)"><path class="x" d="M2066.557,1377.987a.769.769,0,1,1-.75-.946A.863.863,0,0,1,2066.557,1377.987Z" transform="translate(-2065.061 -1377.041)"/><g transform="translate(0.136 0.46)"><path class="ai" d="M2065.755,1377.7a.315.315,0,1,1-.306-.388A.352.352,0,0,1,2065.755,1377.7Z" transform="translate(-2065.142 -1377.315)"/></g></g><g class="ax" transform="translate(0 4.259)"><path class="ac" d="M2063.5,1380.4a1.292,1.292,0,1,1-.909-1.551A1.272,1.272,0,0,1,2063.5,1380.4Z" transform="translate(-2060.963 -1378.796)"/></g><g class="ax" transform="translate(6.544 4.259)"><path class="ac" d="M2067.4,1380.4a1.292,1.292,0,1,1-.909-1.551A1.271,1.271,0,0,1,2067.4,1380.4Z" transform="translate(-2064.863 -1378.796)"/></g><path class="ay" d="M2063.234,1376.259a5.539,5.539,0,0,0-1.419.326v.137a10.83,10.83,0,0,1,1.512.149s.379.089.416-.165S2063.7,1376.287,2063.234,1376.259Z" transform="translate(-2060.385 -1376.257)"/><path class="ay" d="M2065.605,1376.261a5.63,5.63,0,0,1,1.4.4l-.009.138a10.7,10.7,0,0,0-1.517.071s-.383.069-.408-.185S2065.138,1376.264,2065.605,1376.261Z" transform="translate(-2058.179 -1376.255)"/><path class="x" d="M2061.73,1377.65a1.259,1.259,0,0,1,1.784,0S2062.733,1376.034,2061.73,1377.65Z" transform="translate(-2060.442 -1375.8)"/><path class="x" d="M2065.115,1377.6a1.26,1.26,0,0,1,1.783,0S2066.118,1375.991,2065.115,1377.6Z" transform="translate(-2058.148 -1375.83)"/></g><path class="x" d="M2060.394,1374.613c2.05-2.706,4.855-4.033,6.269-2.963s.889,4.131-1.158,6.835-4.854,4.032-6.265,2.961S2058.347,1377.319,2060.394,1374.613Z" transform="translate(11.349 1.648)"/><path class="x" d="M2070.258,1379.528a9.235,9.235,0,0,1-.083,1.227,8.418,8.418,0,0,1-4.7-2.763c-2.327-2.471-3.171-5.458-1.882-6.667a.59.59,0,0,1,.047-.046,7.344,7.344,0,0,1,6.618,8.25Z" transform="translate(14.43 1.647)"/><path class="x" d="M2064,1375.622a4.527,4.527,0,0,0-2.792,2.77c-1.362-.135-.428-7.107-1.121-6.03-4.879,7.582-4.587,11.9-4.785,13.958-.272,2.809.517,4.955.472,7.673-.067,4.166,4.4,7.082,6.1,6.268a7.262,7.262,0,0,0,3.679-6.243c.112-3.354-1.592-5.7-3.008-8.538-1.632-3.275-1.559-7.114,1.666-9.409A.25.25,0,0,0,2064,1375.622Z" transform="translate(9.179 2.305)"/><g transform="translate(2069.348 1383.054)"><path class="v" d="M2060.466,1380.971c-.634.3-1.532-.252-2-1.235s-.344-2.033.287-2.339,1.532.252,2,1.238S2061.1,1380.667,2060.466,1380.971Z" transform="translate(-2058.179 -1377.315)"/><path class="t" d="M2059.755,1379.406c-.242.165-.644-.005-.9-.377s-.271-.812-.033-.977.644,0,.9.378S2059.993,1379.241,2059.755,1379.406Z" transform="translate(-2057.858 -1376.858)"/></g><path class="az" d="M2059.2,1402.882c-1.186-2.406-1.035-7.819-.171-12.421-.577-.056-1.151-.118-1.72-.168-.879-.074-1.772-.109-2.661-.166-.955,5.223-1.057,11.238.643,14.683a8.554,8.554,0,0,0,2.063,2.74c1.091-.993,2.344-1.866,3.418-2.931A3.33,3.33,0,0,1,2059.2,1402.882Z" transform="translate(8.312 14.423)"/><g transform="translate(2062.338 1399.025)"><path class="ba" d="M2058.763,1403.523c4.9,6,11.51,8.708,14.761,6.049s1.913-9.674-2.987-15.671-11.511-8.7-14.763-6.047S2053.864,1397.529,2058.763,1403.523Z" transform="translate(-2054.001 -1386.834)"/></g><g transform="translate(2065.815 1404.762)"><path class="bb" d="M2067.959,1390.253c.4.424.79.866,1.174,1.331,4.9,6,6.235,13.011,2.987,15.671s-9.859-.052-14.761-6.049c-.463-.564-.883-1.147-1.285-1.73A12.406,12.406,0,0,0,2067.959,1390.253Z" transform="translate(-2056.073 -1390.253)"/></g><g transform="translate(2062.342 1399.027)"><path class="a" d="M2055.773,1387.854c3-2.448,8.849-.331,13.588,4.716a12.406,12.406,0,0,1-11.886,9.223C2053.661,1396.236,2052.833,1390.261,2055.773,1387.854Z" transform="translate(-2054.003 -1386.835)"/></g><g transform="translate(2063.431 1400.167)"><path class="bc" d="M2055.746,1394.859a4.412,4.412,0,1,0,.465-6.392A4.542,4.542,0,0,0,2055.746,1394.859Z" transform="translate(-2054.652 -1387.514)"/></g><g transform="translate(2064.319 1400.632)"><path class="x" d="M2058.213,1388.054a3.1,3.1,0,0,1,1.317,2.373.244.244,0,0,1-.463.134c-.242-.587-1.468-.059-1.957-.062a2.348,2.348,0,0,1-1.793-.564C2054.679,1389.148,2056.405,1387.063,2058.213,1388.054Z" transform="translate(-2055.182 -1387.792)"/></g><g transform="translate(2065.665 1405.52)"><g transform="translate(14.348)"><rect class="v" width="3.632" height="2.099" transform="matrix(0.504, -0.864, 0.864, 0.504, 0, 7.851)"/><g transform="translate(0.489)"><path class="v" d="M2067.073,1394.359a.537.537,0,0,0,.055.753h0a.538.538,0,0,0,.75-.055l2.087-2.418a.531.531,0,0,0-.056-.753h0a.531.531,0,0,0-.75.057Z" transform="translate(-2063.392 -1389.991)"/><path class="v" d="M2065.8,1393.69a.533.533,0,0,0,.183.73h0a.532.532,0,0,0,.733-.178l1.656-2.728a.535.535,0,0,0-.178-.733h0a.537.537,0,0,0-.733.181Z" transform="translate(-2064.219 -1390.705)"/><path class="v" d="M2065.211,1391.745a.579.579,0,0,1,.742.347l.877,2.421a1.786,1.786,0,0,1-.66.576c-.159.069-.572-.2-.572-.2l-.737-2.4A.576.576,0,0,1,2065.211,1391.745Z" transform="translate(-2064.827 -1390.024)"/><path class="v" d="M2066.593,1393.8a.53.53,0,0,0,.125.741h0a.533.533,0,0,0,.742-.124l1.856-2.6a.531.531,0,0,0-.127-.745h0a.531.531,0,0,0-.742.124Z" transform="translate(-2063.697 -1390.524)"/><path class="v" d="M.629,0h2.36a.626.626,0,0,1,.626.626V2.985a.629.629,0,0,1-.629.629H.628A.628.628,0,0,1,0,2.985V.629A.629.629,0,0,1,.629,0Z" transform="translate(0.29 4.733) rotate(-54.464)"/></g></g><g transform="translate(0 5.385)"><path class="az" d="M2060.343,1402.226a3.015,3.015,0,0,0,.324-.017c3.3-.319,8.422-5.312,9.847-8.3l3.656,2.168c-1.673,3.5-7.523,9.929-13.1,10.468-.233.023-.465.035-.7.039a6.534,6.534,0,0,1-4.386-1.606c1.089-.993,2.344-1.866,3.418-2.931A2.31,2.31,0,0,0,2060.343,1402.226Z" transform="translate(-2055.984 -1393.914)"/></g></g><g transform="translate(2208.418 1368.848)"><g transform="translate(13.615 52.87)"><g transform="translate(0 67.727)"><rect class="l" width="2.548" height="3.027" transform="translate(7.898 2.548) rotate(-88.643)"/><rect class="bd" width="3.69" height="3.564" transform="translate(7.6 5.357) rotate(-89.746)"/><g transform="translate(0 2.139)"><path class="o" d="M2160.9,1444.708a.659.659,0,0,1-.661.665h-3.9l-7.158,0v-.877l11.715.013Z" transform="translate(-2149.181 -1440.312)"/><path class="be" d="M2151.614,1444.212l2.33.007c.144-.007.277-.012.394-.02a.667.667,0,0,1,.131-.019,1.141,1.141,0,0,0,.552-.231,1.22,1.22,0,0,0,.091-.094.736.736,0,0,0,.127-.443v-.112a1.314,1.314,0,0,1,2.621-.121h.006v.087a1.246,1.246,0,0,0,2.492,0v-.07a.652.652,0,0,1,.537.647v2.371l-11.715-.014C2149.186,1444.866,2150.273,1444.212,2151.614,1444.212Z" transform="translate(-2149.181 -1442)"/></g></g><g transform="translate(24.018 67.727)"><rect class="l" width="2.548" height="3.027" transform="translate(7.898 2.548) rotate(-88.643)"/><rect class="bf" width="3.69" height="3.563" transform="matrix(0.004, -1, 1, 0.004, 7.6, 5.357)"/><g transform="translate(0 2.139)"><path class="o" d="M2175.212,1444.708a.66.66,0,0,1-.663.665h-3.9l-7.158,0v-.877l11.716.013Z" transform="translate(-2163.496 -1440.312)"/><path class="be" d="M2165.929,1444.212l2.33.007c.144-.007.277-.012.395-.02a.667.667,0,0,1,.131-.019,1.155,1.155,0,0,0,.554-.231c.035-.035.067-.067.089-.094a.738.738,0,0,0,.127-.443v-.112a1.314,1.314,0,0,1,2.621-.121h.007v.087a1.247,1.247,0,0,0,2.493,0v-.07a.654.654,0,0,1,.537.647v2.371l-11.716-.014C2163.5,1444.866,2164.588,1444.212,2165.929,1444.212Z" transform="translate(-2163.496 -1442)"/></g></g><path class="r" d="M2152.313,1468.526h7.965c-.017-.359-.034-.735-.04-1.119-.54-14.572.752-39.062,6.738-50.373a1.779,1.779,0,0,1,.148-.238h.008c.6-.792,1.624-.416,1.633.686.091,13.463,3.765,38.449,7.809,51.044h8.414c-3.758-11.493-6.4-33.114-6.4-49.2,0-2.238.048-4.371.154-6.355l-.048-2.876a9.725,9.725,0,0,0-9.663-9.736h-.171a9.722,9.722,0,0,0-9.664,9.591c-.317.849-.621,1.649-.914,2.3C2152.722,1424.441,2151.382,1452.786,2152.313,1468.526Z" transform="translate(-2147.242 -1400.358)"/><path class="af" d="M2171.934,1458.327c1.634-6.535-4.084-13.885-3.267-19.6,0-9.8-3.268-20.42,0-31.04a6.577,6.577,0,0,1,.151-2.809,9.766,9.766,0,0,1,.25,2.163l.05,2.873c-.879,16.226,1.968,42.462,6.25,55.559h-8.417c-.24-.749-.479-1.542-.715-2.371C2169.105,1462.849,2171.489,1461.439,2171.934,1458.327Z" transform="translate(-2137.621 -1397.298)"/><path class="af" d="M2152.159,1460.417c.025.5.051,1,.074,1.47h7.965c-.017-.359-.034-.735-.04-1.119-.54-14.572.752-39.062,6.738-50.373a1.779,1.779,0,0,1,.148-.238c-3.357,1.9-5.841,15.006-7.139,22.758-1.429,8.552-2.107,17.889-3.75,24.283A5.836,5.836,0,0,1,2152.159,1460.417Z" transform="translate(-2147.162 -1393.719)"/><path class="bg" d="M2156.3,1410.159v-.061a9.732,9.732,0,0,1,9.667-9.74h.169a9.732,9.732,0,0,1,9.667,9.74l0,.061Z" transform="translate(-2144.356 -1400.359)"/></g><g transform="translate(0 23.552)"><g transform="translate(4.489)"><path class="t" d="M2143.742,1425.141c1.433,1.406.285-.01,1.742,1.377,6.439-6.3,20.978-27.157,24.367-40.482a2.465,2.465,0,0,0-3.616-2.813,2.688,2.688,0,0,0-1.168,1.366,2.966,2.966,0,0,0-.112.372q-.686,2.663-1.515,5.23a83.059,83.059,0,0,1-3.355,8.7C2156.079,1407.752,2150.792,1417.878,2143.742,1425.141Z" transform="translate(-2143.742 -1382.885)"/></g><g transform="translate(19.212)"><path class="bh" d="M2157.492,1390.19a83.06,83.06,0,0,1-3.356,8.7q-.77,1.709-1.619,3.374l4.7,1.815a89.219,89.219,0,0,0,6.683-18.04,2.465,2.465,0,0,0-3.616-2.813,2.686,2.686,0,0,0-1.168,1.366,2.926,2.926,0,0,0-.112.372Q2158.32,1387.624,2157.492,1390.19Z" transform="translate(-2152.517 -1382.885)"/></g><path class="bi" d="M.436,0H6.36A.435.435,0,0,1,6.8.435V2.329a.436.436,0,0,1-.436.436H.436A.436.436,0,0,1,0,2.329V.436A.436.436,0,0,1,.436,0Z" transform="matrix(-0.933, -0.36, 0.36, -0.933, 24.326, 22.378)"/><g transform="translate(0 41.149)"><g transform="translate(2.377 3.416)"><path class="t" d="M2144.7,1409.668a.567.567,0,0,1,.8-.1h0a.569.569,0,0,1,.1.8l-2.093,2.7a.573.573,0,0,1-.8.1h0a.569.569,0,0,1-.1-.8Z" transform="translate(-2142.483 -1409.446)"/></g><g transform="translate(0 1.578)"><path class="t" d="M2143.761,1408.5a.568.568,0,0,1,.805.035h0a.568.568,0,0,1-.033.8l-2.51,2.319a.568.568,0,0,1-.8-.032h0a.573.573,0,0,1,.029-.807Z" transform="translate(-2141.066 -1408.35)"/></g><g transform="translate(1.104 0.206)"><path class="t" d="M2141.732,1408.062a.617.617,0,0,0,.519.7l2.731.413a1.932,1.932,0,0,0,.463-.819c.039-.18-.33-.554-.33-.554l-2.676-.267A.619.619,0,0,0,2141.732,1408.062Z" transform="translate(-2141.725 -1407.533)"/></g><g transform="translate(0.787 2.862)"><path class="t" d="M2144.025,1409.3a.568.568,0,0,1,.805-.027h0a.57.57,0,0,1,.027.805l-2.335,2.5a.573.573,0,0,1-.807.027h0a.571.571,0,0,1-.025-.805Z" transform="translate(-2141.536 -1409.116)"/></g><g transform="translate(1.614)"><path class="t" d="M.674,0H3.2a.672.672,0,0,1,.672.672V3.2a.671.671,0,0,1-.671.671H.673A.673.673,0,0,1,0,3.195V.674A.674.674,0,0,1,.674,0Z" transform="translate(0 2.825) rotate(-46.923)"/></g></g></g><g transform="translate(22.414 21.128)"><path class="bi" d="M2176.809,1391.654s6.5,25.292,1.24,30.99c-3.513,3.805-16.892,4.34-20.7.827-5.748-5.305-1.251-31.26-1.251-31.26a10.383,10.383,0,0,1,11.188-10.738A10.539,10.539,0,0,1,2176.809,1391.654Z" transform="translate(-2154.426 -1381.441)"/><path class="bj" d="M2174.934,1417.157c5.718-4.9,1.089-7.968-.545-13.686a2.349,2.349,0,0,0,2.179-1.834c0-6.535-5.718-9.8-6.535-15.52-.569-1.708.45-3.017,1.948-3.654a10.768,10.768,0,0,1,4.723,8.5s6.5,25.292,1.24,30.99c-3.513,3.805-16.892,4.34-20.7.827-1.5-1.386-2.3-4.185-2.666-7.557C2160.8,1417.365,2168.207,1422.389,2174.934,1417.157Z" transform="translate(-2154.321 -1380.747)"/></g><g transform="translate(19.616)"><g transform="translate(6.099 8.833)"><path class="t" d="M2159.759,1388.548a3.418,3.418,0,0,0,2.933,3.339h0c1.651.144,3.164-1.513,3.042-3.676a23.048,23.048,0,0,0-3.637-12.184c-1.082-1.874-3.258-2.431-4.559-1.406h0a3.418,3.418,0,0,0-.625,4.4A18.005,18.005,0,0,1,2159.759,1388.548Z" transform="translate(-2156.393 -1374.113)"/></g><g class="u" transform="translate(6.099 8.833)"><path class="t" d="M2163.9,1384.427c-1.619,1.617-1.637,4.035-4.018,4.874a3.8,3.8,0,0,1-.126-.754,18.005,18.005,0,0,0-2.846-9.528,3.418,3.418,0,0,1,.625-4.4c1.3-1.025,3.477-.468,4.559,1.406a23.048,23.048,0,0,1,3.637,12.184,3.548,3.548,0,0,1-1.686,3.366C2165.234,1389.669,2165.458,1387.226,2163.9,1384.427Z" transform="translate(-2156.393 -1374.113)"/></g><path class="v" d="M2153.266,1383.111a6.231,6.231,0,0,0,6.228,6.235h0a6.235,6.235,0,0,0,6.238-6.235v-6.543a6.234,6.234,0,0,0-6.238-6.231h0a6.229,6.229,0,0,0-6.228,6.231Z" transform="translate(-2152.413 -1367.839)"/><path class="bk" d="M2153.295,1377.11s-1.079-8.824,7.5-8.233c4.631-.029,4.631,2.77,4.631,2.77s3.092-.111,3.991,1.933a15.455,15.455,0,0,1,.99,5.4c0,3.968-2.272,7.248-5.23,7.792a6.457,6.457,0,0,0,.529-2.575l.037-3.3a8.572,8.572,0,0,0-.8,1.557c-.522,1.294-.7,1.814-.7,1.169,0,0,1.74-9.265-.929-9.369-2.189-.084-1.371.842-4.461.908-1.685.035-2.976-1.332-3.911-1.092C2153.389,1374.469,2153.295,1377.11,2153.295,1377.11Z" transform="translate(-2152.423 -1368.848)"/><path class="bk" d="M2165.124,1374.867s-.089,5.965-2.636,6.377a24.141,24.141,0,0,1-5.659.139,13.542,13.542,0,0,1-3.15-.841s-1.73,7.31-.449,8.025c2.825,1.586,8.631.649,10.887-2.589a18.329,18.329,0,0,0,2.9-9.082l2.387-1.6Z" transform="translate(-2152.758 -1364.768)"/><path class="bl" d="M2153.535,1389.84c4.691,2.04,9.995-.611,12.24-5.3.2-.612,2.04-1.223,2.651-2.04,2.653-2.651,1.428-7.139.612-10.607a2.81,2.81,0,0,0-1.226-1.183,3.09,3.09,0,0,1,1.939,1.614,15.455,15.455,0,0,1,.99,5.4c0,3.829-2.117,7.017-4.923,7.725a17.911,17.911,0,0,1-1.7,3.354c-2.257,3.238-8.062,4.175-10.887,2.589-.395-.22-.5-1.072-.463-2.141A3.579,3.579,0,0,0,2153.535,1389.84Z" transform="translate(-2152.757 -1367.589)"/><g transform="translate(12.526 10.688)"><path class="w" d="M2160.879,1379.028c.665.275,1.549-.342,1.975-1.374s.236-2.1-.424-2.371-1.55.342-1.979,1.376S2160.218,1378.753,2160.879,1379.028Z" transform="translate(-2160.224 -1375.219)"/></g><g transform="translate(13.319 11.971)"><path class="t" d="M2160.925,1377.516c.263.138.653-.085.864-.5s.175-.859-.089-1-.654.086-.867.5S2160.661,1377.379,2160.925,1377.516Z" transform="translate(-2160.696 -1375.983)"/></g><g transform="translate(7.316 11.266)"><path class="x" d="M2157.118,1376.531a.788.788,0,1,0,.767-.968A.885.885,0,0,0,2157.118,1376.531Z" transform="translate(-2157.118 -1375.563)"/><g transform="translate(0.767 0.178)"><path class="z" d="M2157.575,1376.064a.321.321,0,1,0,.312-.395A.361.361,0,0,0,2157.575,1376.064Z" transform="translate(-2157.575 -1375.669)"/></g></g><g transform="translate(4.148 12.478)"><path class="t" d="M2156.482,1380.322h0c.612,0,1.263-.415,1.253-.921-.018-.877-.263-1.317-.282-2.2a.908.908,0,0,0-.971-.919h0a.911.911,0,0,0-.972.919c-.017.879-.262,1.319-.28,2.2C2155.22,1379.907,2155.871,1380.322,2156.482,1380.322Z" transform="translate(-2155.23 -1376.285)"/><g class="q" transform="translate(0.428 2.342)"><path class="aa" d="M2155.485,1378.208c0,.292.146.527.327.527s.327-.235.327-.527-.147-.527-.327-.527S2155.485,1377.918,2155.485,1378.208Z" transform="translate(-2155.485 -1377.681)"/></g></g><g transform="translate(1.972 11.266)"><path class="x" d="M2153.933,1376.531a.786.786,0,1,0,.769-.968A.883.883,0,0,0,2153.933,1376.531Z" transform="translate(-2153.933 -1375.563)"/><g transform="translate(0.765 0.178)"><path class="z" d="M2154.389,1376.064a.322.322,0,1,0,.314-.395A.361.361,0,0,0,2154.389,1376.064Z" transform="translate(-2154.389 -1375.669)"/></g></g><g class="ab" transform="translate(8.091 14.773)"><path class="ac" d="M2157.6,1378.769c.111.4.728.569,1.381.387s1.094-.649.985-1.043-.728-.569-1.382-.387S2157.488,1378.374,2157.6,1378.769Z" transform="translate(-2157.58 -1377.653)"/></g><g class="ab" transform="translate(1.326 14.773)"><path class="ac" d="M2155.931,1378.769c-.111.4-.729.569-1.381.387s-1.094-.649-.985-1.043.728-.569,1.383-.387S2156.04,1378.374,2155.931,1378.769Z" transform="translate(-2153.548 -1377.653)"/></g><g transform="translate(2.556 17.325)"><path class="ad" d="M2154.288,1379.174a5.1,5.1,0,0,0,.021.815,2.732,2.732,0,0,0,4.55.262,5.368,5.368,0,0,0,.109-.807Z" transform="translate(-2154.281 -1379.174)"/><g transform="translate(0.215 0.012)"><path class="z" d="M2154.409,1379.181a.4.4,0,0,0,.03.144,4.191,4.191,0,0,0,4.189.242.37.37,0,0,0,.045-.139Z" transform="translate(-2154.409 -1379.181)"/></g></g><g transform="translate(6.182 9.924)"><path class="bk" d="M2157.217,1376.125a7.256,7.256,0,0,1,2.221,0,.682.682,0,0,0,.765-.517h0a.657.657,0,0,0-.6-.746,8.238,8.238,0,0,0-2.552,0,.655.655,0,0,0-.6.746h0A.679.679,0,0,0,2157.217,1376.125Z" transform="translate(-2156.442 -1374.763)"/></g><g transform="translate(0.965 9.924)"><path class="bk" d="M2154.108,1376.125a7.256,7.256,0,0,1,2.221,0,.679.679,0,0,0,.764-.517h0a.655.655,0,0,0-.6-.746,8.238,8.238,0,0,0-2.552,0,.657.657,0,0,0-.6.746h0A.681.681,0,0,0,2154.108,1376.125Z" transform="translate(-2153.333 -1374.763)"/></g></g><g transform="translate(37.965 22.843)"><path class="t" d="M2175.674,1430.271c2.006.064.2-.2,2.215-.166.466-9-2.97-34.187-9.5-46.284a2.464,2.464,0,0,0-4.565.379,2.676,2.676,0,0,0,.235,2.146q1.3,2.424,2.429,4.874a83.258,83.258,0,0,1,3.424,8.669C2172.967,1409.124,2175.937,1420.154,2175.674,1430.271Z" transform="translate(-2163.694 -1382.463)"/><path class="bh" d="M2166.482,1391.22a83.258,83.258,0,0,1,3.424,8.669q.59,1.779,1.094,3.579l4.688-1.852a89.247,89.247,0,0,0-7.305-17.795,2.464,2.464,0,0,0-4.565.379,2.678,2.678,0,0,0,.065,1.8,2.449,2.449,0,0,0,.17.351Q2165.352,1388.769,2166.482,1391.22Z" transform="translate(-2163.694 -1382.463)"/><rect class="bi" width="6.796" height="2.764" rx="0.436" transform="translate(13.103 19.749) rotate(158.45)"/><g transform="translate(9.134 47.152)"><g transform="translate(4.631 1.831)"><path class="t" d="M2171.9,1412.276a.565.565,0,0,1,.519-.616h0a.567.567,0,0,1,.616.519l.291,3.4a.572.572,0,0,1-.519.618h0a.57.57,0,0,1-.616-.519Z" transform="translate(-2171.898 -1411.658)"/></g><g transform="translate(1.666 1.808)"><path class="t" d="M2170.41,1412.166a.569.569,0,0,1,.616-.52h0a.569.569,0,0,1,.522.612l-.277,3.408a.571.571,0,0,1-.612.522h0a.575.575,0,0,1-.525-.614Z" transform="translate(-2170.131 -1411.644)"/></g><g transform="translate(0 0.191)"><path class="t" d="M2169.247,1413.16a.618.618,0,0,0,.859.168l2.289-1.549a1.94,1.94,0,0,0-.215-.916c-.092-.158-.617-.183-.617-.183l-2.151,1.617A.618.618,0,0,0,2169.247,1413.16Z" transform="translate(-2169.138 -1410.68)"/></g><g transform="translate(3.241 2.337)"><path class="t" d="M2171.094,1412.525a.568.568,0,0,1,.574-.565h0a.571.571,0,0,1,.565.574l-.025,3.423a.572.572,0,0,1-.574.566h0a.569.569,0,0,1-.563-.576Z" transform="translate(-2171.07 -1411.959)"/></g><g transform="translate(1.894)"><path class="t" d="M.673,0H3.194a.674.674,0,0,1,.674.674V3.195a.674.674,0,0,1-.674.674H.673A.673.673,0,0,1,0,3.2V.673A.673.673,0,0,1,.673,0Z" transform="translate(0 3.868) rotate(-89.576)"/></g></g></g><g transform="translate(19.464 10.391)"><path class="bm" d="M2155.173,1379.56c-1.406-.035-2.506-1.765-2.506-3.938,0-.035,0-.07,0-.1l.01-.252,5.136-.129.01.265c0,.035.007.072.007.109a4.847,4.847,0,0,1-1.22,3.426,2,2,0,0,1-1.4.622Zm-2.1-3.894c.015,1.9.955,3.456,2.109,3.485a1.591,1.591,0,0,0,1.146-.505,4.476,4.476,0,0,0,1.1-3.091Z" transform="translate(-2152.667 -1374.976)"/><path class="bm" d="M2158.878,1379.776c-1.607-.04-2.867-1.894-2.867-4.22,0-.037,0-.072.006-.107l.009-.259,5.894-.149.01.27c0,.039.006.077.006.116a5.1,5.1,0,0,1-1.325,3.609,2.4,2.4,0,0,1-1.68.74Zm-2.458-4.188c.01,2.054,1.114,3.745,2.468,3.78a1.965,1.965,0,0,0,1.438-.624,4.68,4.68,0,0,0,1.2-3.285Z" transform="translate(-2150.401 -1375.041)"/><rect class="bm" width="4.555" height="0.409" transform="translate(4.008 0.19) rotate(-1.454)"/><path class="bn" d="M2157.262,1375.386a4.475,4.475,0,0,1-1.1,3.091,1.59,1.59,0,0,1-1.146.505c-1.154-.029-2.094-1.587-2.109-3.485Z" transform="translate(-2152.502 -1374.807)"/><path class="bn" d="M2161.364,1375.29a4.678,4.678,0,0,1-1.2,3.285,1.963,1.963,0,0,1-1.437.624c-1.354-.035-2.458-1.727-2.469-3.78Z" transform="translate(-2150.235 -1374.872)"/></g></g><g transform="translate(2198.906 1397.597)"><g transform="translate(0 40.676)"><g transform="translate(0 5.251)"><g transform="translate(4.386 1.91)"><path class="v" d="M2138.011,1415.031a.539.539,0,0,1,.545-.537h0a.537.537,0,0,1,.543.535l0,3.255a.549.549,0,0,1-.53.554h0a.539.539,0,0,1-.54-.552Z" transform="translate(-2138.011 -1414.494)"/></g><g transform="translate(1.302 1.672)"><path class="v" d="M2136.717,1414.8a.538.538,0,0,1,.629-.443h0a.523.523,0,0,1,.441.614l-.539,3.206a.535.535,0,0,1-.616.453h0a.555.555,0,0,1-.455-.626Z" transform="translate(-2136.174 -1414.353)"/></g><g transform="translate(0 0.127)"><path class="v" d="M2135.479,1415.6a.582.582,0,0,0,.795.22l2.3-1.28a1.756,1.756,0,0,0-.133-.888c-.074-.156-.567-.225-.567-.225l-2.171,1.367A.578.578,0,0,0,2135.479,1415.6Z" transform="translate(-2135.397 -1413.431)"/></g><g transform="translate(2.756 2.27)"><path class="v" d="M2137.339,1415.213a.555.555,0,0,1,.582-.5h0a.563.563,0,0,1,.5.6l-.3,3.248a.545.545,0,0,1-.59.488h0a.541.541,0,0,1-.488-.587Z" transform="translate(-2137.04 -1414.709)"/></g><g transform="translate(1.765)"><path class="v" d="M2136.595,1414.328a1.086,1.086,0,0,1,1.169-.968l1.527.141a1.074,1.074,0,0,1,.971,1.166l-.139,1.534a1.075,1.075,0,0,1-1.174.971l-1.516-.139a1.1,1.1,0,0,1-.981-1.176Z" transform="translate(-2136.449 -1413.355)"/></g></g><g transform="translate(2.762)"><path class="v" d="M2137.57,1411.1a.96.96,0,0,1,1.045-.864h0a.952.952,0,0,1,.864,1.047l-.522,5.721a.971.971,0,0,1-1.045.861h0a.954.954,0,0,1-.864-1.039Z" transform="translate(-2137.043 -1410.226)"/></g></g><g transform="translate(1.366)"><path class="bo" d="M2136.211,1430.4l4.733.55,5.218-42.311a2.38,2.38,0,0,0-2.084-2.644h0a2.381,2.381,0,0,0-2.646,2.1Z" transform="translate(-2136.211 -1385.983)"/></g></g><g transform="translate(2210.626 1437.477)"><g transform="translate(10.858 50.068)"><path class="bp" d="M2150.245,1439.612c1.166-.22,2.518,1.512,3.01,3.865.007.032.008.062.015.093.039.148.075.3.109.449.5,2.356-.034,4.439-1.2,4.654s-2.52-1.515-3.023-3.869c-.008-.04-.01-.077-.019-.117q-.055-.209-.1-.423C2148.54,1441.914,2149.081,1439.825,2150.245,1439.612Z" transform="translate(-2148.854 -1439.593)"/></g><g transform="translate(10.883 49.775)"><path class="d" d="M2149.034,1441.767c.433,1.991,1.267,2.634,2.087,2.481s1.452-1.121,1.022-3.105l-.284-1.725-2.99,1.6Z" transform="translate(-2148.869 -1439.418)"/></g><path class="d" d="M2142.383,1411.27l4.548,20.811,6.334,29.047,3.114-.59-3.472-29.161-1.019-8.582-.223-1.847-1.332-11.2Z" transform="translate(-2142.383 -1409.752)"/></g><g transform="translate(2201.524 1445.321)"><g transform="translate(2.315)"><path class="d" d="M2142.886,1460.81l-4.549-41.452c0-1.933,4.936-4.931,7-4.931s-.215,3.085-.215,5.017l1.143,40.706Z" transform="translate(-2138.337 -1414.427)"/></g><g transform="translate(0 45.26)"><path class="bp" d="M2137.254,1446.3c-.361-.282-.334-.107-.223-.676.174-.854,5.154-2.762,5.753-3.035,4.194-1.943,4.305-.921,4.32-.881a2.45,2.45,0,0,1,.443,3.156c-.916,1.455-2.676-.272-3.862.935C2141.908,1447.591,2138.309,1446.821,2137.254,1446.3Z" transform="translate(-2136.958 -1441.403)"/></g><g transform="translate(2.759 44.525)"><path class="d" d="M2142.8,1442.345s-4.113,1.624-4.193,2.414c-.071.654,5.923-.637,6.587-.923a1.477,1.477,0,0,0,.922-1.72,2.131,2.131,0,0,0-2.421-1.074A1.332,1.332,0,0,0,2142.8,1442.345Z" transform="translate(-2138.602 -1440.964)"/></g></g><g transform="translate(2201.415 1430.773)"><path class="n" d="M2137.9,1446.732c-3.319-8.949,2.639-39.862,2.639-39.862l15.033-1.114s4.31,12.413,4.97,16.277c.977,5.7,2.157,20.746-1.274,25.063C2157.037,1449.9,2138.8,1449.178,2137.9,1446.732Z" transform="translate(-2136.893 -1405.756)"/></g><g transform="translate(2203.317 1430.773)"><path class="g" d="M2155.388,1441.561c4-6.4,2.4-17.607-3.2-23.209-3.394-4.074-9.09-.663-14.161-1,.884-6.02,1.744-10.483,1.744-10.483l15.033-1.114s4.31,12.413,4.97,16.277c.977,5.7,2.158,20.746-1.273,25.063-1.963,2.467-16.33,2.2-20.354.435C2145.07,1448.156,2151.436,1447.272,2155.388,1441.561Z" transform="translate(-2138.026 -1405.756)"/></g><g transform="translate(2203.141 1396)"><path class="bq" d="M2138.985,1425.247c.009.024.009.055.017.081.3,1.344,1.777,2.232,3.785,2.713.127.032.263.064.4.087.233.048.473.1.721.136.191.032.391.057.6.08.465.056.953.1,1.458.119.159.008.319.017.48.017,5.169.128,11.2-1.5,11.765-4.394,2.361-12.069.656-21.64-1.25-29.659a25.109,25.109,0,0,0-.752-2.594c-.049-.142-.1-.287-.159-.423-.064-.193-.145-.384-.225-.577-.113-.272-.223-.544-.352-.8-.1-.223-.208-.439-.321-.647-.055-.121-.119-.231-.183-.344a4.834,4.834,0,0,0-.265-.441,1.425,1.425,0,0,0-.143-.223c-.106-.185-.233-.369-.352-.537a8.966,8.966,0,0,0-.953-1.127,5.388,5.388,0,0,0-.769-.664,6.169,6.169,0,0,0-.56-.369c-.087-.047-.176-.1-.272-.143s-.176-.089-.263-.121a4.5,4.5,0,0,0-.849-.272,1.392,1.392,0,0,0-.2-.04,1.65,1.65,0,0,0-.2-.032,4.906,4.906,0,0,0-.6-.04c-7.612,0-8.147,1.832-9.283,7.706C2137.488,1407.016,2137.337,1417.827,2138.985,1425.247Z" transform="translate(-2137.921 -1385.031)"/></g><g transform="translate(2210.425 1397.349)"><g transform="translate(0 42.922)"><g transform="translate(0 4.857)"><g transform="translate(3.738 2.66)"><path class="v" d="M2145.188,1416.353a.564.564,0,0,1,.671-.444h0a.57.57,0,0,1,.445.673l-.685,3.349a.572.572,0,0,1-.673.445h0a.57.57,0,0,1-.445-.673Z" transform="translate(-2144.49 -1415.897)"/></g><g transform="translate(0.621 1.877)"><path class="v" d="M2143.9,1415.8a.569.569,0,0,1,.738-.325h0a.566.566,0,0,1,.326.735l-1.23,3.191a.564.564,0,0,1-.733.327h0a.571.571,0,0,1-.331-.737Z" transform="translate(-2142.633 -1415.431)"/></g><g transform="translate(0 0.324)"><path class="v" d="M2142.294,1416.23a.615.615,0,0,0,.775.4l2.634-.837a1.934,1.934,0,0,0,.054-.94c-.043-.176-.54-.351-.54-.351l-2.522.943A.618.618,0,0,0,2142.294,1416.23Z" transform="translate(-2142.263 -1414.505)"/></g><g transform="translate(1.976 2.759)"><path class="v" d="M2144.457,1416.361a.568.568,0,0,1,.71-.379h0a.57.57,0,0,1,.381.712l-.992,3.275a.573.573,0,0,1-.712.381h0a.572.572,0,0,1-.379-.711Z" transform="translate(-2143.441 -1415.956)"/></g><g transform="translate(1.405)"><path class="v" d="M.673,0H3.2a.674.674,0,0,1,.674.674V3.2A.672.672,0,0,1,3.2,3.87H.674A.674.674,0,0,1,0,3.2V.673A.673.673,0,0,1,.673,0Z" transform="translate(0 3.703) rotate(-73.143)"/></g></g><g transform="translate(2.951)"><path class="v" d="M2145.816,1412.13a1.009,1.009,0,0,1,1.257-.669h0a1.007,1.007,0,0,1,.671,1.257l-1.751,5.775a1.009,1.009,0,0,1-1.257.671h0a1.009,1.009,0,0,1-.671-1.257Z" transform="translate(-2144.021 -1411.417)"/></g></g><g transform="translate(2.075)"><path class="bo" d="M2143.5,1432.665c1.908.628,2.864.936,4.782,1.539a88.082,88.082,0,0,0,2.518-46.329,2.516,2.516,0,0,0-3.077-1.951h0a2.623,2.623,0,0,0-1.792,3.149A83.1,83.1,0,0,1,2143.5,1432.665Z" transform="translate(-2143.499 -1385.835)"/></g></g><g transform="translate(2203.187 1383.159)"><path class="bl" d="M2139.48,1392.317s3.156-1.481,8.577-.455c.2.035,5.871-10.914,4.319-12.3-3.762-3.357-13.8-1.849-13.8-1.849S2136.683,1383.586,2139.48,1392.317Z" transform="translate(-2137.948 -1377.378)"/></g><g transform="translate(2201.416 1373.418)"><path class="bk" d="M2136.893,1381.033a9.612,9.612,0,0,0,.086,1.28,8.832,8.832,0,0,0,.2,1.055,9.492,9.492,0,0,0,12.543,6.518h0a9.463,9.463,0,0,0,6.1-8.262c.015-.2.02-.394.02-.592a9.469,9.469,0,0,0-9.475-9.461,9.333,9.333,0,0,0-2.371.3,8.555,8.555,0,0,0-.83.252,9.494,9.494,0,0,0-6.277,8.911Z" transform="translate(-2136.893 -1371.572)"/></g><g transform="translate(2202.666 1375.422)"><g transform="translate(2.697 8.387)"><path class="t" d="M2142.344,1391.976a3.364,3.364,0,0,0,2.824,3.337h0c1.621.171,3.141-1.43,3.059-3.56a22.652,22.652,0,0,0-3.352-12.049c-1.03-1.864-3.159-2.453-4.458-1.468h0a3.367,3.367,0,0,0-.695,4.315A17.7,17.7,0,0,1,2142.344,1391.976Z" transform="translate(-2139.245 -1377.765)"/></g><g class="u" transform="translate(2.697 8.387)"><path class="t" d="M2140.418,1378.237c1.3-.985,3.426-.4,4.456,1.468a22.652,22.652,0,0,1,3.352,12.049c.083,2.131-1.438,3.731-3.059,3.56a2.7,2.7,0,0,1-.28-.061,2.685,2.685,0,0,0,.716-.419,3.88,3.88,0,0,0,1.26-4.042,2.556,2.556,0,0,0-3.087-1.725,12.289,12.289,0,0,0-1.626.329,17.427,17.427,0,0,0-2.43-6.844A3.365,3.365,0,0,1,2140.418,1378.237Z" transform="translate(-2139.245 -1377.765)"/></g><path class="v" d="M2150.353,1379.118v6.669a6.311,6.311,0,0,1-1.862,4.49,5.748,5.748,0,0,1-.764.647,6.355,6.355,0,0,1-10.088-5.137v-6.669c0-.081.008-.161.008-.243a6.355,6.355,0,0,1,12.706.243Z" transform="translate(-2137.638 -1372.766)"/><g transform="translate(0.366 7.567)"><g transform="translate(0 1.37)"><g transform="translate(6.226)"><path class="x" d="M2141.567,1379.081a.8.8,0,1,0,.782-.988A.9.9,0,0,0,2141.567,1379.081Z" transform="translate(-2141.567 -1378.093)"/><g transform="translate(0.779 0.482)"><path class="ai" d="M2142.031,1378.783a.327.327,0,1,0,.319-.4A.367.367,0,0,0,2142.031,1378.783Z" transform="translate(-2142.031 -1378.38)"/></g></g><g transform="translate(2.159 6.483)"><path class="x" d="M2139.143,1382.059a2.3,2.3,0,0,0,4.228,0c0-.017-.054-.032-.163-.043a32.215,32.215,0,0,0-3.9,0C2139.2,1382.028,2139.14,1382.043,2139.143,1382.059Z" transform="translate(-2139.143 -1381.957)"/><g transform="translate(0.163)"><path class="ai" d="M2139.24,1382.016l.006.012a3.876,3.876,0,0,0,3.891,0l0-.012A32.215,32.215,0,0,0,2139.24,1382.016Z" transform="translate(-2139.24 -1381.957)"/></g></g><g transform="translate(3.473 1.658)"><path class="t" d="M2140.727,1382.588h0a.83.83,0,0,0,.8-.8c-.01-.763-.167-1.144-.179-1.907-.007-.44-.23-.8-.621-.8h0c-.391,0-.614.361-.621.8-.012.763-.167,1.144-.179,1.907A.831.831,0,0,0,2140.727,1382.588Z" transform="translate(-2139.926 -1379.081)"/><g class="q" transform="translate(0.134 2.015)"><path class="aa" d="M2140.006,1380.819c0,.3.149.537.333.537s.333-.242.333-.537-.149-.537-.333-.537S2140.006,1380.522,2140.006,1380.819Z" transform="translate(-2140.006 -1380.282)"/></g></g><g transform="translate(0.78)"><path class="x" d="M2138.321,1379.081a.8.8,0,1,0,.782-.988A.9.9,0,0,0,2138.321,1379.081Z" transform="translate(-2138.321 -1378.093)"/><g transform="translate(0.78 0.482)"><path class="ai" d="M2138.786,1378.783a.328.328,0,1,0,.319-.4A.367.367,0,0,0,2138.786,1378.783Z" transform="translate(-2138.786 -1378.38)"/></g></g><g class="ax" transform="translate(6.824 3.071)"><path class="ac" d="M2141.97,1381.592a1.347,1.347,0,1,0,.946-1.617A1.325,1.325,0,0,0,2141.97,1381.592Z" transform="translate(-2141.923 -1379.923)"/></g><g class="ax" transform="translate(0 3.071)"><path class="ac" d="M2137.9,1381.592a1.347,1.347,0,1,0,.948-1.617A1.326,1.326,0,0,0,2137.9,1381.592Z" transform="translate(-2137.856 -1379.923)"/></g></g><g transform="translate(5.999)"><path class="bk" d="M2141.972,1377.278a5.8,5.8,0,0,1,1.48.341v.143a11.67,11.67,0,0,0-1.577.154s-.395.094-.435-.169S2141.486,1377.308,2141.972,1377.278Z" transform="translate(-2141.432 -1377.276)"/></g><g transform="translate(0.305 0.008)"><path class="bk" d="M2139.5,1377.281a5.716,5.716,0,0,0-1.461.416l.008.143a11.481,11.481,0,0,1,1.583.072s.4.074.424-.191S2139.986,1377.284,2139.5,1377.281Z" transform="translate(-2138.038 -1377.281)"/></g><g transform="translate(6.307 1.182)"><path class="x" d="M2143.476,1378.729a1.313,1.313,0,0,0-1.861,0S2142.429,1377.045,2143.476,1378.729Z" transform="translate(-2141.615 -1377.981)"/></g><g transform="translate(0.385 1.103)"><path class="x" d="M2139.945,1378.682a1.311,1.311,0,0,0-1.859,0S2138.9,1377,2139.945,1378.682Z" transform="translate(-2138.086 -1377.934)"/></g></g></g><g transform="translate(2207.552 1374.28)"><path class="bk" d="M2147.912,1375.563c-2.137-2.822-5.062-4.206-6.533-3.09s-.929,4.307,1.206,7.127,5.061,4.2,6.532,3.087S2150.046,1378.383,2147.912,1375.563Z" transform="translate(-2140.551 -1372.086)"/></g><g transform="translate(2214.43 1384.84)"><path class="v" d="M2145.248,1382.191c.659.317,1.6-.262,2.085-1.287s.359-2.121-.3-2.438-1.6.262-2.089,1.29S2144.59,1381.875,2145.248,1382.191Z" transform="translate(-2144.649 -1378.38)"/><g transform="translate(0.827 1.177)"><path class="t" d="M2145.321,1380.559c.25.173.671-.005.938-.394s.282-.846.033-1.019-.672.005-.939.4S2145.072,1380.388,2145.321,1380.559Z" transform="translate(-2145.143 -1379.081)"/></g></g><g transform="translate(2207.61 1373.598)"><path class="bk" d="M2141.709,1372.917s-1.822,1.45-.827,5.22,10.589,5.589,5.144,17.589a56.289,56.289,0,0,0,7.317-3.32c3.08-2.039,3.3-3.416,2.119-11.307S2145.666,1369.583,2141.709,1372.917Z" transform="translate(-2140.585 -1371.679)"/></g><g transform="translate(2213.369 1374.663)"><path class="bl" d="M2149.42,1390.384c4.413-5.042,2.891-14.038-2.236-18.07a11.2,11.2,0,0,1,5.953,8.354c1.181,7.891.961,9.268-2.119,11.307a51.528,51.528,0,0,1-7,3.2,8.6,8.6,0,0,1,.582-1.574C2146.207,1391.991,2148.618,1391.188,2149.42,1390.384Z" transform="translate(-2144.017 -1372.314)"/></g><g transform="translate(2201.416 1374.279)"><path class="bk" d="M2136.967,1381.04a1.933,1.933,0,0,1-.074-.354c0-.457,2.357-6.587,4.091-7.785a9.368,9.368,0,0,1,2.81-.815c.019.017.032.029.048.045,1.344,1.263,1.613,3.11-.813,5.688-1.584,1.676-4.839,2.289-4.52,8.02a1.867,1.867,0,0,0-.052-.211,60.756,60.756,0,0,0,1.739,10.278S2137.173,1391.336,2136.967,1381.04Z" transform="translate(-2136.893 -1372.085)"/></g><g transform="translate(2202.405 1383.39)"><g transform="translate(0 0.02)"><path class="bm" d="M2140.641,1382.462c-1.829-.081-2.656-.087-2.827-.069l-.072.05-.111-.057c-.144-.077-.2-.107-.082-4.238a.527.527,0,0,1,.5-.507l2.736-.114a.546.546,0,0,1,.393.154.523.523,0,0,1,.154.391l-.151,3.886a.524.524,0,0,1-.52.505Zm.164-4.532-2.736.114a.121.121,0,0,0-.119.116c-.057,1.931-.077,3.359-.055,3.829.324-.013,1.048,0,2.763.072a.117.117,0,0,0,.124-.117l.151-3.886a.115.115,0,0,0-.035-.092.126.126,0,0,0-.087-.037Z" transform="translate(-2137.483 -1377.527)"/></g><g transform="translate(6.013)"><path class="bm" d="M2144.2,1382.451c-.8-.023-2.869-.01-2.889-.01h-.2l0-.2c0-.03-.054-3.027-.039-4.037a.55.55,0,0,1,.517-.539l2.69-.151a.539.539,0,0,1,.411.153.558.558,0,0,1,.167.408l-.092,3.839a.557.557,0,0,1-.171.386.537.537,0,0,1-.374.149Zm.1-4.533-2.688.151a.147.147,0,0,0-.139.143c-.011.854.025,3.139.037,3.825.54,0,2.044-.007,2.7.012a.129.129,0,0,0,.1-.037.146.146,0,0,0,.046-.1l.092-3.841a.148.148,0,0,0-.043-.109.146.146,0,0,0-.1-.04Z" transform="translate(-2141.067 -1377.515)"/></g><g transform="translate(3.619 1.488)"><path class="bm" d="M2139.737,1378.956a5.088,5.088,0,0,1,2.357-.025l.091-.393a5.463,5.463,0,0,0-2.545.029Z" transform="translate(-2139.64 -1378.402)"/></g><g class="q" transform="translate(0.403 0.421)"><path class="a" d="M2140.648,1377.766a.125.125,0,0,1,.087.037.115.115,0,0,1,.035.092l-.151,3.886a.117.117,0,0,1-.124.117c-1.715-.075-2.44-.085-2.764-.072-.021-.47,0-1.9.056-3.829a.121.121,0,0,1,.119-.116l2.736-.114Z" transform="translate(-2137.723 -1377.766)"/></g><g class="q" transform="translate(0.403 0.421)"><path class="a" d="M2140.648,1377.766a.125.125,0,0,1,.087.037.115.115,0,0,1,.035.092l-.151,3.886a.117.117,0,0,1-.124.117c-1.715-.075-2.44-.085-2.764-.072-.021-.47,0-1.9.056-3.829a.121.121,0,0,1,.119-.116l2.736-.114Z" transform="translate(-2137.723 -1377.766)"/></g><g class="q" transform="translate(6.414 0.867)"><path class="a" d="M2144.144,1378.032a.143.143,0,0,1,.146.149l-.092,3.839a.141.141,0,0,1-.045.1.123.123,0,0,1-.1.039c-.661-.018-2.165-.013-2.7-.011-.012-.688-.049-2.972-.038-3.825a.146.146,0,0,1,.14-.143l2.688-.151Z" transform="translate(-2141.305 -1378.032)"/></g></g></g></g></svg>