<svg xmlns="http://www.w3.org/2000/svg" xmlns:xlink="http://www.w3.org/1999/xlink" width="322" height="276" viewBox="0 0 322 276"><defs><style>.a{fill:#fff;}.b{font-size:14px;font-family:Arial-BoldMT, Arial;font-weight:700;opacity:0.7;}.c{fill:#1a5a38;}.d{fill:#30c581;}.e{fill:#25a061;}.f{fill:#21a363;}.g{fill:#0d743c;}.h{fill:#127b40;}.i{fill:#247846;}.j{filter:url(#a);}</style><filter id="a" x="0" y="0" width="322" height="276" filterUnits="userSpaceOnUse"><feOffset dy="3" input="SourceAlpha"/><feGaussianBlur stdDeviation="3" result="b"/><feFlood flood-opacity="0.051"/><feComposite operator="in" in2="b"/><feComposite in="SourceGraphic"/></filter></defs><g transform="translate(-1039 -348)"><g class="j" transform="matrix(1, 0, 0, 1, 1039, 348)"><rect class="a" width="304" height="258" rx="10" transform="translate(9 6)"/></g><text class="b" transform="translate(1200 384)"><tspan x="-59.808" y="0">Báo cáo tổng hợp</tspan></text><g transform="translate(-5449 -4767)"><rect class="c" width="128.474" height="150" rx="7" transform="translate(6607.078 5192)"/><path class="d" d="M0,0H57.579a7,7,0,0,1,7,7V37.585a0,0,0,0,1,0,0H0a0,0,0,0,1,0,0V0A0,0,0,0,1,0,0Z" transform="translate(6670.973 5192)"/><path class="e" d="M7,0H64.579a0,0,0,0,1,0,0V37.585a0,0,0,0,1,0,0H0a0,0,0,0,1,0,0V7A7,7,0,0,1,7,0Z" transform="translate(6607.078 5192)"/><rect class="f" width="64.579" height="37.585" transform="translate(6670.973 5229.585)"/><rect class="g" width="64.579" height="37.585" transform="translate(6607.078 5229.585)"/><rect class="h" width="64.579" height="37.585" transform="translate(6670.973 5267.171)"/><rect class="c" width="64.579" height="37.585" transform="translate(6607.078 5267.171)"/><rect class="i" width="89.522" height="89.522" rx="7" transform="translate(6563 5222)"/><g transform="translate(6583 5242)"><path class="a" d="M7566.81,5336.333h12.972l35.293,51.128h-13.393Z" transform="translate(-7566.136 -5336.333)"/><path class="a" d="M7600.3,5336.333h12.8l-35.377,51.212h-12.887Z" transform="translate(-7564.837 -5336.333)"/></g></g></g></svg>