<svg xmlns="http://www.w3.org/2000/svg" width="15.6" height="15.6" viewBox="0 0 15.6 15.6">
  <path id="add_luoi_kk" data-name="add_luoi kk" d="M-2990.224,4332.754h-5.514v-5.514a1.119,1.119,0,0,0-1.118-1.119,1.118,1.118,0,0,0-1.118,1.119v5.514h-5.513a1.118,1.118,0,0,0-1.118,1.118,1.118,1.118,0,0,0,1.118,1.119h5.513v5.513a1.119,1.119,0,0,0,1.118,1.119,1.119,1.119,0,0,0,1.118-1.119v-5.513h5.514a1.119,1.119,0,0,0,1.118-1.119A1.119,1.119,0,0,0-2990.224,4332.754Z" transform="translate(3004.655 -4326.072)" stroke="#000" stroke-width="0.1" opacity="0.4"/>
</svg>
