<svg xmlns="http://www.w3.org/2000/svg" width="34" height="34" viewBox="0 0 34 34">
  <g id="nop_to_khai_hskk" data-name="nop to khai_hskk" transform="translate(5019 449)">
    <rect id="Rectangle_1224" data-name="Rectangle 1224" width="34" height="34" transform="translate(-5019 -449)" fill="#299f39"/>
    <g id="Group_1081" data-name="Group 1081" transform="translate(-1920.671 -1706.235)">
      <g id="Group_1082" data-name="Group 1082" transform="translate(-3080.77 1266.904)">
        <g id="Group_1081-2" data-name="Group 1081" transform="translate(0 0)">
          <path id="Path_3656" data-name="Path 3656" d="M-2796.469,1270.694l-2.424-3.394a.949.949,0,0,0-.771-.4.072.072,0,0,0-.072.072v3.677a.341.341,0,0,0,.341.341h2.77A.19.19,0,0,0-2796.469,1270.694Z" transform="translate(2799.735 -1266.904)" fill="#fff"/>
        </g>
      </g>
      <path id="Path_3657" data-name="Path 3657" d="M-2885.243,1586.838a.279.279,0,0,1-.305.046.266.266,0,0,1-.16-.243v-1.256a.763.763,0,0,0-.762-.763h-1.78a5.871,5.871,0,0,0-4.128,1.836.253.253,0,0,1-.28.075.254.254,0,0,1-.168-.237v-1.42c0-4.265,4.39-4.323,4.576-4.323h1.78a.763.763,0,0,0,.762-.763v-1.256a.265.265,0,0,1,.162-.243.278.278,0,0,1,.3.046l1.133,1.013,3.4,3.04a.262.262,0,0,1,.089.2.262.262,0,0,1-.089.2l-3.4,3.036,0,0Z" transform="translate(-190.381 -303.206)" fill="#fff"/>
      <path id="Path_3658" data-name="Path 3658" d="M-3083.384,1278.6a4.914,4.914,0,0,1,1.934-1.635,6.983,6.983,0,0,1,2.819-.668h1.495v-.977a1.322,1.322,0,0,1,.031-.276v-2.315a.671.671,0,0,0-.671-.671h-3.389a.671.671,0,0,1-.671-.671v-3.816a.671.671,0,0,0-.671-.672h-4.874a.948.948,0,0,0-.948.948v11.515a.949.949,0,0,0,.948.948h3.267A4.844,4.844,0,0,1-3083.384,1278.6Z" transform="translate(0 0)" fill="#fff"/>
    </g>
  </g>
</svg>
