<svg xmlns="http://www.w3.org/2000/svg" xmlns:xlink="http://www.w3.org/1999/xlink" width="143" height="143" viewBox="0 0 143 143"><defs><style>.a{fill:#ca2128;}.b{fill:#d84141;fill-rule:evenodd;}.c{fill:#b0242a;}.d{fill:#fff;}.e{filter:url(#a);}</style><filter id="a" x="0" y="0" width="143" height="143" filterUnits="userSpaceOnUse"><feOffset input="SourceAlpha"/><feGaussianBlur stdDeviation="2.5" result="b"/><feFlood flood-color="#ca2128" flood-opacity="0.502"/><feComposite operator="in" in2="b"/><feComposite in="SourceGraphic"/></filter></defs><g transform="translate(940 -2288.246)"><g class="e" transform="matrix(1, 0, 0, 1, -940, 2288.25)"><circle class="a" cx="64" cy="64" r="64" transform="translate(7.5 7.5)"/></g><g transform="translate(-929.633 2299.022)"><g transform="translate(0 0)"><g transform="translate(14.969)"><path class="b" d="M-821.042,2396.3a19.2,19.2,0,0,1-3.979,1.646,17.34,17.34,0,0,1-8.866.067,31.1,31.1,0,0,0-5.25-.846,7.425,7.425,0,0,0-4.312.834,7.827,7.827,0,0,0-.739-4.916c-.434-.978-.965-1.908-1.484-2.843a32.6,32.6,0,0,1-2.779-5.585,14.666,14.666,0,0,1,2.282-14.29c.41-.528.9-.993,1.348-1.491.091-.1.287-.157.216-.33-.055-.123-.222-.1-.342-.122a14.51,14.51,0,0,1-5.506-2.081,16.241,16.241,0,0,1-7.291-11.249c-.294-1.806-.461-3.631-.738-5.44a9.148,9.148,0,0,0-2.446-5.566,8.372,8.372,0,0,0,4.867-2.657c1.659-1.6,3.081-3.431,4.776-5a15.677,15.677,0,0,1,9.282-4.355,14.4,14.4,0,0,1,8.2,1.65c.161.085.322.166.547.28-.067-.677-.15-1.292-.188-1.913a15.23,15.23,0,0,1,3.974-11.069,16.768,16.768,0,0,1,6.123-4.416c1.405-.625,2.816-1.25,4.168-1.991a8.726,8.726,0,0,0,4.076-3.824,8.8,8.8,0,0,0,4.461,4.037c1.9.969,3.915,1.722,5.78,2.769a15.592,15.592,0,0,1,7.19,7.88,14.573,14.573,0,0,1,.687,8.529c.529-.234.99-.447,1.462-.639,4.454-1.833,8.787-1.361,13.043.676a16.364,16.364,0,0,1,4.958,3.833,43.909,43.909,0,0,0,4.278,4.344,7.427,7.427,0,0,0,3.86,1.851c.044.2-.133.248-.221.343a8.24,8.24,0,0,0-1.988,4.336c-.424,2.173-.5,4.394-.882,6.573-.863,4.93-3.168,8.912-7.646,11.422a13.909,13.909,0,0,1-5.132,1.688.491.491,0,0,0-.425.183c.563.62,1.142,1.245,1.651,1.922a14.337,14.337,0,0,1,2.838,7.586,16.591,16.591,0,0,1-2.307,10.219c-.808,1.352-1.544,2.751-2.248,4.163a8.525,8.525,0,0,0-1.041,5.466,7.066,7.066,0,0,0-2.568-.81,17.621,17.621,0,0,0-5.284.519,31.13,31.13,0,0,1-7.149.938,15.6,15.6,0,0,1-6.932-1.794c-.126-.066-.235-.177-.323-.162,0,.991-.035,1.966.007,2.935.157,3.262.344,6.522.522,9.784.063,1.141.116,2.281.2,3.423.029.382-.037.533-.475.529q-6.313-.026-12.629,0c-.418,0-.517-.114-.49-.52q.322-5.433.61-10.867C-821.2,2400.1-821.129,2398.253-821.042,2396.3Zm29.856-45.113c-.176.187-.259.281-.343.363a65.856,65.856,0,0,0-10.114,12.494,48.954,48.954,0,0,0-6.368,14.285,51.6,51.6,0,0,0-1.214,11.825.63.63,0,0,0,.3.538,10.446,10.446,0,0,0,1.887,1.182,13.208,13.208,0,0,0,8.086.808,38.617,38.617,0,0,1,7.157-.949.592.592,0,0,0,.627-.48,32.272,32.272,0,0,1,2.533-5.227,16.562,16.562,0,0,0,2.167-5.873,11.672,11.672,0,0,0-2.228-8.724,51.922,51.922,0,0,0-4.579-5.023c-.134-.138-.317-.245-.386-.471.2-.041.4-.083.591-.119a56.982,56.982,0,0,0,6.546-1.313,11.031,11.031,0,0,0,7.248-6.105,17.478,17.478,0,0,0,1.246-4.71,37.992,37.992,0,0,1,1.262-6.773c.13-.375-.046-.577-.314-.774a22.1,22.1,0,0,1-2.957-2.724,39.713,39.713,0,0,0-3.016-3.064c-3.506-2.99-7.433-4.107-11.929-2.678a45.912,45.912,0,0,0-6.288,2.824,1.278,1.278,0,0,1-.6.231c0-.118,0-.208.015-.3.326-2.057.677-4.114.8-6.2a12.52,12.52,0,0,0-.85-5.757,11.84,11.84,0,0,0-5.42-5.677c-2.485-1.378-5.194-2.332-7.492-4.057a.5.5,0,0,0-.65.04,31.959,31.959,0,0,1-5.263,2.815,15.876,15.876,0,0,0-5.112,3.431,11.545,11.545,0,0,0-3.191,6.471,24.417,24.417,0,0,0,.32,6.55c.131.889.263,1.78.406,2.756-.283-.141-.472-.237-.664-.331a55.088,55.088,0,0,0-5.923-2.72,11,11,0,0,0-9.546.646,16.929,16.929,0,0,0-3.59,2.891,41.518,41.518,0,0,1-5.207,4.939.576.576,0,0,0-.21.713c.181.644.367,1.291.493,1.948.429,2.133.48,4.326.994,6.442a11.912,11.912,0,0,0,6.64,8.514,23.911,23.911,0,0,0,6.233,1.64c.846.142,1.685.287,2.529.43.02.05.044.1.065.15-.312.275-.64.537-.929.832a36.546,36.546,0,0,0-4.6,5.215,10.768,10.768,0,0,0-1.929,6.723,14.72,14.72,0,0,0,1.806,5.931,40.735,40.735,0,0,1,3.135,6.56c.106.342.363.414.681.412a17.5,17.5,0,0,1,3.03.283,41.3,41.3,0,0,0,6.442.95,12.4,12.4,0,0,0,7.458-2.295.861.861,0,0,0,.412-.806c-.035-2.124-.158-4.241-.345-6.355a38.174,38.174,0,0,0-3.684-13,65.537,65.537,0,0,0-13.667-18.973c-.09-.086-.258-.141-.2-.359,2.268,0,4.536.011,6.8-.008a1.068,1.068,0,0,1,.922.426c2.489,2.963,4.913,5.971,7.128,9.141,4.325,6.2,7.773,12.775,8.949,20.375.033-.261.064-.513.1-.76a37.982,37.982,0,0,1,3.168-9.962c3.24-7.044,7.966-13.08,12.919-18.959a.571.571,0,0,1,.453-.256C-796.072,2351.186-793.7,2351.185-791.186,2351.185Z" transform="translate(861.345 -2310.346)"/><path class="c" d="M-822.64,2412.232a.7.7,0,0,1-.531-.166.72.72,0,0,1-.13-.557c.215-3.63.42-7.286.609-10.863.069-1.268.122-2.517.177-3.839.021-.488.041-.979.063-1.478a19.5,19.5,0,0,1-3.723,1.5,17.536,17.536,0,0,1-8.961.069,30.729,30.729,0,0,0-5.217-.842,7.241,7.241,0,0,0-4.207.809l-.365.212.085-.413a7.742,7.742,0,0,0-.726-4.8c-.379-.855-.844-1.689-1.293-2.5l-.185-.332c-.186-.335-.377-.671-.567-1a25.421,25.421,0,0,1-2.227-4.614,14.9,14.9,0,0,1,2.312-14.463,12.945,12.945,0,0,1,.875-.985c.163-.172.326-.343.482-.517a.76.76,0,0,1,.121-.1l.026-.021-.053,0a1.1,1.1,0,0,1-.116-.014,14.548,14.548,0,0,1-5.575-2.108,16.468,16.468,0,0,1-7.373-11.377c-.159-.973-.282-1.968-.4-2.928-.1-.826-.208-1.679-.336-2.515a8.993,8.993,0,0,0-2.391-5.458l-.286-.277.395-.047a8.274,8.274,0,0,0,4.758-2.6c.764-.739,1.493-1.541,2.2-2.318.82-.9,1.667-1.837,2.582-2.681a15.925,15.925,0,0,1,9.392-4.4,14.617,14.617,0,0,1,8.305,1.671l.235.123c-.011-.1-.022-.2-.033-.3-.048-.437-.094-.852-.119-1.273a15.32,15.32,0,0,1,4.018-11.2,16.888,16.888,0,0,1,6.19-4.466l.059-.026c1.361-.605,2.769-1.231,4.1-1.957a8.6,8.6,0,0,0,4-3.741l.173-.367.17.368c.858,1.869,2.369,2.931,4.374,3.948.8.408,1.638.784,2.447,1.149,1.11.5,2.257,1.017,3.34,1.624a15.656,15.656,0,0,1,7.273,7.975,14.608,14.608,0,0,1,.767,8.279l.089-.041c.361-.161.7-.313,1.047-.454,4.26-1.753,8.576-1.531,13.2.681a16.336,16.336,0,0,1,5.015,3.875c.262.283.523.571.784.857a33.818,33.818,0,0,0,3.475,3.469,7.141,7.141,0,0,0,3.763,1.807l.133.016.03.13a.437.437,0,0,1-.209.466.4.4,0,0,0-.057.048,8.168,8.168,0,0,0-1.942,4.243c-.225,1.154-.354,2.343-.48,3.494-.11,1.01-.223,2.056-.4,3.076-.942,5.385-3.474,9.165-7.74,11.555a14.139,14.139,0,0,1-5.2,1.711l-.071.007a.967.967,0,0,0-.1.013l.033.037c.506.556,1.028,1.13,1.492,1.749a14.581,14.581,0,0,1,2.875,7.682,16.875,16.875,0,0,1-2.334,10.332c-.711,1.192-1.424,2.51-2.241,4.15a8.466,8.466,0,0,0-1.024,5.348l.069.378-.343-.178a6.856,6.856,0,0,0-2.5-.79,16.664,16.664,0,0,0-4.959.464l-.269.053q-.471.092-.942.188a26.626,26.626,0,0,1-6.25.752,15.69,15.69,0,0,1-7.015-1.816.437.437,0,0,1-.046-.026c0,.209,0,.418-.006.625-.008.688-.015,1.34.014,2,.122,2.525.264,5.091.4,7.573l.169,3.093c.044.832.09,1.691.151,2.535a.7.7,0,0,1-.124.567.725.725,0,0,1-.54.167c-4.187-.017-8.436-.017-12.627,0Zm.6-17.556-.015.336q-.04.919-.078,1.81c-.056,1.324-.108,2.575-.177,3.844-.189,3.578-.395,7.234-.61,10.868-.014.2.012.257.028.273s.074.053.271.046c4.193-.017,8.442-.017,12.631,0,.193.005.248-.032.261-.047s.039-.085.024-.278c-.062-.85-.107-1.711-.152-2.544l-.169-3.092c-.137-2.482-.279-5.051-.4-7.577-.03-.671-.022-1.358-.015-2.021,0-.307.007-.614.007-.923v-.157l.155-.028a.457.457,0,0,1,.343.116,1.106,1.106,0,0,0,.1.064,15.345,15.345,0,0,0,6.851,1.772,26.322,26.322,0,0,0,6.16-.746c.315-.063.63-.127.944-.188l.269-.054a16.9,16.9,0,0,1,5.073-.468,6.97,6.97,0,0,1,2.3.667,9.022,9.022,0,0,1,1.115-5.219c.822-1.649,1.539-2.975,2.255-4.176a16.5,16.5,0,0,0,2.282-10.1,14.225,14.225,0,0,0-2.8-7.489c-.453-.6-.969-1.171-1.469-1.721l-.273-.3.089-.125a.612.612,0,0,1,.5-.256l.056,0a13.79,13.79,0,0,0,5.063-1.666c4.16-2.332,6.63-6.024,7.552-11.29.176-1.01.289-2.049.4-3.053.125-1.157.256-2.355.484-3.524a8.521,8.521,0,0,1,2.037-4.43.691.691,0,0,1,.069-.062,7.682,7.682,0,0,1-3.692-1.855,33.977,33.977,0,0,1-3.514-3.507q-.39-.428-.782-.856a15.982,15.982,0,0,0-4.9-3.789c-4.517-2.163-8.733-2.383-12.889-.673-.34.139-.678.288-1.035.449l-.758.336.074-.359a14.315,14.315,0,0,0-.678-8.42,15.292,15.292,0,0,0-7.107-7.787c-1.068-.6-2.208-1.112-3.31-1.608-.813-.366-1.653-.744-2.462-1.156a9.34,9.34,0,0,1-4.377-3.782,9.24,9.24,0,0,1-3.983,3.568c-1.341.734-2.756,1.363-4.124,1.971l-.059.027a16.5,16.5,0,0,0-6.056,4.366,14.954,14.954,0,0,0-3.928,10.935c.025.411.07.822.118,1.255.023.212.047.428.069.651l.034.344-.5-.252c-.135-.069-.249-.126-.362-.186a14.254,14.254,0,0,0-8.093-1.628,15.554,15.554,0,0,0-9.171,4.306c-.9.832-1.745,1.761-2.559,2.657-.709.781-1.441,1.589-2.215,2.336a8.862,8.862,0,0,1-4.6,2.653,9.593,9.593,0,0,1,2.238,5.406c.128.839.235,1.695.338,2.523.119.958.242,1.948.4,2.914a16.1,16.1,0,0,0,7.211,11.122,14.121,14.121,0,0,0,5.435,2.052.5.5,0,0,0,.077.009.43.43,0,0,1,.4.222.388.388,0,0,1-.185.484.384.384,0,0,0-.063.05c-.158.177-.324.351-.49.525-.29.306-.591.621-.85.956a14.541,14.541,0,0,0-2.252,14.114,25.155,25.155,0,0,0,2.2,4.544c.191.336.382.672.569,1.009l.184.331c.453.815.922,1.657,1.308,2.528a8.29,8.29,0,0,1,.819,4.64,7.848,7.848,0,0,1,4.067-.671,31.142,31.142,0,0,1,5.282.852,17.163,17.163,0,0,0,8.772-.066,19.017,19.017,0,0,0,3.942-1.63Zm-7.945-2.808h-.082a24.464,24.464,0,0,1-4.6-.6c-.614-.121-1.248-.247-1.874-.348a17.592,17.592,0,0,0-3-.281.783.783,0,0,1-.863-.545,26.723,26.723,0,0,0-2.243-4.881c-.292-.538-.6-1.094-.88-1.65a14.68,14.68,0,0,1-1.827-6.007,10.885,10.885,0,0,1,1.961-6.838,33.469,33.469,0,0,1,4.22-4.832l.407-.41c.207-.211.435-.407.656-.6l.116-.1-2.513-.428a23.508,23.508,0,0,1-6.1-1.626,12.15,12.15,0,0,1-6.744-8.64,30.5,30.5,0,0,1-.572-3.565c-.114-.951-.232-1.933-.423-2.884-.117-.606-.289-1.217-.454-1.806l-.036-.127a.763.763,0,0,1,.283-.919,26.415,26.415,0,0,0,3.848-3.541c.433-.455.881-.927,1.334-1.378a17.227,17.227,0,0,1,3.63-2.921,11.241,11.241,0,0,1,9.7-.66,46.931,46.931,0,0,1,5.152,2.333l.792.4.34.169c-.078-.532-.153-1.041-.227-1.541l-.126-.856a24.48,24.48,0,0,1-.321-6.6,11.716,11.716,0,0,1,3.24-6.576,16.169,16.169,0,0,1,5.17-3.475l.849-.4a25.977,25.977,0,0,0,4.385-2.4.677.677,0,0,1,.875-.038,27.852,27.852,0,0,0,4.759,2.677c.9.429,1.824.873,2.711,1.365a11.982,11.982,0,0,1,5.5,5.768,12.554,12.554,0,0,1,.866,5.843c-.112,1.891-.414,3.782-.706,5.613l-.1.606c0,.012,0,.022,0,.034a1.457,1.457,0,0,0,.184-.1c.045-.026.09-.052.134-.073.366-.181.729-.364,1.093-.546a36.666,36.666,0,0,1,5.223-2.29c4.315-1.371,8.388-.457,12.109,2.715a28.626,28.626,0,0,1,2.382,2.381q.324.35.65.7a22.049,22.049,0,0,0,2.932,2.7.8.8,0,0,1,.379.989,25.75,25.75,0,0,0-1.02,5.065c-.073.55-.148,1.117-.233,1.675a17.792,17.792,0,0,1-1.261,4.76,11.143,11.143,0,0,1-7.365,6.206,39.053,39.053,0,0,1-4.98,1.05c-.53.088-1.059.176-1.588.27-.109.02-.216.042-.325.064.032.033.067.064.1.1s.081.072.118.11c.279.289.561.574.842.86a41.042,41.042,0,0,1,3.753,4.182,11.793,11.793,0,0,1,2.264,8.861,16.883,16.883,0,0,1-2.189,5.94c-.142.261-.285.521-.428.78a26.429,26.429,0,0,0-2.091,4.416.78.78,0,0,1-.811.608,26.2,26.2,0,0,0-5.367.63c-.574.109-1.168.22-1.755.317a13.336,13.336,0,0,1-8.2-.823,10.554,10.554,0,0,1-1.922-1.2.821.821,0,0,1-.37-.688,51.657,51.657,0,0,1,1.219-11.87,49.137,49.137,0,0,1,6.391-14.341,66.371,66.371,0,0,1,10.143-12.53l.039-.038h-1.112c-1.949,0-3.833,0-5.715,0-.124,0-.2.061-.308.189-4.466,5.3-9.514,11.572-12.891,18.915a37.768,37.768,0,0,0-3.153,9.911c-.029.2-.055.4-.081.6l-.19,1.478-.2-1.321c-1.02-6.594-3.853-13.043-8.917-20.3-2.406-3.442-5.068-6.686-7.118-9.126a.9.9,0,0,0-.775-.359c-1.68.015-3.388.012-5.04.01l-1.469,0,.036.031a66.032,66.032,0,0,1,13.707,19.03,38.12,38.12,0,0,1,3.7,13.069c.2,2.26.312,4.344.346,6.37a1.046,1.046,0,0,1-.491.961A12.633,12.633,0,0,1-829.989,2391.868Zm-9.431-1.613a18.27,18.27,0,0,1,2.938.286c.632.1,1.27.229,1.886.351a24.16,24.16,0,0,0,4.526.6,12.284,12.284,0,0,0,7.348-2.259.676.676,0,0,0,.332-.647c-.033-2.018-.146-4.092-.344-6.344a37.76,37.76,0,0,0-3.667-12.94,65.684,65.684,0,0,0-13.628-18.918c-.012-.012-.029-.022-.045-.036a.441.441,0,0,1-.206-.506l.037-.14h1.91c1.651,0,3.359,0,5.036-.012h.021a1.255,1.255,0,0,1,1.047.5c2.055,2.447,4.724,5.7,7.138,9.153,4.794,6.869,7.6,13.028,8.778,19.271a38.655,38.655,0,0,1,3.114-9.587c3.4-7.386,8.463-13.681,12.946-19a.75.75,0,0,1,.6-.323c1.883,0,3.766,0,5.715,0h1.985l-.457.488c-.08.088-.135.146-.191.2a65.965,65.965,0,0,0-10.086,12.459,48.776,48.776,0,0,0-6.344,14.23,51.316,51.316,0,0,0-1.208,11.783.442.442,0,0,0,.223.385,10.25,10.25,0,0,0,1.853,1.162,12.972,12.972,0,0,0,7.974.79c.582-.1,1.174-.207,1.746-.315a26.332,26.332,0,0,1,5.445-.635.41.41,0,0,0,.443-.349,26.743,26.743,0,0,1,2.119-4.481c.143-.259.286-.517.427-.778a16.569,16.569,0,0,0,2.146-5.806,11.431,11.431,0,0,0-2.192-8.588,40.832,40.832,0,0,0-3.719-4.143c-.282-.287-.564-.573-.844-.861-.031-.031-.064-.061-.1-.092a.989.989,0,0,1-.333-.456l-.061-.2.387-.078c.139-.029.276-.058.413-.082.53-.1,1.061-.183,1.592-.271a38.778,38.778,0,0,0,4.932-1.038,10.785,10.785,0,0,0,7.131-6,17.441,17.441,0,0,0,1.231-4.659c.085-.554.16-1.12.232-1.667a26.039,26.039,0,0,1,1.038-5.139c.081-.234.025-.359-.247-.562a22.3,22.3,0,0,1-2.982-2.746q-.328-.348-.652-.7a28.5,28.5,0,0,0-2.349-2.349c-3.665-3.125-7.508-3.99-11.748-2.642a36.333,36.333,0,0,0-5.168,2.267q-.546.275-1.093.547c-.037.018-.075.04-.114.063a1.1,1.1,0,0,1-.564.187h-.2l.008-.257a2.254,2.254,0,0,1,.015-.249l.1-.611c.291-1.821.591-3.7.7-5.575a12.183,12.183,0,0,0-.835-5.671,11.613,11.613,0,0,0-5.338-5.587c-.876-.486-1.8-.928-2.69-1.355a28.11,28.11,0,0,1-4.824-2.715c-.109-.083-.222-.106-.425.041a26.34,26.34,0,0,1-4.447,2.437l-.846.4a15.833,15.833,0,0,0-5.054,3.388,11.356,11.356,0,0,0-3.143,6.367,24.178,24.178,0,0,0,.32,6.5l.126.855c.091.611.183,1.235.28,1.9l.052.358-.987-.49-.793-.4a46.652,46.652,0,0,0-5.11-2.314,10.739,10.739,0,0,0-9.389.633,16.872,16.872,0,0,0-3.549,2.859c-.449.447-.9.917-1.327,1.37a26.755,26.755,0,0,1-3.9,3.59c-.172.12-.207.253-.136.507l.036.127c.168.6.341,1.215.461,1.836.194.963.313,1.955.427,2.911a30.116,30.116,0,0,0,.565,3.521,11.643,11.643,0,0,0,6.537,8.388,23.221,23.221,0,0,0,6.006,1.595l2.813.479.039.1c.011.027.023.054.035.08l.082.19-.1.09c-.095.085-.191.166-.287.249-.214.184-.436.375-.632.574l-.408.412a33.182,33.182,0,0,0-4.174,4.777,10.512,10.512,0,0,0-1.9,6.606,14.315,14.315,0,0,0,1.786,5.855c.283.551.584,1.105.876,1.642a27.043,27.043,0,0,1,2.272,4.95c.065.207.191.271.5.278Z" transform="translate(862.551 -2309.051)"/></g><g transform="translate(110.928 58.987)"><path class="b" d="M-481.663,2544.734c-1.028-.683-1.973-1.318-2.922-1.953q-1.493-.99-2.984-1.985c-.1-.068-.276-.108-.247-.257.031-.185.23-.142.359-.158q4.859-.547,9.722-1.094c.316-.037.465,0,.408.379a11.34,11.34,0,0,0-.12,1.463c0,.342-.154.413-.46.436-1.227.1-2.454.219-3.677.336-.136.014-.271.058-.5.106,1.281.854,2.487,1.654,3.693,2.455.225.149.445.311.68.446.371.214.274.337-.053.483-1.448.66-2.893,1.333-4.339,2.006a.9.9,0,0,0-.49.321c1.213.345,2.4.685,3.588,1.021.838.239.838.239.776,1.093-.01.146-.029.288-.05.432-.117.865-.117.863-.936.621q-4.423-1.316-8.842-2.627c-.15-.045-.4-.017-.418-.195-.031-.223.236-.229.383-.3C-485.984,2546.767-483.869,2545.775-481.663,2544.734Z" transform="translate(488.67 -2539.087)"/><path class="c" d="M-479.165,2550.669a2.637,2.637,0,0,1-.649-.146l-3.1-.92q-2.873-.853-5.743-1.709c-.033-.008-.07-.014-.108-.02-.143-.021-.41-.059-.444-.333-.045-.325.26-.418.39-.458.035-.012.07-.021.1-.035,1.189-.562,2.378-1.122,3.583-1.689l2.546-1.2c-.63-.42-1.23-.821-1.822-1.219l-1.4-.933q-1.2-.8-2.406-1.6c-.019-.012-.04-.023-.062-.035a.388.388,0,0,1-.266-.413c.049-.3.332-.3.453-.308a.476.476,0,0,0,.069,0l2.343-.261q3.689-.413,7.38-.833a.6.6,0,0,1,.521.108.571.571,0,0,1,.1.489,11.249,11.249,0,0,0-.118,1.438c-.005.5-.308.6-.635.62-1.044.084-2.106.187-3.132.285l-.541.052-.047.007,2.443,1.623.883.586.193.131c.155.108.315.218.477.31s.342.221.333.418c-.011.223-.265.338-.4.4q-1.95.89-3.9,1.8l-.441.2c-.037.017-.077.033-.119.049l-.048.02.991.282c.753.215,1.5.428,2.246.638.922.264.982.347.913,1.288-.009.143-.027.282-.051.448-.067.486-.1.732-.291.856A.406.406,0,0,1-479.165,2550.669Zm-9.655-3.186c.031.007.075.014.1.017a1.042,1.042,0,0,1,.162.033q2.869.855,5.742,1.706l3.1.921a2,2,0,0,0,.574.126,2.034,2.034,0,0,0,.121-.592c.023-.157.04-.288.048-.42a1.452,1.452,0,0,0-.016-.656c-.059-.081-.271-.142-.623-.241-.747-.211-1.494-.424-2.246-.64l-1.588-.452.138-.215a.872.872,0,0,1,.473-.351c.032-.013.064-.024.094-.038l.442-.207c1.3-.6,2.6-1.207,3.9-1.8a1.3,1.3,0,0,0,.146-.075.819.819,0,0,0-.109-.071c-.175-.1-.341-.214-.5-.325l-.189-.128-.883-.586c-.915-.608-1.841-1.222-2.81-1.868l-.372-.248.437-.094c.083-.02.152-.035.214-.051a2.44,2.44,0,0,1,.306-.061l.543-.053c1.028-.1,2.091-.2,3.139-.284.265-.019.284-.053.286-.249a11.684,11.684,0,0,1,.122-1.489.35.35,0,0,0,0-.174s-.011,0-.047,0a1.266,1.266,0,0,0-.155.01q-3.691.423-7.381.831l-2.342.263c-.03,0-.065.005-.1.005h-.037l.012.007a.88.88,0,0,1,.1.055q1.2.8,2.4,1.6l1.4.935c.679.453,1.369.916,2.1,1.4l.279.186-.3.142-2.849,1.343c-1.206.566-2.394,1.126-3.582,1.686a.956.956,0,0,1-.15.056A.92.92,0,0,0-488.821,2547.483Z" transform="translate(489.219 -2538.541)"/></g><g transform="translate(22.669 99.97)"><path class="b" d="M-824.8,2706.313c.735-.394,1.418-.759,2.1-1.127,1.369-.742,2.737-1.49,4.109-2.229.133-.07.279-.252.438-.116s-.018.3-.068.434c-1.187,3.013-2.391,6.022-3.575,9.037-.127.333-.243.43-.56.189-.474-.359-1.218-.582-1.4-1.044s.345-1.081.566-1.633c.31-.79.644-1.575.966-2.359a.6.6,0,0,0,.012-.134c-.2-.078-.329.08-.471.156-1.343.722-2.675,1.449-4.015,2.172-.136.072-.282.233-.443.112-.129-.1-.055-.273-.044-.412.116-1.753.242-3.506.368-5.284-.237-.023-.313.172-.423.283-.873.9-1.752,1.79-2.6,2.715a.462.462,0,0,1-.754.069,8.693,8.693,0,0,0-1.046-.687c-.292-.164-.281-.286-.051-.514,1.013-1.015,2.01-2.044,3.012-3.066q1.909-1.945,3.814-3.881c.111-.108.2-.329.375-.256s.087.293.079.442C-824.529,2701.534-824.663,2703.884-824.8,2706.313Z" transform="translate(832.046 -2698.535)"/><path class="c" d="M-822.615,2712.275a.694.694,0,0,1-.4-.175,4.493,4.493,0,0,0-.524-.318,1.9,1.9,0,0,1-.939-.8c-.169-.409.078-.854.317-1.281a4.535,4.535,0,0,0,.249-.492c.206-.522.422-1.045.638-1.566.085-.2.168-.406.252-.609a1.333,1.333,0,0,1-.117.076q-1.088.584-2.169,1.172-.922.5-1.845,1a.84.84,0,0,0-.079.048.456.456,0,0,1-.568.048.464.464,0,0,1-.13-.5c0-.03.01-.056.012-.083.107-1.611.221-3.224.337-4.856l.006-.083a1.128,1.128,0,0,1-.074.088l-.375.384c-.735.754-1.5,1.535-2.218,2.325a.64.64,0,0,1-1.009.091,8.362,8.362,0,0,0-1.024-.67.545.545,0,0,1-.316-.366.56.56,0,0,1,.225-.448q1.109-1.113,2.2-2.243l.8-.822q1.909-1.945,3.814-3.881c.025-.026.046-.054.067-.081a.431.431,0,0,1,.514-.218c.284.111.232.408.21.537a.909.909,0,0,0-.013.091c-.085,1.656-.177,3.312-.271,5l-.1,1.8.01-.007,1.791-.96,1.442-.783q1.333-.728,2.667-1.445c.025-.015.05-.031.076-.05a.434.434,0,0,1,.574-.045.411.411,0,0,1,.028.57.51.51,0,0,0-.041.075q-.818,2.075-1.641,4.145-.97,2.448-1.935,4.9c-.073.191-.167.376-.352.429A.39.39,0,0,1-822.615,2712.275Zm-.249-5.7a.483.483,0,0,1,.176.034l.134.052-.015.144a.426.426,0,0,0,0,.047.357.357,0,0,1-.025.142c-.107.262-.217.528-.328.794-.215.518-.431,1.037-.636,1.561a4.748,4.748,0,0,1-.27.535c-.2.35-.4.713-.3.956s.44.432.771.613a4.962,4.962,0,0,1,.571.35c.124.1.169.1.171.1h0a.875.875,0,0,0,.1-.2q.963-2.451,1.937-4.9.821-2.071,1.639-4.143a1.118,1.118,0,0,1,.069-.133.5.5,0,0,0,.053-.1c-.02.016-.077.057-.11.08a.989.989,0,0,1-.117.077c-.889.477-1.777.961-2.665,1.444l-1.443.783c-.585.318-1.173.631-1.793.964l-.6.322.137-2.472c.093-1.68.185-3.336.271-4.994a1.234,1.234,0,0,1,.018-.136.982.982,0,0,0,.015-.1c-.021.023-.046.056-.063.078a1.145,1.145,0,0,1-.1.122q-1.9,1.931-3.811,3.877l-.8.822c-.721.739-1.467,1.5-2.209,2.246a.571.571,0,0,0-.113.136c.008,0,.039.031.123.08a9.1,9.1,0,0,1,1.068.7c.233.18.3.172.5-.045.728-.795,1.49-1.577,2.228-2.335l.374-.384c.021-.022.039-.045.059-.07a.556.556,0,0,1,.518-.27l.184.017-.044.609c-.116,1.632-.231,3.245-.337,4.857,0,.041-.01.081-.017.119a.459.459,0,0,0-.012.134.368.368,0,0,0,.13-.065,1.211,1.211,0,0,1,.11-.067c.614-.331,1.228-.665,1.843-1l2.17-1.174a.532.532,0,0,0,.084-.053A.654.654,0,0,1-822.864,2706.57Z" transform="translate(832.592 -2697.986)"/></g><g transform="translate(3.14 74.37)"><path class="b" d="M-897.16,2604.2a5.383,5.383,0,0,1-5.447,5.3,5.115,5.115,0,0,1-5.228-5.011,5.492,5.492,0,0,1,5.52-5.369A5.1,5.1,0,0,1-897.16,2604.2Zm-5.362-2.612a3.535,3.535,0,0,0-1.937.834,2.613,2.613,0,0,0-.9,3,2.617,2.617,0,0,0,2.652,1.6,3.652,3.652,0,0,0,2.279-.9,2.585,2.585,0,0,0,.809-2.94C-899.993,2602.21-900.968,2601.593-902.521,2601.591Z" transform="translate(908.024 -2598.934)"/><path class="c" d="M-903.31,2609.148a5.213,5.213,0,0,1-3.64-1.49,5.243,5.243,0,0,1-1.62-3.711,5.377,5.377,0,0,1,1.6-3.831,5.854,5.854,0,0,1,4.114-1.729h.03a5.261,5.261,0,0,1,5.315,5.267v0a5.575,5.575,0,0,1-5.631,5.488C-903.2,2609.148-903.256,2609.148-903.31,2609.148Zm.478-10.383h-.028a5.477,5.477,0,0,0-3.846,1.617,5,5,0,0,0-1.486,3.562,4.867,4.867,0,0,0,1.5,3.443,4.859,4.859,0,0,0,3.529,1.38,5.205,5.205,0,0,0,5.264-5.11A4.887,4.887,0,0,0-902.833,2598.765Zm-.588,7.917a2.789,2.789,0,0,1-2.662-1.731,2.8,2.8,0,0,1,.957-3.221,3.726,3.726,0,0,1,2.054-.875h0a2.987,2.987,0,0,1,3.079,1.729,2.776,2.776,0,0,1-.861,3.149,3.823,3.823,0,0,1-2.393.942C-903.3,2606.679-903.361,2606.682-903.42,2606.682Zm.353-5.448a3.332,3.332,0,0,0-1.82.791,2.432,2.432,0,0,0-.841,2.792,2.436,2.436,0,0,0,2.465,1.482,3.468,3.468,0,0,0,2.163-.848,2.414,2.414,0,0,0,.758-2.732A2.636,2.636,0,0,0-903.067,2601.234Z" transform="translate(908.571 -2598.387)"/></g><g transform="translate(68.689 109.123)"><path class="b" d="M-652.814,2739.516a5.1,5.1,0,0,1,5.047-5.184,5.386,5.386,0,0,1,5.268,5.574,5.159,5.159,0,0,1-5.122,5.136A5.368,5.368,0,0,1-652.814,2739.516Zm7.852.453a3.64,3.64,0,0,0-.61-2.051,2.578,2.578,0,0,0-2.514-1.3,2.471,2.471,0,0,0-2.193,1.98,3.624,3.624,0,0,0,.412,2.668,2.7,2.7,0,0,0,2.977,1.393A2.613,2.613,0,0,0-644.962,2739.969Z" transform="translate(653.003 -2734.141)"/><path class="c" d="M-648.1,2744.683h-.074a5.559,5.559,0,0,1-5.379-5.713h0a5.268,5.268,0,0,1,5.235-5.372,5.168,5.168,0,0,1,3.749,1.549,5.867,5.867,0,0,1,1.709,4.213,5.393,5.393,0,0,1-1.614,3.807A5.149,5.149,0,0,1-648.1,2744.683Zm-5.075-5.715a5.186,5.186,0,0,0,5.007,5.337,4.808,4.808,0,0,0,3.429-1.409,5.011,5.011,0,0,0,1.5-3.537,5.5,5.5,0,0,0-1.6-3.946,4.861,4.861,0,0,0-3.479-1.439,4.9,4.9,0,0,0-4.86,4.994Zm5.136,3.413a2.974,2.974,0,0,1-2.545-1.566,3.817,3.817,0,0,1-.43-2.806,2.653,2.653,0,0,1,2.356-2.121,2.738,2.738,0,0,1,2.692,1.379,3.816,3.816,0,0,1,.642,2.154h0a2.8,2.8,0,0,1-2.071,2.878A2.537,2.537,0,0,1-648.036,2742.381Zm-.293-6.135a2.334,2.334,0,0,0-.284.017,2.291,2.291,0,0,0-2.031,1.836,3.446,3.446,0,0,0,.394,2.532,2.506,2.506,0,0,0,2.764,1.3,2.43,2.43,0,0,0,1.788-2.511h0a3.448,3.448,0,0,0-.578-1.944A2.427,2.427,0,0,0-648.329,2736.246Z" transform="translate(653.55 -2733.596)"/></g><g transform="translate(59.156 110.614)"><path class="b" d="M-689.631,2746.229c-.112-2.26-.184-3.8-.267-5.338-.014-.229.035-.331.282-.336.578-.019,1.157-.052,1.734-.1.26-.018.347.069.355.332.044.976.124,1.955.156,2.931.009.35.129.407.451.382,1-.07,1.993-.112,2.99-.136.324-.01.441-.09.42-.435-.064-.958-.081-1.919-.136-2.879-.017-.289.037-.427.369-.427a11.957,11.957,0,0,0,1.462-.083c.385-.044.544.056.559.48.058,1.682.147,3.368.234,5.052.059,1.339.119,2.68.208,4.017.026.377-.081.525-.457.527-.526,0-1.054.016-1.575.056-.313.024-.349-.125-.356-.382-.046-1.124-.124-2.244-.162-3.368-.013-.336-.124-.429-.455-.408-1.012.059-2.028.1-3.04.125-.307.008-.4.121-.383.423.068,1.124.095,2.248.181,3.368.028.361-.047.485-.414.485-.522,0-1.05.031-1.573.077-.29.022-.367-.087-.38-.362C-689.5,2748.658-689.586,2747.084-689.631,2746.229Z" transform="translate(690.09 -2739.944)"/><path class="c" d="M-689.667,2750.242a.5.5,0,0,1-.338-.109.585.585,0,0,1-.16-.437c-.062-1.39-.137-2.78-.185-3.674l-.108-2.177c-.065-1.33-.118-2.41-.176-3.491a.522.522,0,0,1,.1-.4.5.5,0,0,1,.364-.136c.537-.016,1.1-.046,1.725-.094a.531.531,0,0,1,.41.105.551.551,0,0,1,.148.409c.019.419.045.842.07,1.266.033.545.068,1.108.086,1.664,0,.16.032.187.034.187s.038.027.213.013c.936-.067,1.917-.111,3-.137.165,0,.2-.029.214-.039s.031-.042.021-.194c-.036-.535-.058-1.078-.078-1.6-.017-.425-.033-.851-.058-1.275a.621.621,0,0,1,.119-.481.587.587,0,0,1,.438-.147.554.554,0,0,1,.081,0,12.03,12.03,0,0,0,1.36-.084.732.732,0,0,1,.569.116.739.739,0,0,1,.2.546c.054,1.582.138,3.192.219,4.748l.016.3c.058,1.311.118,2.664.208,4.015a.723.723,0,0,1-.137.556.681.681,0,0,1-.508.173c-.621,0-1.117.022-1.562.054a.532.532,0,0,1-.409-.105.6.6,0,0,1-.151-.458c-.021-.5-.047-1-.075-1.506-.032-.611-.067-1.24-.087-1.861-.006-.156-.035-.2-.044-.2s-.055-.031-.21-.023c-.954.057-1.95.1-3.047.126-.136,0-.171.03-.178.038s-.031.045-.022.185c.028.458.049.916.069,1.374.03.654.061,1.329.112,1.991a.678.678,0,0,1-.119.533.633.633,0,0,1-.478.155h-.035c-.437,0-.91.023-1.526.077C-689.606,2750.24-689.636,2750.242-689.667,2750.242Zm-.323-4.57.018.331c.048.9.123,2.285.185,3.677.006.146.031.169.033.17s.026.021.144.012a15.671,15.671,0,0,1,1.587-.078h0c.162,0,.2-.03.2-.036s.033-.051.019-.246c-.051-.667-.082-1.346-.112-2-.021-.458-.042-.914-.069-1.369a.611.611,0,0,1,.121-.462.611.611,0,0,1,.447-.162c1.093-.029,2.085-.07,3.034-.125a.649.649,0,0,1,.487.121.639.639,0,0,1,.168.469c.021.618.055,1.247.088,1.855.027.5.054,1.008.075,1.512,0,.145.018.183.027.192h0a.25.25,0,0,0,.127.009c.453-.033.958-.052,1.588-.056.153,0,.211-.028.233-.052s.049-.093.037-.272c-.09-1.357-.15-2.713-.208-4.023l-.016-.3c-.081-1.559-.165-3.17-.219-4.754-.006-.183-.04-.249-.068-.274s-.133-.041-.28-.025a11.83,11.83,0,0,1-1.485.085h0c-.134,0-.16.028-.161.029s-.027.037-.017.2c.025.428.042.855.058,1.283.021.523.042,1.063.077,1.594a.619.619,0,0,1-.12.473.648.648,0,0,1-.484.162c-1.077.027-2.052.071-2.981.136a.64.64,0,0,1-.494-.107.617.617,0,0,1-.159-.458c-.019-.548-.053-1.11-.086-1.652-.026-.426-.052-.851-.071-1.275a.291.291,0,0,0-.024-.143h0a.252.252,0,0,0-.129-.009c-.629.046-1.2.078-1.741.1a.24.24,0,0,0-.1.015.746.746,0,0,0,0,.121c.059,1.083.111,2.165.176,3.495Z" transform="translate(690.637 -2739.398)"/></g><g transform="translate(8.255 84.953)"><path class="b" d="M-881.093,2648.6c-.05-.087-.111-.176-.169-.265-.57-.858-1.158-1.712-1.712-2.583-.171-.269-.294-.268-.544-.1-.922.637-1.874,1.237-2.795,1.884-.316.224-.465.18-.649-.146-.267-.451-.569-.884-.878-1.31-.151-.215-.124-.333.092-.479q3.914-2.6,7.815-5.229c.23-.156.336-.087.467.114.3.479.607.948.936,1.4.174.234.13.355-.1.506-.808.518-1.6,1.061-2.412,1.575-.27.172-.367.3-.146.611.591.823,1.153,1.67,1.7,2.527.194.312.339.31.62.113.769-.546,1.568-1.05,2.336-1.6.282-.2.419-.153.588.123.273.448.575.882.883,1.306.161.215.166.334-.084.5q-3.9,2.587-7.771,5.2c-.239.161-.37.133-.515-.106a13.411,13.411,0,0,0-.853-1.258c-.24-.3-.213-.458.115-.665.935-.591,1.846-1.218,2.761-1.836C-881.3,2648.825-881.14,2648.781-881.093,2648.6Z" transform="translate(888.124 -2640.108)"/><path class="c" d="M-883.72,2652.51a.4.4,0,0,1-.084-.011.561.561,0,0,1-.34-.288,13.024,13.024,0,0,0-.84-1.24.677.677,0,0,1-.193-.514.689.689,0,0,1,.356-.428c.769-.486,1.534-1,2.274-1.506l.484-.327c.031-.021.063-.037.1-.056a.542.542,0,0,0,.112-.076l-.075-.112-.036-.056c-.175-.264-.353-.528-.531-.792-.393-.584-.8-1.19-1.182-1.793-.092-.146-.105-.128-.11-.128s-.049.006-.167.086c-.425.3-.857.581-1.289.869-.5.329-1.009.668-1.5,1.016a.682.682,0,0,1-.52.164.669.669,0,0,1-.4-.371c-.267-.455-.575-.89-.867-1.295a.545.545,0,0,1-.125-.408.543.543,0,0,1,.265-.336c2.853-1.9,5.409-3.611,7.815-5.23a.526.526,0,0,1,.4-.108.557.557,0,0,1,.336.28c.284.449.593.926.931,1.391a.56.56,0,0,1,.136.421.587.587,0,0,1-.29.355c-.382.244-.761.494-1.139.745-.423.278-.846.559-1.274.829-.141.091-.175.136-.18.157s0,.055.087.183c.538.752,1.1,1.581,1.7,2.537.089.144.135.159.144.161s.065,0,.208-.1c.375-.266.762-.525,1.137-.776.4-.264.805-.538,1.2-.82a.613.613,0,0,1,.475-.148.616.616,0,0,1,.384.327c.3.487.624.948.875,1.295a.558.558,0,0,1,.144.421.572.572,0,0,1-.275.35c-2.71,1.8-5.449,3.636-7.771,5.2A.678.678,0,0,1-883.72,2652.51Zm-.07-7.7a.292.292,0,0,1,.078.008.589.589,0,0,1,.352.294c.381.6.786,1.2,1.177,1.784.178.266.356.529.532.795l.036.055c.049.075.1.147.139.218l.041.069-.02.077a.583.583,0,0,1-.329.364c-.024.015-.047.027-.068.04l-.482.326c-.742.5-1.51,1.024-2.283,1.512-.158.1-.182.153-.185.172s0,.074.117.216a13.156,13.156,0,0,1,.866,1.279c.065.106.1.114.1.114s.036.008.15-.069c2.323-1.562,5.063-3.4,7.772-5.2.1-.069.113-.1.113-.1a.385.385,0,0,0-.077-.132c-.257-.355-.59-.823-.892-1.32-.084-.135-.125-.154-.135-.156s-.053,0-.18.088c-.4.283-.81.561-1.208.826-.373.249-.758.509-1.13.77a.651.651,0,0,1-.5.162.646.646,0,0,1-.389-.331c-.6-.948-1.157-1.771-1.691-2.518a.636.636,0,0,1-.15-.474.671.671,0,0,1,.348-.405c.427-.269.847-.547,1.268-.827.38-.25.76-.5,1.144-.746.111-.074.122-.105.122-.106h0s0-.033-.069-.129c-.345-.474-.658-.957-.944-1.412a.368.368,0,0,0-.094-.114.327.327,0,0,0-.107.055c-2.407,1.62-4.963,3.331-7.816,5.23-.093.061-.1.091-.1.093h0s0,.03.061.118c.3.409.609.855.886,1.326.092.159.14.184.156.189s.068,0,.221-.1c.5-.351,1.015-.694,1.513-1.024.43-.284.86-.57,1.284-.862A.7.7,0,0,1-883.79,2644.806Z" transform="translate(888.671 -2639.561)"/></g><g transform="translate(105.2 77.428)"><path class="b" d="M-505.453,2618.693c1.556.654,2.988,1.259,4.421,1.858.655.273.657.271.372.941-.141.336-.307.661-.421,1-.107.318-.247.352-.552.222-2.682-1.139-5.37-2.259-8.059-3.384-.218-.092-.437-.172-.649-.28-.15-.076-.415-.062-.423-.273s.24-.237.4-.307c.857-.389,1.719-.771,2.575-1.157l4.364-1.95c.124-.058.25-.125.472-.234-.37-.163-.656-.3-.945-.419-1.249-.523-2.5-1.05-3.758-1.561-.292-.119-.391-.237-.224-.553.265-.511.351-1.288.754-1.511.427-.237,1.04.313,1.568.532,2.526,1.045,5.042,2.107,7.563,3.165.14.061.368.064.381.247.018.237-.241.238-.39.306C-500.45,2616.446-502.893,2617.541-505.453,2618.693Z" transform="translate(510.955 -2610.837)"/><path class="c" d="M-501.915,2622.421a.869.869,0,0,1-.34-.086c-2.277-.966-4.6-1.935-6.839-2.872l-1.219-.51c-.064-.028-.128-.052-.191-.079-.154-.063-.314-.128-.471-.207a.862.862,0,0,0-.116-.037c-.14-.038-.4-.109-.411-.4-.02-.309.27-.4.409-.451a.645.645,0,0,0,.1-.034q.759-.344,1.522-.683l1.054-.473,1.535-.687q1.417-.632,2.829-1.264c.034-.016.069-.033.107-.052-.206-.093-.391-.176-.577-.254l-.569-.239c-1.043-.437-2.122-.888-3.187-1.323a.633.633,0,0,1-.4-.332.61.61,0,0,1,.079-.484,4.213,4.213,0,0,0,.221-.567,1.723,1.723,0,0,1,.609-1.021c.395-.219.841.036,1.273.282a4.084,4.084,0,0,0,.458.24c2.041.844,4.109,1.714,6.109,2.555l1.454.612a.979.979,0,0,0,.1.031c.133.037.38.107.4.378.025.33-.266.416-.405.458a.758.758,0,0,0-.1.032c-1.845.838-3.693,1.67-5.592,2.523l-1.455.654.28.118c1.3.546,2.518,1.06,3.74,1.571.377.157.563.234.64.422s0,.384-.167.767c-.047.113-.1.224-.148.336a6.761,6.761,0,0,0-.267.649.6.6,0,0,1-.291.387A.4.4,0,0,1-501.915,2622.421Zm-5.529-11.756a.3.3,0,0,0-.144.033c-.2.111-.319.466-.434.811a4.51,4.51,0,0,1-.244.624c-.073.137-.059.176-.058.178s.023.045.186.111c1.067.433,2.146.886,3.19,1.323l.569.239c.19.079.378.164.588.258l.731.326-.593.294c-.1.048-.171.087-.245.121l-2.832,1.266-1.534.685q-.525.238-1.054.473c-.506.226-1.014.455-1.52.683a1.414,1.414,0,0,1-.136.051.472.472,0,0,0-.151.065c.015.027.09.046.134.059a.988.988,0,0,1,.188.064c.143.073.288.132.443.195l.195.08,1.218.511c2.244.937,4.564,1.906,6.841,2.873.161.069.205.056.212.053s.039-.021.087-.161a7.149,7.149,0,0,1,.281-.686c.049-.108.1-.218.144-.329a1.711,1.711,0,0,0,.165-.476,1.621,1.621,0,0,0-.429-.215c-1.229-.513-2.45-1.027-3.748-1.574l-1.081-.455,2.248-1.011c1.9-.853,3.746-1.684,5.59-2.522a1.009,1.009,0,0,1,.144-.05.571.571,0,0,0,.137-.054c-.013-.023-.084-.044-.126-.055a1.071,1.071,0,0,1-.143-.049l-1.452-.609c-2-.841-4.067-1.711-6.107-2.555a4.457,4.457,0,0,1-.5-.26A1.884,1.884,0,0,0-507.443,2610.666Z" transform="translate(511.503 -2610.285)"/></g><g transform="translate(0 58.645)"><path class="b" d="M-914.585,2543.1c-.661,1.623-1.746,2.222-3.229,1.822a2.678,2.678,0,0,1-1.912-2.167,25.893,25.893,0,0,1-.322-4.335c-.021-.25.121-.307.334-.309.473-.006.942-.019,1.416-.026,2.593-.042,5.19-.075,7.786-.136.419-.009.57.094.548.532a26.463,26.463,0,0,1-.1,4.02,2.353,2.353,0,0,1-3.367,1.894A2.48,2.48,0,0,1-914.585,2543.1Zm-2.3-2.848c-1.426.008-1.557.169-1.223,1.5a1.71,1.71,0,0,0,.116.3,1.161,1.161,0,0,0,1.124.709c.9,0,1.263-.513,1.263-1.817,0-.7,0-.7-1.064-.693Zm4.149-.093c-1.349.029-1.4.085-1.126,1.305a1.136,1.136,0,0,0,1.238.975q.818-.044.941-1.069C-911.533,2540.133-911.533,2540.133-912.737,2540.16Z" transform="translate(920.24 -2537.759)"/><path class="c" d="M-917.508,2544.686a3.452,3.452,0,0,1-.9-.129,2.842,2.842,0,0,1-2.046-2.3,12.316,12.316,0,0,1-.271-2.865c-.007-.494-.015-1-.056-1.5a.465.465,0,0,1,.1-.367.546.546,0,0,1,.418-.145c.243,0,.486-.008.73-.014l.685-.013,2.051-.032c1.879-.029,3.822-.058,5.733-.1a.77.77,0,0,1,.592.166.74.74,0,0,1,.15.565c-.017.467,0,.949.011,1.415a12.084,12.084,0,0,1-.115,2.632,2.77,2.77,0,0,1-1.391,2.016,2.525,2.525,0,0,1-2.239.015,2.335,2.335,0,0,1-1.06-1.038A2.612,2.612,0,0,1-917.508,2544.686Zm-2.893-6.911a.168.168,0,0,0-.005.082c.042.509.05,1.026.057,1.525a12.026,12.026,0,0,0,.259,2.779,2.464,2.464,0,0,0,1.777,2.031c1.4.38,2.382-.18,3-1.709l.157-.387.187.373a2.29,2.29,0,0,0,1.061,1.206,2.157,2.157,0,0,0,1.909-.005,2.4,2.4,0,0,0,1.195-1.751,11.8,11.8,0,0,0,.109-2.549c-.014-.472-.029-.96-.011-1.443.009-.188-.018-.257-.043-.283s-.142-.056-.312-.052c-1.912.044-3.856.075-5.736.1l-2.051.032c-.229,0-.456.008-.682.013-.245,0-.489.01-.734.012-.117,0-.142.021-.142.023Zm2.977,4.629a1.34,1.34,0,0,1-1.285-.815,1.845,1.845,0,0,1-.129-.338c-.18-.716-.232-1.129-.021-1.4s.632-.33,1.426-.335h.218c.655,0,.928,0,1.1.168.151.152.151.364.151.717,0,.99-.172,2-1.452,2.005Zm-.007-2.511c-.609,0-1.011.036-1.129.188s-.051.522.088,1.076a1.518,1.518,0,0,0,.1.267.977.977,0,0,0,.946.6h.007c.682,0,1.076-.267,1.076-1.627a1.149,1.149,0,0,0-.04-.449,2.351,2.351,0,0,0-.834-.057Zm4.175,2.191a1.317,1.317,0,0,1-1.339-1.126c-.139-.632-.209-1-.016-1.247s.59-.274,1.323-.29h0c.656-.015.984-.02,1.175.19s.155.534.071,1.234c-.12.977-.675,1.211-1.119,1.236Zm.372-2.29c-.117,0-.25,0-.4.006h0c-.548.011-.943.029-1.034.144s-.013.469.089.932a.945.945,0,0,0,1.044.826c.282-.016.669-.125.764-.9.06-.492.1-.848.024-.935C-912.445,2539.809-912.623,2539.8-912.884,2539.8Z" transform="translate(920.786 -2537.212)"/></g><g transform="translate(35.981 106.144)"><path class="b" d="M-775.757,2723.158c.857.31,1.617.6,2.388.853a.665.665,0,0,1,.483.514c.241.872.526,1.733.737,2.611.1.4.224.353.487.156.679-.517,1.38-1,2.057-1.521a.748.748,0,0,1,.793-.142c.683.24,1.377.433,2.177.679-.319.231-.555.405-.8.576-1.2.851-2.394,1.707-3.6,2.543a.491.491,0,0,0-.237.661c.552,1.8,1.07,3.611,1.594,5.417.049.168.095.336.165.593-.926-.335-1.771-.643-2.615-.945-.25-.086-.228-.316-.282-.491-.31-1.06-.613-2.12-.891-3.191-.09-.351-.2-.338-.456-.15-.88.644-1.772,1.265-2.641,1.918a.712.712,0,0,1-.788.117c-.652-.267-1.319-.493-2.054-.763,1.024-.727,2-1.42,2.973-2.107.608-.431,1.2-.88,1.831-1.277a.523.523,0,0,0,.235-.711c-.492-1.631-.969-3.263-1.447-4.9C-775.683,2723.485-775.709,2723.365-775.757,2723.158Z" transform="translate(779.642 -2722.861)"/><path class="c" d="M-770.4,2735.548l-.924-.335c-.7-.256-1.368-.5-2.032-.733a.576.576,0,0,1-.376-.51.993.993,0,0,0-.024-.1c-.276-.942-.6-2.059-.893-3.2a.913.913,0,0,0-.04-.126,1.214,1.214,0,0,0-.121.08c-.357.263-.717.521-1.076.777-.516.371-1.049.754-1.564,1.141a.9.9,0,0,1-.973.141c-.444-.183-.9-.345-1.376-.519-.218-.078-.442-.159-.672-.245l-.336-.123.292-.208,2.973-2.109c.172-.121.343-.244.514-.367.427-.309.87-.627,1.326-.914.207-.132.236-.224.154-.5-.473-1.565-.939-3.16-1.389-4.7l-.058-.195c-.029-.1-.051-.192-.083-.333l-.107-.461.327.117.73.267c.571.21,1.11.408,1.652.584a.851.851,0,0,1,.607.642c.09.325.185.647.281.969.159.538.324,1.095.458,1.65a.819.819,0,0,0,.048.146,1.079,1.079,0,0,0,.141-.1c.327-.249.66-.49.993-.733.357-.259.713-.519,1.063-.787a.938.938,0,0,1,.973-.169c.472.166.957.313,1.472.467l.7.209.362.112-.359.261c-.293.214-.517.377-.747.539l-.6.425c-.982.7-2,1.422-3.006,2.119-.2.138-.241.2-.164.448.47,1.531.922,3.1,1.359,4.607l.236.816c.049.169.1.337.166.6Zm-4.26-5.4a.3.3,0,0,1,.1.018.522.522,0,0,1,.274.4c.294,1.133.614,2.246.889,3.185a1.3,1.3,0,0,1,.032.141c.03.154.047.2.129.224.667.238,1.331.48,2.035.735l.24.086c-.024-.085-.045-.161-.068-.238l-.236-.816c-.437-1.511-.889-3.073-1.357-4.6a.674.674,0,0,1,.311-.873c1-.7,2.02-1.419,3-2.116l.6-.425c.157-.111.313-.224.49-.352-.112-.033-.222-.068-.331-.1-.519-.156-1.009-.3-1.491-.471a.559.559,0,0,0-.616.114c-.351.27-.71.53-1.069.791-.331.24-.661.481-.987.729-.14.105-.314.237-.5.17s-.24-.252-.285-.431c-.131-.549-.295-1.1-.453-1.632-.1-.326-.193-.649-.283-.976a.479.479,0,0,0-.36-.384c-.549-.179-1.091-.378-1.665-.589l-.4-.147c.009.033.017.065.026.1l.058.2c.451,1.541.917,3.134,1.389,4.7a.71.71,0,0,1-.315.927c-.447.281-.884.6-1.307.9-.172.123-.344.247-.517.369l-2.679,1.9.332.119c.483.174.939.339,1.391.524a.536.536,0,0,0,.6-.092c.518-.39,1.053-.774,1.571-1.146q.537-.384,1.072-.775A.676.676,0,0,1-774.656,2730.15Z" transform="translate(780.803 -2722.007)"/></g><g transform="translate(17.222 95.125)"><path class="b" d="M-848.74,2685.77c-.1.116-.239.262-.362.417-.279.342-.859.609-.806,1,.046.337.569.613.885.908.529.5,1.061.993,1.6,1.479.2.176.256.3.037.516-.4.393-.724,1.057-1.177,1.152-.49.1-.843-.616-1.25-.981-1.026-.921-2.008-1.889-3.017-2.828-.229-.217-.326-.349-.053-.638q3.168-3.34,6.284-6.717c.23-.247.361-.284.626-.031q1.95,1.858,3.938,3.675c.225.207.245.334.018.547a10.612,10.612,0,0,0-.886.96c-.214.27-.372.247-.605.018-.732-.707-1.484-1.385-2.216-2.091-.215-.207-.338-.222-.56,0-1,1.009-1.012,1,.021,1.979.368.348.731.711,1.121,1.031.3.241.252.4,0,.636a7.881,7.881,0,0,0-.817.868c-.209.258-.339.286-.591.033-.589-.592-1.211-1.149-1.819-1.719A.534.534,0,0,0-848.74,2685.77Z" transform="translate(853.237 -2679.681)"/><path class="c" d="M-849.207,2690.893c-.387,0-.681-.354-.944-.67a3.449,3.449,0,0,0-.335-.369c-.639-.573-1.271-1.176-1.882-1.756-.378-.36-.756-.72-1.137-1.075-.245-.231-.451-.494-.061-.906,1.907-2.011,3.9-4.145,6.282-6.715a.669.669,0,0,1,.446-.265.684.684,0,0,1,.449.227c1.176,1.121,2.464,2.321,3.935,3.671a.6.6,0,0,1,.24.42.576.576,0,0,1-.221.405,10.329,10.329,0,0,0-.869.941.6.6,0,0,1-.416.264.636.636,0,0,1-.469-.23c-.366-.353-.738-.7-1.11-1.048s-.74-.691-1.1-1.043c-.148-.144-.151-.145-.295,0l-.031.031c-.417.42-.669.675-.666.837s.271.42.714.84l.24.229c.28.271.571.549.87.793a.633.633,0,0,1,.276.442.655.655,0,0,1-.265.478,8.109,8.109,0,0,0-.8.85.626.626,0,0,1-.424.278.647.647,0,0,1-.448-.23c-.423-.425-.871-.84-1.305-1.243-.17-.157-.34-.314-.508-.472l-.046-.045a.365.365,0,0,0-.13-.1l-.008.007c-.086.1-.184.206-.275.322a2.749,2.749,0,0,1-.374.353c-.2.169-.414.346-.393.5s.273.356.5.526c.113.086.231.177.331.271.567.532,1.078,1.009,1.6,1.476a.576.576,0,0,1,.241.4.548.548,0,0,1-.2.393,4.479,4.479,0,0,0-.367.434,1.8,1.8,0,0,1-.9.769A.665.665,0,0,1-849.207,2690.893Zm2.381-11.38h0c-.018,0-.064.022-.18.145-2.379,2.573-4.377,4.707-6.285,6.718-.163.172-.155.18.046.371.382.355.761.715,1.139,1.075.609.581,1.239,1.18,1.874,1.75a4.071,4.071,0,0,1,.372.408c.247.3.479.578.712.529s.461-.344.682-.629a4.674,4.674,0,0,1,.4-.473c.079-.078.084-.111.084-.111s-.008-.037-.113-.128c-.525-.471-1.037-.95-1.606-1.484-.087-.08-.192-.161-.3-.246-.294-.226-.6-.459-.64-.774-.05-.362.256-.617.525-.842a2.322,2.322,0,0,0,.321-.3c.094-.119.2-.235.289-.335l.141-.159.094.008a.664.664,0,0,1,.455.235l.035.035c.166.156.336.312.5.469.437.4.888.822,1.317,1.251.125.127.162.121.161.121s.039,0,.149-.14a8.245,8.245,0,0,1,.835-.888c.135-.125.144-.175.144-.19s-.008-.056-.136-.16c-.311-.254-.608-.537-.893-.813l-.239-.228c-.551-.521-.827-.783-.832-1.108s.255-.585.775-1.112l.031-.031a.5.5,0,0,1,.826,0c.363.349.731.694,1.1,1.036s.747.7,1.116,1.055c.121.118.169.126.181.124s.053-.01.145-.124a10.423,10.423,0,0,1,.9-.979c.1-.093.1-.129.1-.129s0-.037-.117-.143c-1.473-1.352-2.762-2.553-3.941-3.678C-846.766,2679.525-846.813,2679.513-846.826,2679.513Z" transform="translate(853.784 -2679.136)"/></g><g transform="translate(93.56 95.12)"><path class="b" d="M-550.148,2681.367a2.236,2.236,0,0,0-.328.2c-.733.675-1.457,1.364-2.2,2.03-.244.22-.307.362-.048.647.929,1.033.917,1.044,1.942.08.4-.377.81-.732,1.2-1.116.187-.192.324-.185.472.024a.346.346,0,0,0,.039.042c.359.4.967.789,1.006,1.222.032.4-.675.719-1.047,1.085a10.422,10.422,0,0,1-.963.885c-.272.219-.249.375,0,.6.371.341.639.991,1.066,1.019s.768-.591,1.142-.92c.517-.456,1.018-.933,1.514-1.41.163-.156.27-.179.431.006.336.382.685.753,1.043,1.111.185.183.126.293-.036.442-1.371,1.267-2.745,2.54-4.106,3.819-.191.178-.3.166-.474-.022q-3.2-3.456-6.428-6.888c-.195-.209-.135-.317.04-.479q2.051-1.876,4.084-3.764c.165-.153.268-.188.433,0,.329.386.685.75,1.029,1.124C-550.3,2681.157-550.261,2681.216-550.148,2681.367Z" transform="translate(556.242 -2679.663)"/><path class="c" d="M-549.81,2690.9h-.014a.546.546,0,0,1-.367-.21c-2.081-2.244-4.244-4.56-6.426-6.886a.531.531,0,0,1-.172-.369.557.557,0,0,1,.221-.379c1.567-1.431,2.865-2.626,4.084-3.763a.517.517,0,0,1,.374-.176.485.485,0,0,1,.33.193c.222.261.461.517.693.765.111.119.222.237.333.357a1.242,1.242,0,0,1,.114.144l.223.3-.179.108c-.037.026-.076.045-.115.067a1.245,1.245,0,0,0-.186.118c-.261.241-.524.486-.787.731-.46.428-.937.873-1.416,1.3-.1.089-.15.154-.152.188,0,.019.009.072.118.191l.032.036c.384.427.616.683.772.69l.006,0c.162,0,.426-.249.859-.657.167-.158.335-.312.5-.466.23-.21.468-.427.691-.648a.527.527,0,0,1,.4-.192.486.486,0,0,1,.355.243l.022.021c.106.118.231.233.363.353a1.754,1.754,0,0,1,.694.982c.031.377-.34.648-.7.913a3.738,3.738,0,0,0-.4.324,10.654,10.654,0,0,1-.979.9c-.121.1-.123.144-.123.145s0,.049.13.164a3.373,3.373,0,0,1,.384.455c.184.248.375.5.567.515.209.017.435-.246.652-.5a4.278,4.278,0,0,1,.353-.375c.528-.465,1.034-.948,1.508-1.4a.5.5,0,0,1,.369-.177.493.493,0,0,1,.336.195c.325.369.673.741,1.034,1.1a.476.476,0,0,1,.169.346.53.53,0,0,1-.211.368c-1.343,1.243-2.733,2.53-4.1,3.818A.548.548,0,0,1-549.81,2690.9Zm-6.6-7.452a.3.3,0,0,0,.07.094c2.183,2.326,4.346,4.644,6.429,6.889.073.081.1.089.1.089a.316.316,0,0,0,.1-.075c1.372-1.29,2.762-2.577,4.107-3.82a.372.372,0,0,0,.089-.1.555.555,0,0,0-.058-.069c-.368-.367-.722-.744-1.052-1.12a.311.311,0,0,0-.073-.069s-.027.018-.085.073c-.477.458-.987.945-1.52,1.416a3.743,3.743,0,0,0-.317.338c-.278.322-.565.653-.964.627-.365-.022-.609-.347-.844-.663a3.159,3.159,0,0,0-.336-.4.619.619,0,0,1-.253-.453.605.605,0,0,1,.265-.429,10.138,10.138,0,0,0,.948-.87,4.1,4.1,0,0,1,.448-.363c.262-.191.559-.409.545-.574-.021-.227-.3-.485-.573-.734a5.356,5.356,0,0,1-.386-.377.735.735,0,0,1-.051-.057c-.049-.07-.077-.085-.081-.086a.326.326,0,0,0-.1.082c-.231.23-.472.45-.705.661-.166.152-.333.3-.5.458-.549.517-.818.768-1.144.76s-.557-.279-1.038-.815l-.032-.035a.665.665,0,0,1-.215-.463.683.683,0,0,1,.277-.45c.477-.427.951-.868,1.411-1.295.263-.246.526-.492.791-.734a1.024,1.024,0,0,1,.177-.126.613.613,0,0,0-.057-.069c-.111-.122-.222-.24-.332-.358-.234-.25-.476-.51-.7-.773a.3.3,0,0,0-.069-.065s-.026.018-.091.079c-1.22,1.135-2.518,2.33-4.085,3.763-.084.078-.1.106-.1.114Z" transform="translate(556.789 -2679.116)"/></g><g transform="translate(46.139 109.868)"><path class="b" d="M-740.545,2746.651c-.017-.237.145-.355.246-.5q3.042-4.306,6.1-8.607c.09-.124.141-.344.333-.311s.166.253.21.4q1.518,5.042,3.025,10.085c.162.534.14.556-.4.46a4.2,4.2,0,0,0-.909-.149c-.839.048-1.206-.369-1.271-1.147-.031-.425-.226-.6-.681-.656-1.005-.11-2.006-.29-3-.48-.358-.066-.608-.014-.743.333a1.229,1.229,0,0,1-1.8.752A6.523,6.523,0,0,0-740.545,2746.651Zm4.129-2.585c.8.124,1.519.234,2.233.346.17.03.349.06.289-.212-.221-.969-.45-1.937-.7-3.025C-735.236,2742.192-735.8,2743.094-736.416,2744.066Z" transform="translate(740.735 -2737.043)"/><path class="c" d="M-731.248,2747.869a2.22,2.22,0,0,1-.367-.048c-.1-.017-.2-.04-.3-.063a2.176,2.176,0,0,0-.568-.084,1.257,1.257,0,0,1-1.47-1.319c-.023-.329-.144-.442-.514-.484-1.052-.116-2.108-.31-3.016-.481-.353-.067-.456.019-.531.212a1.4,1.4,0,0,1-2.033.862,3.323,3.323,0,0,0-.716-.128c-.121-.013-.241-.027-.36-.044l-.148-.022-.011-.151a.714.714,0,0,1,.216-.54c.023-.026.045-.053.065-.08q1.912-2.71,3.835-5.416l2.262-3.192a.643.643,0,0,0,.051-.086.448.448,0,0,1,.468-.3.455.455,0,0,1,.34.44.909.909,0,0,0,.019.094q1.517,5.04,3.025,10.083c.088.291.152.5.023.646A.337.337,0,0,1-731.248,2747.869Zm-1.183-.573a2.609,2.609,0,0,1,.606.094c.092.021.184.043.276.059.065.011.18.031.258.038-.016-.078-.051-.193-.071-.259q-1.5-5.042-3.025-10.084a1.253,1.253,0,0,1-.03-.139.511.511,0,0,0-.034-.136,1.175,1.175,0,0,0-.068.115,1.063,1.063,0,0,1-.076.127l-2.26,3.191q-1.919,2.705-3.835,5.416c-.026.036-.055.071-.084.1a.97.97,0,0,0-.092.121l.147.017a3.663,3.663,0,0,1,.8.147c.81.279,1.276.087,1.557-.642a.75.75,0,0,1,.954-.449c.9.172,1.948.363,2.988.478a.818.818,0,0,1,.849.829c.06.72.384,1.01,1.071.973C-732.478,2747.3-732.454,2747.3-732.431,2747.3Zm-2.143-3.222a1.023,1.023,0,0,1-.188-.021l-2.515-.391.7-1.111c.416-.66.828-1.314,1.276-2.023l.242-.383.1.442c.114.5.224.969.331,1.428.127.545.249,1.071.369,1.6a.388.388,0,0,1-.069.369A.33.33,0,0,1-734.574,2744.073Zm-2.076-.7,1.949.3.075.011c-.12-.522-.242-1.048-.368-1.591-.075-.321-.151-.648-.229-.987-.357.564-.694,1.1-1.034,1.64Z" transform="translate(741.282 -2736.496)"/></g><g transform="translate(109.774 71.169)"><path class="b" d="M-484.343,2596.559c-1.942-1.711-3.807-3.356-5.673-5-.911-.8-1.825-1.606-2.733-2.416-.091-.076-.235-.139-.22-.287.02-.167.2-.143.3-.164q5.4-1.014,10.787-2.016a1.382,1.382,0,0,1,.226,0c-.208.745-.411,1.466-.61,2.191-.076.266-.309.234-.494.233-.906-.008-1.317.43-1.453,1.323a17.645,17.645,0,0,1-.644,2.409c-.088.291-.082.5.2.635a1.291,1.291,0,0,1,.637,1.977A7.009,7.009,0,0,0-484.343,2596.559Zm-4.783-6.573c.94.745,1.772,1.4,2.668,2.111.228-.811.449-1.552.636-2.3.082-.3-.172-.195-.305-.18C-487.082,2589.73-488.035,2589.849-489.126,2589.985Z" transform="translate(493.16 -2586.483)"/><path class="c" d="M-484.789,2596.353l-2.1-1.847c-1.284-1.131-2.543-2.24-3.8-3.348l-.617-.543q-1.06-.937-2.116-1.872c-.013-.012-.031-.025-.049-.038a.449.449,0,0,1-.233-.41.381.381,0,0,1,.4-.324c.019,0,.037,0,.052-.008q5.4-1.014,10.791-2.018a.74.74,0,0,1,.156-.006h.354l-.183.654c-.168.6-.332,1.187-.493,1.775a.544.544,0,0,1-.631.374h-.073c-.754,0-1.113.337-1.238,1.162a14.439,14.439,0,0,1-.528,2.043l-.123.395c-.086.284-.033.344.1.408a1.474,1.474,0,0,1,.726,2.229,3.331,3.331,0,0,0-.208.68c-.03.128-.062.263-.1.4Zm-8.523-8a.717.717,0,0,0,.063.047c.027.02.052.038.076.059q1.058.942,2.118,1.871l.617.544c1.261,1.109,2.521,2.219,3.8,3.35l1.637,1.441.022-.093a3.656,3.656,0,0,1,.235-.757c.39-.823.221-1.356-.548-1.725a.639.639,0,0,1-.3-.858l.123-.4a14.193,14.193,0,0,0,.515-1.985,1.489,1.489,0,0,1,1.612-1.485h.081c.209.007.234-.013.258-.1.161-.587.326-1.175.494-1.776l.046-.164q-5.363,1-10.726,2.007a.827.827,0,0,1-.087.011C-493.281,2588.348-493.3,2588.349-493.311,2588.351Zm6.41,3.522-.223-.176c-.58-.458-1.133-.894-1.705-1.349l-1.316-1.041.448-.056c1.092-.136,2.044-.255,3-.368l.061-.012a.4.4,0,0,1,.4.068.36.36,0,0,1,.053.359c-.141.562-.3,1.12-.469,1.711Zm-2.3-2.3.609.482,1.483,1.175.091-.322c.164-.574.319-1.116.457-1.662-.033.006-.064.012-.092.014C-487.474,2589.356-488.294,2589.458-489.2,2589.57Z" transform="translate(493.707 -2585.937)"/></g><g transform="translate(0.228 66.215)"><path class="b" d="M-919.005,2567.671c3.628,1,7.147,1.978,10.671,2.958.124.034.325.021.34.2.01.162-.171.222-.282.305q-3.935,2.957-7.875,5.907l-.938.7c-.19-.805-.368-1.55-.535-2.294-.054-.24.173-.315.318-.382a1.284,1.284,0,0,0,.745-1.811,16.55,16.55,0,0,1-.467-2.4c-.053-.365-.225-.558-.575-.575-.814-.038-1.23-.41-1.217-1.265A8.84,8.84,0,0,0-919.005,2567.671Zm7.059,3.8c-1.121-.243-2.1-.449-3.087-.672-.224-.051-.252.038-.218.216.153.754.3,1.506.471,2.325C-913.846,2572.726-912.96,2572.142-911.946,2571.472Z" transform="translate(919.235 -2567.411)"/><path class="c" d="M-917.871,2577.322l-.147-.621c-.16-.679-.311-1.318-.456-1.958-.084-.368.245-.515.386-.578l.038-.018c.721-.326.9-.77.644-1.581a12.746,12.746,0,0,1-.4-1.966c-.023-.153-.047-.3-.07-.456-.049-.335-.188-.406-.4-.417a1.282,1.282,0,0,1-1.4-1.458,4.5,4.5,0,0,0-.105-.863c-.027-.147-.055-.3-.079-.458l-.043-.288.28.077c3.628,1,7.147,1.979,10.671,2.96a.563.563,0,0,0,.064.012c.116.019.39.064.413.358a.469.469,0,0,1-.286.427.693.693,0,0,0-.07.045q-3.486,2.621-6.977,5.234l-.9.674c-.29.216-.579.432-.938.7Zm-1.564-10.141c.01.054.019.1.029.156a4.788,4.788,0,0,1,.111.938c-.011.728.289,1.038,1.037,1.075a.751.751,0,0,1,.753.737c.024.15.048.3.071.458a12.453,12.453,0,0,0,.39,1.908,1.467,1.467,0,0,1-.847,2.04l-.041.019c-.186.083-.181.1-.171.149.143.64.294,1.277.454,1.955l.014.058.708-.529.9-.672q3.489-2.617,6.976-5.234c.03-.023.064-.044.1-.066a.452.452,0,0,0,.108-.078.345.345,0,0,1-.1-.01c-.036-.006-.071-.012-.1-.02C-912.481,2569.107-915.907,2568.158-919.435,2567.181Zm3.859,5.722-.056-.275c-.126-.612-.242-1.187-.356-1.757l-.115-.569a.4.4,0,0,1,.073-.375.4.4,0,0,1,.373-.062c.671.152,1.343.3,2.058.45l1.466.316-1.384.913c-.621.409-1.213.8-1.827,1.2Zm-.153-2.666.113.559c.1.482.2.971.3,1.483l1.593-1.051.632-.416-.586-.126C-914.39,2570.533-915.059,2570.39-915.729,2570.238Z" transform="translate(919.9 -2566.66)"/></g><g transform="translate(82.379 101.332)"><path class="b" d="M-598.98,2709.356c.693-.4,1.351-.769,1.994-1.159.248-.146.37.041.52.151q1.973,1.437,3.951,2.889c.141.1.288.2.53.378-.1-.866-.18-1.628-.272-2.387-.126-1.026-.255-2.051-.4-3.07a.611.611,0,0,1,.359-.741c.534-.266,1.039-.588,1.629-.93.1.926.194,1.8.288,2.671q.423,4.028.834,8.054c.025.253.191.6-.078.753-.245.14-.437-.183-.627-.321q-4.162-2.973-8.307-5.959C-598.687,2709.591-598.813,2709.488-598.98,2709.356Z" transform="translate(599.317 -2704.178)"/><path class="c" d="M-590.72,2715.3a.758.758,0,0,1-.487-.274,1.046,1.046,0,0,0-.13-.115q-3.289-2.35-6.566-4.709l-1.741-1.252c-.091-.067-.179-.138-.281-.218l-.365-.289.777-.447c.5-.287.981-.562,1.456-.848a.514.514,0,0,1,.659.1.786.786,0,0,0,.071.058q1.972,1.439,3.95,2.889c.058.042.116.084.183.13-.023-.2-.045-.395-.066-.583-.053-.477-.1-.93-.158-1.38-.113-.919-.249-2-.4-3.066a.794.794,0,0,1,.461-.936c.366-.182.722-.395,1.1-.618.168-.1.34-.2.52-.307l.252-.146.106.988c.073.671.143,1.323.212,1.973q.423,4.029.835,8.055a1.593,1.593,0,0,0,.031.169c.049.23.123.577-.2.765A.437.437,0,0,1-590.72,2715.3Zm-8.9-6.807c.069.053.132.1.2.151l1.739,1.249q3.28,2.36,6.566,4.708a1.609,1.609,0,0,1,.174.154c.151.149.2.182.249.156.07-.04.074-.111.021-.36a1.977,1.977,0,0,1-.037-.21q-.408-4.025-.834-8.052c-.069-.649-.14-1.3-.212-1.974l-.044-.406c-.09.053-.178.106-.265.156-.383.228-.745.443-1.123.632-.239.121-.3.248-.257.545.153,1.068.289,2.154.4,3.074.055.452.106.906.159,1.381.036.323.073.656.113,1.005l.049.422-.6-.422-.282-.2q-1.975-1.448-3.951-2.891a1.037,1.037,0,0,1-.094-.075c-.123-.106-.14-.111-.219-.064-.477.287-.955.562-1.462.852Z" transform="translate(600.29 -2703.284)"/></g><g transform="translate(98.49 87.963)"><path class="b" d="M-533.29,2657.7c-.169.046-.23.19-.316.3-.488.632-.981,1.26-1.438,1.909-.188.268-.317.264-.549.068-.358-.3-.741-.584-1.126-.856-.2-.135-.2-.245-.06-.429q2.5-3.257,4.979-6.528c.147-.192.279-.2.446-.046.014.012.031.023.044.032.436.351,1.122.635,1.235,1.068.107.405-.562.851-.863,1.3-.285.413-.895.815-.8,1.217.089.386.722.651,1.122.96,1.572,1.2,3.135,2.407,4.718,3.59.31.232.322.4.08.682a11.229,11.229,0,0,0-.9,1.162c-.207.325-.365.325-.664.094-1.846-1.436-3.711-2.847-5.564-4.267C-533.061,2657.861-533.181,2657.776-533.29,2657.7Z" transform="translate(537.064 -2651.816)"/><path class="c" d="M-527.591,2662.023a.788.788,0,0,1-.456-.2c-1.293-1.006-2.616-2.015-3.9-2.992q-.835-.638-1.668-1.276c-.08-.063-.164-.123-.244-.182a.7.7,0,0,0-.088.111c-.02.03-.039.059-.06.086l-.177.227c-.421.545-.857,1.107-1.256,1.675a.593.593,0,0,1-.383.285.6.6,0,0,1-.444-.183c-.307-.259-.66-.526-1.112-.843a.5.5,0,0,1-.232-.314.514.514,0,0,1,.129-.384c1.688-2.2,3.363-4.4,4.98-6.531a.5.5,0,0,1,.354-.228.493.493,0,0,1,.372.159.411.411,0,0,1,.036.026,5.146,5.146,0,0,0,.426.294c.38.244.773.5.871.869s-.22.708-.527,1.031a3.73,3.73,0,0,0-.361.42,3.683,3.683,0,0,1-.365.423c-.222.233-.451.473-.412.646.046.2.366.4.65.579a4.873,4.873,0,0,1,.4.274l.878.673c1.254.959,2.551,1.953,3.837,2.914a.706.706,0,0,1,.322.455.686.686,0,0,1-.211.5,10.929,10.929,0,0,0-.883,1.144.655.655,0,0,1-.41.333A.365.365,0,0,1-527.591,2662.023Zm-6.208-5.08.157.115c.087.063.177.13.263.2q.831.638,1.667,1.274c1.28.977,2.6,1.989,3.9,2.993.155.12.213.126.231.123s.063-.021.157-.168a11.2,11.2,0,0,1,.914-1.186c.112-.13.124-.19.122-.215s-.029-.083-.173-.192c-1.288-.963-2.586-1.958-3.84-2.918l-.879-.673c-.11-.085-.239-.167-.376-.253-.361-.229-.735-.465-.816-.816-.083-.372.217-.687.507-.991a3.3,3.3,0,0,0,.326-.376,3.752,3.752,0,0,1,.4-.467c.225-.238.48-.506.436-.674-.061-.23-.391-.443-.71-.649a5.514,5.514,0,0,1-.461-.318l-.046-.035c-.065-.06-.091-.066-.092-.066a.268.268,0,0,0-.083.081c-1.616,2.13-3.292,4.327-4.979,6.529a.311.311,0,0,0-.057.1h0a.492.492,0,0,0,.074.063c.461.324.824.6,1.14.863.117.1.152.1.152.1s.037-.009.121-.129c.4-.573.843-1.139,1.266-1.686l.177-.229.047-.067a.647.647,0,0,1,.367-.3Z" transform="translate(537.611 -2651.271)"/></g><g transform="translate(78.006 107.264)"><path class="b" d="M-610.836,2736.309c.027.145-.069.191-.177.231-.592.224-1.189.44-1.775.676-.367.152-.343-.168-.4-.332-.931-2.416-1.851-4.834-2.776-7.255-.179-.472-.353-.95-.548-1.416-.1-.23-.072-.35.186-.436q.827-.283,1.625-.623c.235-.1.356-.079.451.171q1.676,4.417,3.365,8.83A1.136,1.136,0,0,1-610.836,2736.309Z" transform="translate(616.756 -2726.91)"/><path class="c" d="M-613.5,2736.9a.361.361,0,0,1-.169-.04.5.5,0,0,1-.224-.371.668.668,0,0,0-.023-.084q-1.024-2.656-2.038-5.323l-.852-2.236c-.137-.365-.279-.742-.431-1.1a.548.548,0,0,1-.032-.436.522.522,0,0,1,.333-.253c.55-.189,1.093-.4,1.611-.618a.563.563,0,0,1,.441-.039.525.525,0,0,1,.261.317q1.06,2.792,2.127,5.583l1.238,3.246a1.128,1.128,0,0,1,.049.143l.012.042a.387.387,0,0,1-.3.446l-.466.173c-.43.16-.874.327-1.3.5A.634.634,0,0,1-613.5,2736.9Zm-3.427-9.436a.435.435,0,0,0,.039.131c.154.368.3.749.435,1.116l.852,2.234q1.017,2.665,2.039,5.324a1.054,1.054,0,0,1,.038.136.587.587,0,0,0,.035.12c.005-.005.033-.009.083-.03.436-.177.883-.344,1.315-.5l.464-.174c.027-.01.045-.018.055-.023v0a.918.918,0,0,0-.036-.1l-1.242-3.256q-1.066-2.792-2.128-5.585c-.053-.141-.054-.105-.062-.105a.436.436,0,0,0-.138.041c-.526.224-1.077.436-1.637.628a.257.257,0,0,0-.111.054Zm5.359,8.342v0h0Z" transform="translate(617.302 -2726.363)"/></g><g transform="translate(90.96 99.884)"><path class="b" d="M-558.331,2706.3c.008.143-.1.181-.189.243-.478.357-.962.705-1.431,1.074-.185.144-.284.14-.429-.051q-2.829-3.79-5.679-7.562c-.155-.208-.155-.318.064-.47q.717-.5,1.4-1.039c.2-.165.309-.145.463.069q2.817,3.765,5.649,7.52C-558.433,2706.157-558.385,2706.232-558.331,2706.3Z" transform="translate(566.358 -2698.197)"/><path class="c" d="M-560.712,2707.362a.233.233,0,0,1-.045,0,.5.5,0,0,1-.321-.223c-1.784-2.39-3.642-4.863-5.679-7.563a.548.548,0,0,1-.143-.409.528.528,0,0,1,.25-.331c.458-.316.925-.664,1.388-1.031a.52.52,0,0,1,.389-.147.534.534,0,0,1,.344.253q1.945,2.6,3.9,5.2l1.809,2.412c.029.041.058.083.089.123l.036.047,0,.058a.408.408,0,0,1-.226.38.209.209,0,0,0-.039.026c-.148.11-.3.219-.446.33-.324.24-.659.488-.981.741A.558.558,0,0,1-560.712,2707.362Zm-5.816-8.134a.529.529,0,0,0,.072.117c2.038,2.7,3.9,5.175,5.68,7.563a.328.328,0,0,0,.072.077s.027-.014.089-.062c.326-.257.663-.5.99-.746l.445-.332c.02-.014.04-.028.06-.039a.329.329,0,0,1,.031-.021l-.037-.053-.059-.084-1.742-2.316q-1.955-2.6-3.905-5.2a.347.347,0,0,0-.093-.1.653.653,0,0,0-.1.068c-.471.374-.944.726-1.409,1.047-.079.056-.092.082-.093.085Z" transform="translate(566.905 -2697.65)"/></g><g transform="translate(14.507 92.682)"><path class="b" d="M-862.012,2678.712a.267.267,0,0,1-.247-.138c-.414-.458-.809-.928-1.237-1.371-.274-.289.022-.377.154-.493q2.5-2.261,5-4.512c.62-.557,1.245-1.106,1.854-1.679.225-.215.357-.208.552.034q.526.655,1.117,1.26c.211.219.157.334-.048.514q-3.464,3.093-6.922,6.194A2.753,2.753,0,0,1-862.012,2678.712Z" transform="translate(863.798 -2670.175)"/><path class="c" d="M-862.583,2678.356a.437.437,0,0,1-.353-.187c-.156-.175-.3-.335-.443-.5-.258-.292-.525-.6-.8-.881a.48.48,0,0,1-.164-.379.492.492,0,0,1,.259-.337c.025-.018.05-.033.07-.05q2.451-2.221,4.913-4.432l.088-.081c.173-.155.346-.31.52-.463.439-.395.894-.8,1.331-1.213a.612.612,0,0,1,.431-.2.584.584,0,0,1,.4.258c.342.425.714.844,1.106,1.248a.551.551,0,0,1,.187.388.586.586,0,0,1-.246.4q-2.939,2.625-5.873,5.255l-1.048.94c-.063.06-.137.119-.2.167l-.082.065-.058,0Zm-1.382-1.9c.007,0,.021.031.06.071.279.289.55.6.811.892.142.161.284.322.429.482l.022.025a.442.442,0,0,0,.033.039c.047-.037.1-.081.148-.127l1.052-.943q2.934-2.627,5.874-5.256c.1-.092.117-.123.119-.132h0a.308.308,0,0,0-.081-.108c-.4-.412-.78-.841-1.129-1.274-.092-.114-.128-.118-.129-.118s-.034,0-.146.1c-.442.416-.9.823-1.339,1.22-.173.154-.346.309-.518.464l-.088.081q-2.459,2.212-4.915,4.431a1,1,0,0,1-.11.083A.67.67,0,0,0-863.965,2676.457Z" transform="translate(864.345 -2669.631)"/></g><g transform="translate(24.414 94.513)"><path class="b" d="M-823.861,2677.891l2.586-.4c.148-.022.234.077.329.157,1.236,1.01,1.241,1.018,1.009,2.637a3.545,3.545,0,0,1-.178,1.12c-.353-.337-.694-.648-1.022-.979-.271-.271-.051-.585-.034-.877.044-.755.034-.849-.677-.64C-822.861,2679.207-823.161,2678.374-823.861,2677.891Z" transform="translate(824.36 -2677.3)"/><path class="c" d="M-821.5,2681.178l-.19-.181-.327-.31c-.239-.225-.472-.445-.7-.672a.751.751,0,0,1-.132-.8,1.247,1.247,0,0,0,.044-.223,1.94,1.94,0,0,0-.007-.542,1.7,1.7,0,0,0-.427.1,1.521,1.521,0,0,1-1.668-.6,3.769,3.769,0,0,0-.507-.449l-.391-.271,3.056-.468a.53.53,0,0,1,.445.169l.034.03c1.284,1.054,1.315,1.131,1.075,2.81a3.008,3.008,0,0,0-.028.334,2.108,2.108,0,0,1-.166.838Zm-1.331-3.1a.4.4,0,0,1,.262.082c.184.146.169.412.143.857a1.583,1.583,0,0,1-.055.292c-.059.228-.072.333.033.438.224.226.454.443.69.665l.113.106a2.785,2.785,0,0,0,.044-.434,3.384,3.384,0,0,1,.031-.372c.216-1.515.216-1.515-.942-2.464l-.043-.036c-.08-.072-.1-.086-.137-.079l-2.167.333c.076.07.149.143.22.215.395.394.68.681,1.294.5A1.94,1.94,0,0,1-822.829,2678.079Z" transform="translate(825.803 -2676.754)"/></g><g transform="translate(51.041 107.835)"><path class="b" d="M-720.074,2729.325a8.809,8.809,0,0,1,1.538.568c.428.17.792.349,1.166-.192.209-.3.593.058.879.155.229.077.027.28-.021.408-.431,1.057-.9,1.254-1.939.821-.3-.127-.6-.244-.9-.383-.442-.211-.8-.318-1.151.22-.222.347-.542-.039-.807-.115-.322-.093-.087-.308-.018-.427C-721.056,2729.885-720.785,2729.373-720.074,2729.325Z" transform="translate(721.662 -2729.135)"/><path class="c" d="M-718.15,2730.939a2.459,2.459,0,0,1-.922-.229l-.293-.122c-.206-.086-.411-.17-.614-.266-.433-.208-.65-.256-.911.152s-.637.173-.821.065a1,1,0,0,0-.2-.1.387.387,0,0,1-.286-.233.463.463,0,0,1,.12-.419c.014-.02.027-.036.036-.052.282-.519.6-1.094,1.4-1.149l.023,0,.023,0a5.411,5.411,0,0,1,1.141.4c.143.061.287.124.432.182l.06.024c.406.162.61.244.88-.148.249-.357.642-.148.876-.023a1.729,1.729,0,0,0,.22.105.328.328,0,0,1,.217.192.458.458,0,0,1-.083.392.552.552,0,0,0-.039.072,1.766,1.766,0,0,1-.853,1.08A1.064,1.064,0,0,1-718.15,2730.939Zm-2.319-1.148a1.569,1.569,0,0,1,.653.191c.2.092.4.174.6.257l.3.122a1.4,1.4,0,0,0,1.044.149c.243-.1.442-.368.646-.867a.769.769,0,0,1,.063-.123l.029-.052a2.381,2.381,0,0,1-.234-.114c-.28-.149-.344-.155-.386-.1-.442.642-.935.444-1.332.284l-.059-.024c-.149-.059-.3-.123-.444-.187a5.29,5.29,0,0,0-1.035-.367c-.583.05-.807.462-1.067.941a1.192,1.192,0,0,1-.067.1c-.013.018-.03.042-.045.065l.008,0a1.245,1.245,0,0,1,.285.14c.25.148.264.126.309.056A.864.864,0,0,1-720.469,2729.791Zm-1.385.265Z" transform="translate(722.21 -2728.585)"/></g><g transform="translate(69.832 106.899)"><path class="b" d="M-643.451,2727.118c-.516.149-.922.3-1.34.38-.4.069-.624-.312-.923-.491-.2-.122-.35-.148-.382.106-.135,1.082-1.011,1.084-1.851,1.308.274-.779.532-1.488.776-2.2.055-.165.187-.2.324-.252a1.9,1.9,0,0,1,2.47.389A6.911,6.911,0,0,0-643.451,2727.118Z" transform="translate(648.244 -2725.497)"/><path class="c" d="M-649.1,2728.141l.119-.337c.1-.288.2-.566.3-.836.166-.466.325-.914.479-1.364a.558.558,0,0,1,.39-.35l.043-.017a2.077,2.077,0,0,1,2.685.442,2.926,2.926,0,0,0,.528.452c.117.087.243.179.373.286l.28.227-.347.1c-.17.048-.328.1-.478.146a7.362,7.362,0,0,1-.881.239.968.968,0,0,1-.821-.333,1.861,1.861,0,0,0-.233-.183.913.913,0,0,0-.094-.049s0,.01,0,.017c-.13,1.047-.88,1.215-1.6,1.376-.127.028-.256.058-.385.091Zm2.557-2.815a2.934,2.934,0,0,0-1.089.261l-.049.019c-.119.046-.148.062-.167.118-.155.452-.315.9-.481,1.37l-.18.507.056-.012c.7-.158,1.214-.272,1.312-1.054a.389.389,0,0,1,.2-.332.5.5,0,0,1,.469.088,1.994,1.994,0,0,1,.287.221c.2.172.325.276.506.245a6.69,6.69,0,0,0,.833-.228l.133-.04-.071-.053a3.168,3.168,0,0,1-.595-.516A1.445,1.445,0,0,0-646.546,2725.326Z" transform="translate(649.103 -2724.942)"/></g><g transform="translate(93.227 94.589)"><path class="b" d="M-557.106,2681.4c-.083-.81-.154-1.528-.238-2.241a.43.43,0,0,1,.175-.42c.325-.266.638-.533.952-.809a.462.462,0,0,1,.442-.133l2.162.517c-.61.578-1.064,1.264-2.006.9-.212-.081-.431-.027-.351.27C-555.68,2680.489-556.431,2680.868-557.106,2681.4Z" transform="translate(557.537 -2677.597)"/><path class="c" d="M-557.805,2681.219l-.07-.682c-.069-.673-.131-1.287-.2-1.9a.619.619,0,0,1,.243-.588c.336-.275.655-.55.948-.806a.647.647,0,0,1,.613-.174l2.5.6-.253.24c-.087.084-.172.168-.255.253-.506.512-1.03,1.044-1.95.683a.261.261,0,0,0-.113-.02c0,.008,0,.03.014.063.287,1-.336,1.465-.938,1.917-.087.066-.176.133-.263.2Zm1.376-3.79a.312.312,0,0,0-.208.1c-.3.261-.619.537-.96.814a.248.248,0,0,0-.106.255c.072.611.135,1.228.2,1.9v0c.59-.444,1.016-.764.8-1.512a.417.417,0,0,1,.093-.449.486.486,0,0,1,.507-.05c.69.271,1.067-.112,1.544-.6l.019-.02-1.831-.437A.21.21,0,0,0-556.429,2677.429Z" transform="translate(558.084 -2677.05)"/></g><g transform="translate(10.451 69.765)"><path class="b" d="M-876.192,2582.811c-.054.479-.044,1.015-.567,1.306a1.325,1.325,0,0,1-1.424-.181c-.215-.138-.426-.317-.7-.24-.411.115-.423-.165-.492-.428-.1-.392.224-.28.39-.349a1.2,1.2,0,0,1,.847.062c.2.063.406.143.616.19a.435.435,0,0,0,.583-.337.429.429,0,0,0-.374-.553c-.155-.035-.357-.022-.354-.252,0-.258-.289-.573-.022-.753.241-.167.563.011.805.169A1.567,1.567,0,0,1-876.192,2582.811Z" transform="translate(879.579 -2581.019)"/><path class="c" d="M-877.825,2583.9a1.946,1.946,0,0,1-1.005-.351l-.093-.061c-.187-.123-.309-.2-.45-.156a.561.561,0,0,1-.453-.027.642.642,0,0,1-.254-.452l-.021-.084a.462.462,0,0,1,.037-.393.456.456,0,0,1,.361-.162.621.621,0,0,0,.1-.015,1.365,1.365,0,0,1,.979.055c.068.021.139.045.21.07a4.009,4.009,0,0,0,.389.116c.258.061.327-.075.358-.2s.024-.263-.233-.322l-.07-.015c-.131-.02-.435-.073-.429-.425a.784.784,0,0,0-.057-.216c-.067-.183-.177-.49.118-.691.365-.255.82.04,1.014.165a1.746,1.746,0,0,1,.773,1.518v.014l-.018.172a1.446,1.446,0,0,1-.648,1.293A1.238,1.238,0,0,1-877.825,2583.9Zm-1.47-.959a1.071,1.071,0,0,1,.581.232l.085.055c.518.323.875.375,1.231.176.379-.208.414-.574.455-1,0-.05.01-.1.015-.15a1.367,1.367,0,0,0-.6-1.2c-.2-.131-.453-.269-.594-.171-.039.026-.051.045.023.25a1.024,1.024,0,0,1,.08.35.112.112,0,0,0,0,.028l.112.02a.593.593,0,0,1,.092.019.612.612,0,0,1,.516.777.621.621,0,0,1-.811.479,3.891,3.891,0,0,1-.425-.127c-.068-.022-.135-.045-.2-.066a1.049,1.049,0,0,0-.721-.069.726.726,0,0,1-.206.044c-.025,0-.06.006-.083.01a.379.379,0,0,0,.012.072l.023.093c.018.079.047.195.078.215,0,0,.039.021.157-.012A.606.606,0,0,1-879.3,2582.94Z" transform="translate(880.125 -2580.472)"/></g><g transform="translate(29.204 96.333)"><path class="b" d="M-805.408,2684.576a1.948,1.948,0,0,1,1.7,1.48,1.143,1.143,0,0,1-.877,1.152c-.4.131-.861.1-1.127.55-.146.247-.3-.035-.445-.1s-.284-.157-.144-.375a1.808,1.808,0,0,1,.782-.719,5.034,5.034,0,0,0,.579-.289.442.442,0,0,0,.165-.655.407.407,0,0,0-.616-.138c-.5.387-.675-.169-.983-.317-.142-.069,0-.186.069-.252A1.126,1.126,0,0,1-805.408,2684.576Z" transform="translate(806.619 -2684.383)"/><path class="c" d="M-806.388,2687.5a.5.5,0,0,1-.316-.158.608.608,0,0,0-.078-.062.5.5,0,0,1-.3-.293.43.43,0,0,1,.076-.354,2.012,2.012,0,0,1,.866-.79,4.619,4.619,0,0,0,.558-.28.254.254,0,0,0,.1-.4.261.261,0,0,0-.169-.13.218.218,0,0,0-.17.047.65.65,0,0,1-.979-.13.841.841,0,0,0-.2-.169.274.274,0,0,1-.164-.2.4.4,0,0,1,.166-.336,1.322,1.322,0,0,1,1.052-.4,2.126,2.126,0,0,1,1.881,1.644,1.323,1.323,0,0,1-1.006,1.354,3.218,3.218,0,0,1-.327.085.9.9,0,0,0-.7.382.354.354,0,0,1-.247.19A.423.423,0,0,1-806.388,2687.5Zm-.046-.363Zm-.276-.244a.756.756,0,0,1,.093.046.718.718,0,0,1,.162.117c.013.012.031.028.048.04a1.27,1.27,0,0,1,.93-.543c.1-.022.2-.042.29-.073a.955.955,0,0,0,.748-.948,1.762,1.762,0,0,0-1.52-1.313h-.012a.941.941,0,0,0-.745.283l-.01.008a1.764,1.764,0,0,1,.2.179c.2.206.271.257.48.1a.591.591,0,0,1,.471-.118.637.637,0,0,1,.422.306.632.632,0,0,1-.228.916,5.157,5.157,0,0,1-.6.3,1.6,1.6,0,0,0-.7.649.178.178,0,0,0-.027.055Z" transform="translate(807.166 -2683.838)"/></g><g transform="translate(74.848 119.854)"><path class="b" d="M-627.17,2776.857c0,.247-.887.707-1.243.628-.441-.1-.288-.589-.441-.89a2.315,2.315,0,0,1,1.269-.517C-627.149,2776.19-627.4,2776.684-627.17,2776.857Z" transform="translate(629.044 -2775.885)"/><path class="c" d="M-628.868,2777.142a.574.574,0,0,1-.132-.014c-.42-.1-.469-.459-.5-.7a.949.949,0,0,0-.067-.287.222.222,0,0,1,.034-.243,2.6,2.6,0,0,1,1.451-.544.6.6,0,0,1,.435.614c.008.079.018.176.047.2l.076.058v.094a.538.538,0,0,1-.253.392A2.127,2.127,0,0,1-628.868,2777.142Zm-.314-1.05a1.832,1.832,0,0,1,.055.285c.037.271.067.35.211.383a1.675,1.675,0,0,0,.978-.413.82.82,0,0,1-.087-.342c-.021-.2-.037-.255-.153-.284A2.841,2.841,0,0,0-629.182,2776.092Z" transform="translate(629.59 -2775.343)"/></g><g transform="translate(102.362 104.637)"><path class="b" d="M-520.046,2717.593a4.974,4.974,0,0,1-1.008,1.031,2.617,2.617,0,0,1-.753-.742,6.931,6.931,0,0,1,.986-1A2.432,2.432,0,0,1-520.046,2717.593Z" transform="translate(521.997 -2716.691)"/><path class="c" d="M-521.612,2718.267c-.065,0-.165-.029-.485-.337-.45-.433-.448-.54-.447-.6a4.276,4.276,0,0,1,1.143-1.185c.088-.014.174.013.4.2.173.143.571.488.592.678h0c.008.088-.033.163-.189.346-.008.009-.77.881-1,.893Zm-.519-.923a4.263,4.263,0,0,0,.522.516,8.022,8.022,0,0,0,.8-.815,3.933,3.933,0,0,0-.537-.492C-521.53,2716.711-521.969,2717.156-522.131,2717.344Zm-.046-.065" transform="translate(522.544 -2716.145)"/></g><g transform="translate(54.451 41.89)"><path class="b" d="M-701.618,2485.869a6.592,6.592,0,0,1-6.588-6.512,6.614,6.614,0,0,1,6.514-6.6,6.608,6.608,0,0,1,6.614,6.548A6.594,6.594,0,0,1-701.618,2485.869Z" transform="translate(708.395 -2472.571)"/><path class="c" d="M-702.223,2485.513a6.753,6.753,0,0,1-6.719-6.7,6.655,6.655,0,0,1,1.948-4.751,6.7,6.7,0,0,1,4.753-2.037h.045a6.705,6.705,0,0,1,4.742,1.963,6.718,6.718,0,0,1,2.018,4.773,6.774,6.774,0,0,1-6.727,6.752h-.06Zm.027-13.11h-.042a6.326,6.326,0,0,0-4.485,1.923,6.282,6.282,0,0,0-1.84,4.483,6.375,6.375,0,0,0,6.341,6.326h.057a6.4,6.4,0,0,0,6.352-6.372,6.34,6.34,0,0,0-1.906-4.505A6.33,6.33,0,0,0-702.2,2472.4Z" transform="translate(708.942 -2472.024)"/></g></g><g transform="translate(10.005 46.58)"><path class="d" d="M-879.586,2495.149s-4.127-1.15-1.261-4.88h27.112a4.706,4.706,0,0,1,2.592,5.716s-.68,2.618-3.989,1.743a11.345,11.345,0,0,1-2.558-1.533,9.022,9.022,0,0,0-3.412-1.325l-5.309-.035s-2.5-.069-2.5,2.093v6.134h7.772s2.672-4.092,5.491-1.719c0,0,.547.254.707,1.719,0,0,1.227,6.089-3.526,5.416a8.164,8.164,0,0,1-1.681-.767h-8.529l-.046,5.6s-.273,4.577,4.276,4.135l4.821.029s1.886.064,5.525-3.421c0,0,4.163-1.3,4.825,1.905,0,0,.882,1.905-2.479,6.25h-28.31s-4.025-2.137.591-5.645Z" transform="translate(881.86 -2490.269)"/></g><g transform="translate(43.923 46.243)"><path class="d" d="M-748.9,2488.962h27.128s2.979,1.347,2.682,4.391c0,0,.316,4.254-4.182,3.068a7.147,7.147,0,0,1-2-1.184,8.654,8.654,0,0,0-4.07-1.651h-5.046s-2.389-.161-2.569,1.835v6.391h7.822s2.7-4.46,5.8-1.394c0,0,1.23,3.95-.228,5.717,0,0-1.479,2.392-4.638.3l-8.525.022.091,9.2s4.047,2.7.5,5.323h-11.914s-4.161-2.164.5-5.7l-.114-21.426S-751.737,2492.8-748.9,2488.962Z" transform="translate(749.903 -2488.962)"/></g><g transform="translate(75.208 46.441)"><path class="d" d="M-627.316,2489.883l14.9,0s3.121,1.446-1.3,4.462l7.433,9.359,6.785-9.2s-4.346-3.257-.563-4.774l8.822.174s2.472.471.183,3.275l-12.331,15.564v8.227s4.9,1.794,1.434,4.65h-13.144s-4.711-1.672.85-4.528l.018-8.418s-11.734-14.205-12.263-14.555a8.592,8.592,0,0,1-1.434-1.689A1.871,1.871,0,0,1-627.316,2489.883Z" transform="translate(628.19 -2489.731)"/></g></g></g></svg>